<svg width="50" height="40" viewBox="0 0 50 40" fill="none" xmlns="http://www.w3.org/2000/svg">
<path fill-rule="evenodd" clip-rule="evenodd" d="M43.8517 0.000716183C44.2128 -0.00871984 44.808 0.0762043 45.2178 0.189437C45.6179 0.293233 46.2131 0.519697 46.5351 0.68011C46.8572 0.849958 47.4036 1.25571 47.7549 1.5954C48.2037 2.02002 48.4965 2.42577 48.7502 2.91645C48.9356 3.30332 49.1405 3.81287 49.199 4.04877C49.2673 4.32241 49.3064 8.56862 49.3259 16.3156C49.3454 26.7141 49.3259 28.205 49.199 28.5352C49.121 28.7428 48.9258 29.1486 48.7794 29.4317C48.6331 29.7147 48.2135 30.2337 47.8622 30.5829C47.3938 31.0358 47.023 31.3 46.4864 31.5359C46.0863 31.7152 45.4911 31.9133 45.169 31.9699C44.7592 32.0454 39.6266 32.0737 11.4557 32.0737L10.9678 31.6019V5.36981L11.4459 4.89801H38.4361L38.563 4.2658C38.6313 3.90723 38.846 3.30332 39.0411 2.91645C39.2948 2.41634 39.5876 2.02946 40.0364 1.5954C40.3877 1.25571 40.9244 0.859394 41.2171 0.698982C41.5099 0.548005 42.0856 0.330977 42.4856 0.208309C42.8955 0.0950764 43.4907 0.000716183 43.8517 0.000716183ZM42.0661 1.85018C41.7928 1.98228 41.3342 2.31254 41.061 2.57675C40.7975 2.84096 40.4462 3.31276 40.2804 3.62415L39.9974 4.19031L39.9486 21.0336C40.6707 20.4297 41.1293 20.1372 41.4318 19.9862C41.744 19.8352 42.2514 19.6465 42.5539 19.571C42.8662 19.4955 43.4907 19.4295 43.9493 19.4295C44.4079 19.4295 45.0324 19.4955 45.3349 19.571C45.6472 19.6465 46.1546 19.8352 46.4571 19.9862C46.7693 20.1372 47.228 20.4297 47.4817 20.6467L47.95 21.0336L47.9012 4.27523C47.3158 3.1146 47.023 2.71829 46.7108 2.44464C46.4571 2.21818 45.9594 1.89736 45.6081 1.74638C45.0812 1.51048 44.8275 1.45386 44.1445 1.43499C43.6859 1.42555 43.1492 1.45386 42.9443 1.50104C42.7491 1.55766 42.349 1.70864 42.0661 1.85018ZM12.4315 30.7527L45.0715 30.7055C46.096 30.2337 46.6034 29.894 46.8572 29.6487C47.1109 29.3939 47.4524 28.941 47.6183 28.6296L47.9012 28.0634C47.9598 24.2135 47.9403 23.9399 47.7646 23.3926C47.6573 23.0529 47.3938 22.5717 47.1889 22.3075C46.984 22.0527 46.6034 21.6753 46.34 21.4865C46.0668 21.2884 45.5886 21.043 45.2666 20.9392C44.8958 20.8166 44.4274 20.7505 43.9688 20.7505C43.5102 20.7505 43.0516 20.8166 42.6515 20.9487C42.3198 21.0619 41.8709 21.2601 41.6562 21.411C41.4415 21.5526 41.1 21.8545 40.8951 22.081C40.6902 22.3075 40.417 22.7132 40.2901 22.968C40.1535 23.2322 40.0267 23.6285 39.9974 23.8644C39.9681 24.1003 39.9193 24.4306 39.8901 24.6004C39.8705 24.7608 39.7632 24.9873 39.6559 25.0911C39.5485 25.1949 39.3339 25.2798 39.168 25.2798C39.0021 25.2798 38.7874 25.1949 38.6801 25.0911C38.4849 24.9024 38.4849 24.7797 38.4849 15.6079V6.31341H12.4315V30.7527ZM0.458618 33.5835H21.2526C41.5782 33.5741 42.0563 33.5835 42.2905 33.7534C42.4271 33.8572 44.1347 34.4139 46.096 34.9895C48.0574 35.5651 49.7357 36.1124 49.8333 36.2067C49.9309 36.2916 50.0089 36.4709 49.9992 36.603C49.9992 36.7351 49.9504 36.9144 49.8821 37.0088C49.804 37.1031 49.0527 37.4145 48.0964 37.7354C47.1792 38.0467 45.5594 38.5846 44.486 38.9337C43.3248 39.3017 42.4271 39.6414 41.9977 40H0.526923L0.0390314 39.5282L0 34.0176L0.458618 33.5835ZM1.50271 38.5846H7.55257V34.9989H1.50271V38.5846ZM8.96746 38.5374H41.0708L41.1195 34.9989H8.90891L8.96746 38.5374ZM42.7101 38.0845C42.7784 38.0656 43.7151 37.7637 44.808 37.424C45.8911 37.0748 46.7791 36.7634 46.7791 36.7257C46.7791 36.688 45.9399 36.4049 44.9056 36.1124C43.8713 35.8104 42.9345 35.5368 42.8174 35.5085C42.6222 35.4518 42.6125 35.4801 42.6027 36.7823C42.593 37.8108 42.6125 38.1034 42.7101 38.0845ZM1.10264 4.99237L8.96746 5.00181L9.41632 5.41699V18.4859C9.41632 31.3094 9.41632 31.5642 9.03576 32.0266L5.24972 32.0549C3.16154 32.0737 1.35634 32.0643 1.23925 32.036C1.11239 32.0077 0.926995 31.885 0.819659 31.7718C0.624502 31.5548 0.624502 31.4698 0.63426 5.45474L1.10264 4.99237ZM2.08818 7.16265C4.71304 7.20983 4.76183 7.21927 4.93747 7.44574C5.07408 7.61558 5.11311 7.76656 5.07408 7.99302C5.03505 8.21005 4.92771 8.34216 4.7228 8.43652C4.50812 8.54031 4.10805 8.57806 3.25912 8.57806H2.08818V9.23858C3.3567 9.23858 3.56161 9.27632 3.77628 9.4273C3.9812 9.56884 4.03975 9.70094 4.03975 9.94628C4.03975 10.1539 3.97144 10.352 3.84459 10.4653C3.67871 10.6257 3.52258 10.654 2.86881 10.654H2.08818V11.4089H4.7228C5.03505 11.8146 5.12287 11.9845 5.12287 12.0505C5.11311 12.1166 5.07408 12.2675 5.01553 12.3808C4.96674 12.494 4.81062 12.645 4.67401 12.711C4.51788 12.7865 4.00071 12.8243 3.25912 12.8243H2.08818V13.4848C3.3567 13.4848 3.56161 13.5225 3.77628 13.6735C3.9812 13.815 4.03975 13.9472 4.03975 14.1925C4.03975 14.4001 3.97144 14.5982 3.84459 14.7115C3.67871 14.8719 3.52258 14.9002 2.86881 14.9002H2.08818V15.6551C4.57643 15.6551 4.63497 15.6645 4.86916 15.891C5.00577 16.0231 5.11311 16.2401 5.11311 16.3628C5.11311 16.4949 5.00577 16.7119 4.87892 16.8346C4.64473 17.0705 4.59594 17.0705 3.36646 17.0705H2.08818V17.6838C3.44452 17.7687 3.67871 17.8254 3.83483 17.9669C3.96168 18.0801 4.0495 18.2688 4.0495 18.4387C4.03975 18.5991 3.9812 18.8256 3.89338 18.9388C3.76653 19.1275 3.66895 19.1464 2.91759 19.1464H2.08818V19.9013C4.57643 19.9013 4.63497 19.9107 4.86916 20.1372C5.00577 20.2693 5.11311 20.4863 5.11311 20.609C5.11311 20.7411 5.00577 20.9581 4.87892 21.0808C4.64473 21.3167 4.59594 21.3167 3.36646 21.3167H2.08818V22.0716C3.52258 22.0716 3.67871 22.1093 3.84459 22.2603C3.97144 22.383 4.03975 22.5811 4.03975 22.7793C4.03975 23.034 3.9812 23.1567 3.77628 23.3077C3.56161 23.4587 3.3567 23.4964 2.8005 23.4964L2.08818 23.487V24.1475C4.70328 24.1947 4.75207 24.2041 4.92771 24.4306C5.03505 24.5627 5.12287 24.7514 5.12287 24.8552C5.12287 24.959 5.03505 25.1666 4.92771 25.3081L4.7228 25.5629H2.08818V26.3178C3.52258 26.3178 3.67871 26.3555 3.84459 26.5065C3.97144 26.6292 4.03975 26.8273 4.03975 27.0255C4.03975 27.2802 3.9812 27.4029 3.77628 27.5539C3.56161 27.7049 3.3567 27.7426 2.8005 27.7426L2.08818 27.7332V28.4881H4.7228C5.03505 28.8938 5.12287 29.0637 5.12287 29.1297C5.11311 29.1958 5.06432 29.3562 4.99601 29.4883C4.92771 29.6109 4.74231 29.7619 4.57643 29.8185C4.4203 29.8657 3.7958 29.9129 3.19081 29.9129L2.08818 29.9035V30.6583H8.04046V6.31341H2.08818V7.16265ZM25.4387 7.83261C25.6924 7.83261 26.0242 7.87036 26.1705 7.92697C26.3169 7.98359 28.2099 9.72925 30.3762 11.8146C32.9815 14.334 34.3769 15.74 34.494 15.9853C34.5915 16.1929 34.6794 16.5138 34.6794 16.693C34.6794 16.8818 34.5915 17.1648 34.4842 17.3347C34.3769 17.5045 34.1329 17.7027 33.606 17.9197V28.8655L33.3425 29.0637C33.0791 29.2524 32.962 29.2524 25.4582 29.2524C17.9544 29.2524 17.8471 29.2524 17.3104 28.8655V17.9197L17.0469 17.7876C16.9006 17.7216 16.6957 17.58 16.5981 17.4857C16.5005 17.3913 16.4029 17.1177 16.3737 16.8818C16.3346 16.6459 16.3639 16.2967 16.4322 16.0797C16.5298 15.7777 17.2714 15.004 20.472 11.8995C22.6284 9.80474 24.5215 8.03077 24.6776 7.96472C24.8435 7.88923 25.185 7.83261 25.4387 7.83261ZM17.9447 16.476C18.052 16.5232 21.438 16.5515 25.4582 16.5515C29.4882 16.5515 32.8644 16.5232 32.9717 16.476C33.1376 16.4194 32.6497 15.9098 29.4101 12.7771C26.9609 10.4181 25.5851 9.14422 25.4582 9.14422C25.3314 9.14422 23.9457 10.4181 21.5063 12.7771C18.2667 15.9098 17.7788 16.4194 17.9447 16.476ZM18.7741 27.8275H21.8966C21.8868 22.817 21.9064 22.6755 22.0918 22.4301L22.2869 22.1659H28.6295C29.0198 22.6755 29.0296 22.817 29.0296 25.2609L29.0198 27.8275H32.1423V17.9197H18.7741V27.8275ZM23.3603 27.8275H27.5561V23.5813H23.3603V27.8275Z" fill="#2984DE"/>
</svg>
