<svg width="40" height="40" viewBox="0 0 40 40" fill="none" xmlns="http://www.w3.org/2000/svg">
<path fill-rule="evenodd" clip-rule="evenodd" d="M13.5081 0.00806452C13.7823 0.00806452 14.1452 0.0564516 14.3548 0.137097C14.5565 0.209677 14.879 0.379032 15.0806 0.516129C15.2823 0.653226 16.8387 1.79032 18.5484 3.04839C21.2339 5.03226 21.6613 5.32258 21.7339 5.20161C21.7823 5.12903 22.0323 4.73387 22.2984 4.32258C22.5645 3.91129 23.0968 3.26613 23.5081 2.85484C23.9032 2.45968 24.5403 1.92742 24.9194 1.67742C25.2984 1.42742 25.8306 1.1129 26.1129 0.975806C26.3871 0.83871 26.879 0.637097 27.1935 0.532258C27.5161 0.419355 28.129 0.258065 28.5484 0.169355C29.0968 0.0483871 29.6048 0 30.3226 0C31.0403 0 31.5484 0.0483871 32.0968 0.169355C32.5161 0.258065 33.129 0.419355 33.4516 0.532258C33.7661 0.637097 34.2984 0.854839 34.6129 1.01613C34.9355 1.17742 35.4516 1.47581 35.7661 1.68548C36.0806 1.8871 36.6774 2.39516 37.1048 2.82258C37.5323 3.24194 38.0645 3.8629 38.2823 4.19355C38.5081 4.52419 38.8226 5.06452 38.9839 5.3871C39.1452 5.70161 39.3629 6.23387 39.4758 6.54839C39.5806 6.87097 39.7258 7.41129 39.7984 7.74194C39.879 8.07258 39.9516 8.85484 39.9758 9.47581C40.0161 10.4435 39.9919 10.7258 39.8468 11.4113C39.75 11.8548 39.5806 12.4839 39.4677 12.8065C39.3629 13.121 39.1452 13.6532 38.9839 13.9677C38.8226 14.2903 38.5081 14.8306 38.2823 15.1613C38.0564 15.4919 37.5484 16.0968 37.1452 16.5C36.7419 16.9032 36.1371 17.4113 35.8064 17.6371C35.4758 17.8629 34.9516 18.1694 34.6371 18.3226C34.3226 18.4839 33.8226 18.7016 33.5081 18.8145C33.1935 18.9194 32.6371 19.0806 32.2581 19.1613C31.7581 19.2742 31.2419 19.3145 30.3226 19.3064C29.6129 19.3064 28.8629 19.2661 28.5887 19.2016C28.3226 19.1452 27.8548 19.0242 27.5403 18.9355C27.2258 18.8468 26.7097 18.6532 25.8064 18.2258V21.7742L26.3871 21.5C26.7097 21.3468 27.2258 21.1532 27.5403 21.0645C27.8548 20.9758 28.3226 20.8548 28.5887 20.7984C28.879 20.7339 29.5968 20.6935 30.3629 20.6935C31.2903 20.6935 31.8226 20.7339 32.2581 20.8387C32.5887 20.9113 33.129 21.0645 33.4436 21.1694C33.7661 21.2823 34.2984 21.5 34.6129 21.6613C34.9355 21.8226 35.4516 22.121 35.7661 22.3306C36.0806 22.5323 36.6774 23.0403 37.1048 23.4677C37.5323 23.8871 38.0645 24.5081 38.2823 24.8387C38.5081 25.1694 38.8226 25.7097 38.9839 26.0242C39.1452 26.3468 39.3629 26.879 39.4758 27.1935C39.5806 27.5161 39.7419 28.1452 39.8387 28.5887C39.9462 29.1263 40 29.6962 40 30.2984C40 30.8548 39.9435 31.5161 39.8468 31.9919C39.7661 32.4274 39.5968 33.0645 39.4839 33.4032C39.371 33.75 39.1452 34.2984 38.9839 34.6129C38.8226 34.9355 38.5081 35.4758 38.2823 35.8064C38.0564 36.1371 37.5484 36.7419 37.1452 37.1452C36.7419 37.5484 36.1371 38.0564 35.8064 38.2823C35.4758 38.5081 34.9677 38.8064 34.6774 38.9516C34.3871 39.0968 33.9194 39.3064 33.629 39.4113C33.3387 39.5242 32.7097 39.7016 32.2177 39.8064C31.5403 39.9516 31.0968 40 30.3226 40C29.6048 40 29.0968 39.9516 28.5484 39.8306C28.129 39.7419 27.5161 39.5806 27.1935 39.4677C26.879 39.3629 26.3468 39.1452 26.0242 38.9839C25.7097 38.8226 25.1694 38.5081 24.8387 38.2823C24.5081 38.0564 23.9032 37.5484 23.5 37.1452C23.0968 36.7419 22.5887 36.1371 22.3629 35.8064C22.1371 35.4758 21.8226 34.9274 21.6532 34.5968C21.4839 34.2661 21.25 33.6855 21.129 33.3064C21.0081 32.9274 20.8629 32.371 20.7984 32.0564C20.7419 31.7419 20.6855 31.0161 20.6855 30.4435C20.6855 29.871 20.7097 29.1694 20.8065 28.3871H19.1935L19.25 28.8871C19.2903 29.1694 19.3145 29.871 19.3145 30.4435C19.3145 31.0161 19.2581 31.7419 19.2016 32.0564C19.1371 32.371 18.9919 32.9274 18.871 33.3064C18.75 33.6855 18.5161 34.2661 18.3468 34.5968C18.1774 34.9274 17.8629 35.4758 17.6371 35.8064C17.4113 36.1371 16.9032 36.7419 16.5 37.1452C16.0968 37.5484 15.4919 38.0564 15.1613 38.2823C14.8306 38.5081 14.3226 38.8064 14.0323 38.9516C13.7419 39.0968 13.2742 39.3064 12.9839 39.4113C12.6935 39.5242 12.0645 39.7016 11.5726 39.8064C10.8952 39.9516 10.4516 40 9.67742 40C8.95968 40 8.45161 39.9516 7.90323 39.8306C7.48387 39.7419 6.87097 39.5806 6.54839 39.4677C6.23387 39.3629 5.70161 39.1452 5.3871 38.9839C5.06452 38.8226 4.52419 38.5081 4.19355 38.2823C3.8629 38.0564 3.25806 37.5484 2.85484 37.1452C2.45161 36.7419 1.94355 36.1371 1.71774 35.8064C1.49194 35.4758 1.17742 34.9355 1.01613 34.6129C0.854839 34.2984 0.637097 33.7661 0.524194 33.4436C0.419355 33.129 0.258065 32.5 0.16129 32.0564C0.0537634 31.5188 0 30.9462 0 30.3387C0 29.75 0.0564516 29.1452 0.169355 28.6048C0.258065 28.1532 0.427419 27.5081 0.540323 27.1774C0.653226 26.8468 0.870968 26.3306 1.29032 25.4839V12.9032H0L0.0403226 9.32258L5.92742 4.98387C9.16935 2.58871 11.9435 0.556452 12.0968 0.459677C12.25 0.362903 12.5242 0.225806 12.7016 0.153226C12.879 0.0725806 13.2419 0.016129 13.5081 0.00806452ZM27.9032 1.66129C27.5242 1.77419 26.9274 2.01613 26.5726 2.19355C26.2177 2.37097 25.7661 2.62903 25.5645 2.76613C25.3629 2.90323 24.8952 3.31452 24.5242 3.66935C24.1532 4.02419 23.6935 4.53226 23.5081 4.79839C23.3145 5.06452 23.0161 5.57258 22.8387 5.92742C22.6613 6.28226 22.4274 6.8629 22.3145 7.21774C22.2016 7.57258 22.0726 8.14516 22.0242 8.48387C21.9758 8.83064 21.9355 9.3629 21.9355 9.67742C21.9355 9.98387 21.9758 10.5242 22.0242 10.8629C22.0726 11.2097 22.2016 11.7823 22.3145 12.1371C22.4274 12.4919 22.6613 13.0726 22.8387 13.4274C23.0161 13.7823 23.2742 14.2339 23.4113 14.4355C23.5484 14.6371 23.9355 15.0806 24.2742 15.4355C24.6048 15.7823 25.0968 16.2258 25.3629 16.4274C25.629 16.629 26.1371 16.9355 26.4919 17.121C26.8468 17.2984 27.3871 17.5323 27.7016 17.6371C28.0161 17.7419 28.5968 17.879 28.9919 17.9435C29.3871 18.0081 29.9919 18.0645 30.3226 18.0645C30.6532 18.0645 31.2581 18.0081 31.6532 17.9435C32.0484 17.879 32.629 17.7419 32.9435 17.6371C33.2581 17.5323 33.7823 17.3065 34.1129 17.1371C34.4435 16.9758 34.9516 16.6613 35.2419 16.4516C35.5323 16.2339 36.0242 15.7984 36.3306 15.4677C36.6452 15.1452 37.0323 14.6935 37.1936 14.4758C37.3468 14.25 37.621 13.7984 37.7823 13.4677C37.9516 13.1371 38.1774 12.6048 38.2823 12.2984C38.3871 11.9839 38.5242 11.4032 38.5887 11.0081C38.6532 10.6129 38.7097 10.0081 38.7097 9.67742C38.7097 9.34677 38.6532 8.74193 38.5887 8.34677C38.5242 7.94355 38.3871 7.3629 38.2823 7.05645C38.1774 6.74194 37.9516 6.21774 37.7823 5.8871C37.6129 5.55645 37.3629 5.12097 37.2258 4.91935C37.0968 4.71774 36.6855 4.25 36.3306 3.87903C35.9758 3.50806 35.4677 3.04839 35.2016 2.8629C34.9355 2.66935 34.4274 2.37097 34.0726 2.19355C33.7177 2.01613 33.1371 1.78226 32.7823 1.66935C32.4274 1.55645 31.8548 1.42742 31.5161 1.37903C31.1694 1.33065 30.5887 1.29839 30.2258 1.29839C29.8548 1.30645 29.3387 1.33871 29.0726 1.37903C28.8064 1.41935 28.2823 1.54032 27.9032 1.66129ZM8.44355 4.74194C8.41129 4.77419 8.48387 5.03226 8.59677 5.32258C8.71774 5.6129 8.82258 5.85484 8.82258 5.8629C8.83064 5.87097 9.46774 6.00806 10.2419 6.16129C11.0161 6.32258 11.6694 6.47581 11.6935 6.5C11.7177 6.52419 11.6855 6.78226 11.629 7.08065C11.5645 7.37903 11.5081 7.6371 11.4919 7.66129C11.4758 7.68548 10.8548 7.58065 10.1048 7.44355C9.3629 7.29839 8.57258 7.14516 8.34677 7.09677L7.94355 7.01613L7.29839 5.56452C6.92742 5.85484 5.91129 6.60484 4.79839 7.41935C3.69355 8.23387 2.75 8.92742 2.70968 8.96774C2.66129 9 4.94355 9.03226 7.76613 9.03226H12.9032C12.9032 3.21774 12.879 1.53226 12.8468 1.53226C12.8065 1.53226 11.8226 2.24194 10.6452 3.1129C9.46774 3.97581 8.47581 4.70968 8.44355 4.74194ZM14.1935 9.03226L20.6855 8.99193C20.7823 8.1129 20.879 7.59677 20.9677 7.27419C21.0565 6.95968 21.129 6.65323 21.129 6.6129C21.129 6.56452 20.8629 6.34677 20.5484 6.1129C20.2258 5.8871 19.5645 5.39516 19.0726 5.03226L18.1855 4.37097C17.4032 5.29839 17.1855 5.58065 17.2016 5.59677C17.2097 5.6129 17.5968 5.81452 18.0645 6.04839C18.5323 6.28226 18.9274 6.48387 18.9516 6.5C18.9758 6.52419 18.8629 6.79032 18.7097 7.09677C18.5565 7.41129 18.4194 7.66129 18.4113 7.66129C18.3952 7.66129 18.0242 7.47581 17.5806 7.25806L16.7742 6.85484V7.74194H15.4839V5.56452C16.7661 4.05645 17.121 3.60484 17.0968 3.58871C17.0726 3.57258 16.4435 3.10484 15.6855 2.54839C14.9355 1.99194 14.2903 1.53226 14.2581 1.53226C14.2177 1.53226 14.1935 3.21774 14.1935 5.28226V9.03226ZM1.29032 11.6129H12.9032V10.3226H1.29032V11.6129ZM14.1935 11.6129H20.8065C20.7339 10.7661 20.6935 10.4758 20.6774 10.4194C20.6532 10.3468 19.9274 10.3226 17.4194 10.3226H14.1935V11.6129ZM2.57258 23.75C3.16935 23.1855 3.46774 22.9274 3.6129 22.7984L3.87097 22.5806V14.1935H11.6129C11.6129 20.6774 11.621 20.8871 11.7581 20.8871C11.8306 20.8871 12.1129 20.9597 12.379 21.0484C12.6452 21.1371 12.871 21.2097 12.8871 21.2097C12.8952 21.2097 12.9032 19.3387 12.9032 17.0565V12.9032H2.58065L2.57258 23.75ZM14.1935 21.7339C15.3548 22.4919 16.0081 23.0323 16.4516 23.4677C16.879 23.8871 17.4274 24.5403 17.6774 24.9194C17.9274 25.2984 18.2581 25.879 18.4113 26.2097C18.5565 26.5403 18.7097 26.879 18.7339 26.9597C18.7823 27.0806 18.9194 27.0968 20 27.0968C21.0806 27.0968 21.2097 27.0806 21.2581 26.9516C21.2903 26.879 21.4355 26.5403 21.5887 26.2097C21.7419 25.879 22.0564 25.3145 22.2903 24.9597C22.5242 24.6048 22.9758 24.0403 23.2823 23.7097C23.5968 23.379 24 22.9919 24.1774 22.8629L24.5081 22.621L24.5161 17.4194C24.1048 17.0726 23.8145 16.8145 23.6048 16.6129L23.2177 16.25L23.2258 21.9355H15.4839V15.4839H22.5806C21.9516 14.5161 21.6452 13.9435 21.4919 13.5887L21.2097 12.9435L14.1935 12.9032V21.7339ZM5.16129 21.7742C5.79032 21.4597 6.23387 21.2823 6.55645 21.1694C6.87097 21.0645 7.41129 20.9194 7.74194 20.8468C8.07258 20.7742 8.79032 20.6935 9.33871 20.6613L10.3226 20.6048V15.4839H5.16129V21.7742ZM16.7742 20.6452H21.9355V16.7742H16.7742V20.6452ZM7.25806 22.3065C6.87903 22.4194 6.28226 22.6613 5.92742 22.8387C5.57258 23.0161 5.12097 23.2742 4.91935 23.4113C4.71774 23.5484 4.25 23.9516 3.8871 24.3064C3.51613 24.6613 3.05645 25.1774 2.8629 25.4435C2.66935 25.7097 2.37097 26.2177 2.19355 26.5726C2.01613 26.9274 1.78226 27.5081 1.66935 27.8629C1.55645 28.2177 1.42742 28.7903 1.37903 29.129C1.33065 29.4758 1.29032 30.0081 1.29032 30.3226C1.29032 30.629 1.33065 31.1694 1.37903 31.5081C1.42742 31.8548 1.55645 32.4274 1.66935 32.7823C1.78226 33.1371 2.01613 33.7177 2.19355 34.0726C2.37097 34.4274 2.62903 34.879 2.76613 35.0806C2.91129 35.2823 3.29032 35.7258 3.62903 36.0726C3.95968 36.4274 4.45161 36.871 4.71774 37.0726C4.98387 37.2742 5.49194 37.5806 5.84677 37.7581C6.20161 37.9355 6.75 38.1694 7.05645 38.2823C7.37097 38.3871 7.95161 38.5242 8.34677 38.5887C8.75 38.6532 9.34677 38.7097 9.67742 38.7097C10.0081 38.7097 10.6129 38.6532 11.0081 38.5887C11.4113 38.5242 11.9919 38.3871 12.2984 38.2823C12.6129 38.1694 13.1371 37.9516 13.4677 37.7823C13.7984 37.6129 14.2581 37.3468 14.4758 37.1936C14.7016 37.0323 15.1452 36.6532 15.4677 36.3387C15.7903 36.0242 16.2339 35.5323 16.4516 35.2419C16.6613 34.9516 16.9758 34.4435 17.1371 34.1129C17.3065 33.7823 17.5323 33.25 17.6371 32.9435C17.7419 32.629 17.879 32.0484 17.9435 31.6532C18.0081 31.25 18.0645 30.6532 18.0645 30.3226C18.0645 29.9919 18.0081 29.3871 17.9435 28.9919C17.879 28.5887 17.7419 28.0081 17.6371 27.7016C17.5323 27.3871 17.2984 26.8468 17.121 26.4919C16.9355 26.1371 16.629 25.629 16.4274 25.3629C16.2339 25.0968 15.7823 24.6048 15.4355 24.2742C15.0806 23.9355 14.6371 23.5484 14.4355 23.4113C14.2339 23.2742 13.7823 23.0161 13.4274 22.8387C13.0726 22.6613 12.4919 22.4274 12.1371 22.3145C11.7823 22.2016 11.2097 22.0726 10.871 22.0242C10.5242 21.9758 9.94355 21.9355 9.58065 21.9435C9.20968 21.9516 8.69355 21.9839 8.42742 22.0242C8.16129 22.0645 7.6371 22.1855 7.25806 22.3065ZM27.9032 22.3065C27.5242 22.4194 26.9274 22.6613 26.5726 22.8387C26.2177 23.0161 25.7661 23.2742 25.5645 23.4113C25.3629 23.5484 24.8952 23.9516 24.5323 24.3064C24.1613 24.6613 23.7016 25.1774 23.5081 25.4435C23.3145 25.7097 23.0161 26.2177 22.8387 26.5726C22.6613 26.9274 22.4274 27.5081 22.3145 27.8629C22.2016 28.2177 22.0726 28.7903 22.0242 29.129C21.9758 29.4758 21.9355 30.0081 21.9355 30.3226C21.9355 30.629 21.9758 31.1694 22.0242 31.5081C22.0726 31.8548 22.2016 32.4274 22.3145 32.7823C22.4274 33.1371 22.6613 33.7177 22.8387 34.0726C23.0161 34.4274 23.2742 34.879 23.4113 35.0806C23.5564 35.2823 23.9355 35.7258 24.2742 36.0726C24.6048 36.4274 25.0968 36.871 25.3629 37.0726C25.629 37.2742 26.1371 37.5806 26.4919 37.7581C26.8468 37.9355 27.3952 38.1694 27.7016 38.2823C28.0161 38.3871 28.5968 38.5242 28.9919 38.5887C29.3952 38.6532 29.9919 38.7097 30.3226 38.7097C30.6532 38.7097 31.2581 38.6532 31.6532 38.5887C32.0564 38.5242 32.6371 38.3871 32.9435 38.2823C33.2581 38.1694 33.7823 37.9516 34.1129 37.7823C34.4435 37.6129 34.9032 37.3468 35.121 37.1936C35.3468 37.0323 35.7903 36.6532 36.1129 36.3387C36.4355 36.0242 36.879 35.5323 37.0968 35.2419C37.3064 34.9516 37.621 34.4435 37.7823 34.1129C37.9516 33.7823 38.1774 33.25 38.2823 32.9435C38.3871 32.629 38.5242 32.0484 38.5887 31.6532C38.6532 31.25 38.7097 30.6532 38.7097 30.3226C38.7097 29.9919 38.6532 29.3871 38.5887 28.9919C38.5242 28.5887 38.3871 28.0081 38.2823 27.7016C38.1774 27.3871 37.9435 26.8468 37.7661 26.4919C37.5806 26.1371 37.2742 25.629 37.0726 25.3629C36.879 25.0968 36.4274 24.6048 36.0806 24.2742C35.7258 23.9355 35.2823 23.5484 35.0806 23.4113C34.879 23.2742 34.4274 23.0161 34.0726 22.8387C33.7177 22.6613 33.1371 22.4274 32.7823 22.3145C32.4274 22.2016 31.8548 22.0726 31.5161 22.0242C31.1694 21.9758 30.5887 21.9355 30.2258 21.9435C29.8548 21.9516 29.3387 21.9839 29.0726 22.0242C28.8064 22.0645 28.2823 22.1855 27.9032 22.3065ZM27.8226 3.87097C28.0242 3.87097 28.4032 3.92742 28.6694 3.99194C28.9355 4.06452 29.3629 4.23387 29.629 4.37903C29.8871 4.51613 30.2903 4.83871 30.5242 5.08065C30.75 5.32258 31.0403 5.70968 31.1613 5.94355C31.2742 6.17742 31.4274 6.59677 31.5 6.87097C31.5968 7.25 31.621 7.56452 31.5323 8.83064L33.4113 10.7258C34.9355 12.2581 35.3145 12.6774 35.3871 12.9435C35.4355 13.121 35.4839 13.3952 35.4839 13.5484C35.4839 13.7016 35.4355 13.9758 35.379 14.1452C35.3306 14.3226 35.1371 14.629 34.9516 14.8306C34.7366 15.078 34.4946 15.2473 34.2258 15.3387C34.0081 15.4194 33.7016 15.4839 33.5484 15.4839C33.3952 15.4839 33.121 15.4355 32.9435 15.3871C32.6855 15.3065 32.2581 14.9274 28.8306 11.5323L28.1048 11.5806C27.5645 11.621 27.25 11.5968 26.879 11.5C26.5968 11.4274 26.1774 11.2742 25.9516 11.1532C25.7177 11.0403 25.3226 10.75 25.0806 10.5161C24.8387 10.2903 24.5242 9.8871 24.379 9.62903C24.2419 9.3629 24.0645 8.93548 24 8.66935C23.9274 8.40323 23.871 8.02419 23.871 7.82258C23.871 7.47581 23.9032 7.42742 25.1613 6.16935L25.9516 6.95161C26.7339 7.72581 26.7339 7.73387 26.9758 7.62903C27.1129 7.56452 27.2823 7.45161 27.3548 7.37097C27.4274 7.28226 27.5484 7.10484 27.7419 6.73387L26.1694 5.16129L26.8145 4.51613C27.4274 3.89516 27.4758 3.87097 27.8226 3.87097ZM28.5968 5.72581L29.0484 6.16935C28.9758 6.95161 28.871 7.34677 28.7581 7.55645C28.6532 7.76613 28.4758 8.04839 28.371 8.18548C28.2581 8.31452 27.9516 8.54032 27.6935 8.68548C27.3952 8.84677 27.0323 8.96774 26.7177 9.00806L26.2097 9.07258C25.3145 8.17742 25.2419 8.12903 25.2419 8.28226C25.2419 8.3871 25.3226 8.6371 25.4194 8.84677C25.5242 9.05645 25.75 9.37903 25.9274 9.55645C26.1129 9.73387 26.4355 9.95968 26.6613 10.0726C26.8871 10.1774 27.2661 10.2742 27.5403 10.2984C27.8871 10.3226 28.1694 10.2903 28.5484 10.1694L29.0726 10C33.0564 13.9839 33.2903 14.1935 33.5323 14.1935C33.7097 14.1935 33.8656 14.1263 34 13.9919C34.129 13.8548 34.1935 13.6935 34.1935 13.5242C34.1935 13.2903 33.9758 13.0403 32.0968 11.1694L30.0081 9.07258C30.2903 8.16935 30.3226 7.8871 30.2984 7.54032C30.2823 7.26613 30.1774 6.87903 30.0726 6.65323C29.9677 6.42742 29.7339 6.10484 29.5564 5.92742C29.379 5.74194 29.0887 5.53226 28.9113 5.45161C28.7339 5.3629 28.4839 5.26613 28.3629 5.23387C28.2339 5.20161 28.1371 5.19355 28.1371 5.22581C28.1371 5.25806 28.3468 5.48387 28.5968 5.72581ZM10.9274 24.5242C13.5081 24.5161 13.879 24.5323 14.2258 24.6532C14.4946 24.75 14.7366 24.9194 14.9516 25.1613C15.1371 25.3629 15.3306 25.6774 15.379 25.8468C15.4355 26.0242 15.4839 26.2984 15.4839 26.4516C15.4839 26.6048 15.4355 26.879 15.3871 27.0564C15.3226 27.25 15.129 27.5323 14.879 27.7823C14.6371 28.0323 14.3548 28.2258 14.1532 28.2823C13.9274 28.3548 12.9597 28.379 10.9677 28.379C8.91935 28.379 8.01613 28.3548 7.79032 28.2823C7.6129 28.2258 7.32258 28.0564 7.14516 27.8952C6.95968 27.7339 6.75806 27.4919 6.57258 27.0887L5.16129 27.0968V28.5484L10.2823 29.8065L10.3226 32.4194L10.5806 32.5161C10.7177 32.5726 10.9677 32.7661 11.121 32.9516C11.2823 33.129 11.4597 33.4194 11.5081 33.5968C11.5645 33.7661 11.6129 34.3226 11.6129 34.8387C11.6129 35.3468 11.5645 35.9113 11.5161 36.0887C11.4516 36.2823 11.2581 36.5645 11.0081 36.8145C10.7661 37.0645 10.4839 37.2581 10.2823 37.3145C10.1048 37.371 9.83064 37.4113 9.67742 37.4113C9.52419 37.4113 9.25 37.371 9.07258 37.3145C8.87903 37.2581 8.58871 37.0645 8.34677 36.8145C8.09677 36.5645 7.90323 36.2823 7.83871 36.0887C7.79032 35.9113 7.74194 35.3468 7.74194 34.8387C7.74194 34.3226 7.79032 33.7661 7.84677 33.5968C7.90323 33.4194 8.07258 33.129 8.23387 32.9516C8.39516 32.7661 8.6371 32.5645 9.04032 32.379L9.03226 30.8064L3.91129 29.5484L3.87097 25.8064L6.57258 25.8145L6.69355 25.5484C6.75806 25.4113 6.95968 25.1613 7.14516 25.0081C7.32258 24.8468 7.59677 24.6774 7.75 24.621C7.93548 24.5645 8.98387 24.5242 10.9274 24.5242ZM7.94355 26C7.83065 26.121 7.75 26.2984 7.75 26.4435C7.74194 26.6048 7.81452 26.7661 7.94355 26.8952L8.14516 27.0968H13.7984C14.121 26.7661 14.1935 26.5968 14.1935 26.4516C14.1935 26.2984 14.121 26.129 13.9919 26.0081L13.7903 25.8064H8.1371L7.94355 26ZM9.04032 34.8306C9.03226 35.6774 9.04032 35.7339 9.23387 35.9194C9.3629 36.0484 9.52419 36.121 9.68548 36.121C9.83871 36.121 10 36.0484 10.129 35.9194C10.3145 35.7339 10.3226 35.6694 10.3226 34.8306C10.3226 33.9919 10.3145 33.9355 10.121 33.7419C9.99193 33.621 9.83064 33.5403 9.67742 33.5403C9.52419 33.5403 9.35484 33.6129 9.23387 33.7419C9.05645 33.9274 9.04032 34 9.04032 34.8306ZM35.4839 25.1532V25.8629C35.4839 26.25 35.4435 26.9677 35.4032 27.4516C35.3548 27.9435 35.2419 28.6855 35.1613 29.1048C35.0726 29.5242 34.9113 30.2016 34.7984 30.5968C34.6774 31 34.4677 31.6532 34.3145 32.0484C34.1613 32.4516 33.9839 32.9194 33.7823 33.4194L30.9677 30.5968L29.5 32.0484L29.5887 32.3306C29.6371 32.4839 29.6774 32.7419 29.6774 32.8952C29.6774 33.0484 29.629 33.3226 29.5806 33.5C29.5081 33.7419 29.2339 34.0806 28.4758 34.8548C27.6694 35.6774 27.3871 35.9113 27.0968 36.0081C26.8952 36.0726 26.6048 36.121 26.4516 36.121C26.2984 36.121 26.0242 36.0806 25.8468 36.0242C25.6532 35.9677 25.371 35.7661 25.121 35.5242C24.871 35.2742 24.6774 34.9919 24.6129 34.7903C24.5645 34.6129 24.5161 34.3387 24.5161 34.1855C24.5161 34.0323 24.5645 33.7581 24.6129 33.5806C24.6855 33.3468 24.9516 33.0081 25.6452 32.3064C26.1532 31.7823 26.7016 31.2823 26.8548 31.2016C27.0081 31.129 27.2823 31.0403 27.4597 31.0081C27.6371 30.9758 27.9677 30.9919 28.5887 31.129L30.0403 29.6694L27.2177 26.8629L27.5403 26.7258C27.7177 26.6532 28.1935 26.4758 28.5887 26.3226C28.9919 26.1774 29.6452 25.9597 30.0403 25.8468C30.4435 25.7258 31.129 25.5645 31.5726 25.4758C32.0161 25.3871 32.6855 25.2823 33.0645 25.2419C33.4435 25.2097 34.1452 25.1694 35.4839 25.1532ZM32.1371 26.6935C31.6048 26.7742 30.8468 26.9435 30.4435 27.0564C30.0484 27.1694 29.6935 27.2903 29.6613 27.3226C29.629 27.3468 30.4355 28.2097 31.4516 29.2258L33.2984 31.0806C33.4355 30.7097 33.5645 30.25 33.6694 29.8306C33.7742 29.4113 33.9194 28.7177 33.9839 28.2984C34.0484 27.879 34.1129 27.2903 34.129 26.9919C34.1613 26.4516 34.1613 26.4435 33.9597 26.4597C33.8468 26.4677 33.6048 26.4839 33.4274 26.5C33.25 26.5161 32.6694 26.6048 32.1371 26.6935ZM25.8226 34.1694C25.8145 34.3548 25.871 34.4919 26.0081 34.629C26.1371 34.7581 26.2984 34.8306 26.4677 34.8306C26.6855 34.8306 26.8468 34.7097 27.5565 34.0081C28.2661 33.2984 28.3871 33.1452 28.3871 32.9194C28.3871 32.7419 28.3226 32.5887 28.1855 32.4516C28.0564 32.3226 27.8952 32.25 27.7258 32.25C27.5081 32.25 27.3548 32.371 26.6532 33.0806C25.9919 33.7581 25.8387 33.9597 25.8226 34.1694Z" fill="#2984DE"/>
</svg>
