<svg width="40" height="39" viewBox="0 0 40 39" fill="none" xmlns="http://www.w3.org/2000/svg">
<path fill-rule="evenodd" clip-rule="evenodd" d="M4.72628 0H29.0217L32.4433 3.41572C35.0526 6.0126 35.8806 6.88602 35.9431 7.09658C35.99 7.26035 36.0134 8.03239 35.9978 9.05399C35.9744 10.6215 35.9588 10.7618 35.8181 10.91C35.714 11.0244 35.5708 11.079 35.3885 11.0738C35.2401 11.0738 35.0526 11.0114 34.9744 10.9334C34.8495 10.8164 34.8338 10.6371 34.8416 7.79844H31.9121C29.467 7.79844 28.9436 7.78284 28.7483 7.68146C28.6233 7.61908 28.4436 7.44751 28.3577 7.31494C28.2092 7.07319 28.2014 6.91722 28.2014 1.16977L5.195 1.20876V28.0354L9.81972 28.0588C12.3664 28.0666 14.4835 28.051 14.5226 28.0198C14.5694 27.9808 13.7882 27.4817 12.7258 26.8656C11.6868 26.2651 10.8118 25.7115 10.7728 25.6335C10.7337 25.5633 10.7025 22.9352 10.7025 14.1152L10.8743 13.928C10.9759 13.8188 13.2258 12.4853 15.874 10.9646C19.2879 8.9994 20.7722 8.18836 20.9362 8.18836C21.0925 8.18836 21.6393 8.46131 22.5611 8.9916C23.3189 9.43611 24.7876 10.2861 25.8187 10.8788C26.8499 11.4715 28.0999 12.189 28.592 12.4775C29.0842 12.766 29.8185 13.1872 30.2247 13.4211C30.6231 13.6551 30.9825 13.9046 31.0216 13.9748C31.0606 14.0528 31.0919 15.3161 31.0919 16.7822C31.0919 19.2076 31.0762 19.4727 30.9513 19.5975C30.8731 19.6755 30.7013 19.7379 30.545 19.7379C30.3653 19.7379 30.2169 19.6755 30.1154 19.5663C29.9669 19.4103 29.9591 19.2777 29.9435 17.3827C29.9279 16.2753 29.9044 15.3629 29.881 15.3629C29.8576 15.3629 28.0061 16.4235 25.7563 17.7103C23.5142 19.0048 21.6315 20.0966 21.5768 20.1512C21.4987 20.2214 21.4753 21.0402 21.4831 28.0744H24.686L29.9044 25.072L29.9357 23.3875C29.9591 21.82 29.9747 21.6797 30.1154 21.5315C30.2195 21.4171 30.3627 21.3625 30.545 21.3677C30.6935 21.3677 30.8809 21.4301 30.9591 21.5081C31.0841 21.6251 31.0997 21.82 31.0997 23.6293C31.0997 25.5945 31.0919 25.6179 30.92 25.7816C30.8184 25.8674 29.9591 26.3899 29.0061 26.928C28.0452 27.4739 27.264 27.9496 27.264 27.9964C27.264 28.051 28.5608 28.0666 34.8026 28.0354L34.826 20.5099C34.8416 13.5147 34.8573 12.9766 34.9823 12.844C35.0604 12.766 35.2322 12.7037 35.3885 12.7037C35.5682 12.7037 35.7166 12.766 35.8181 12.8752C35.9744 13.039 35.9744 13.1638 36.0134 28.0744H37.6383C38.7633 28.0744 39.3101 28.1056 39.4507 28.1758C39.5523 28.2226 39.7242 28.3941 39.8179 28.5423C40.0054 28.8152 40.0054 28.8152 39.9976 31.5603C39.9976 33.6737 39.9741 34.3755 39.896 34.5627C39.8335 34.7031 39.6851 34.8902 39.5601 34.976C39.357 35.1164 39.1851 35.132 36.0134 35.171V36.5513C36.0134 37.3155 35.9744 38.072 35.9353 38.228C35.8885 38.4229 35.7556 38.6101 35.2713 38.9922L14.5694 39L14.3585 38.7972C14.2335 38.6881 14.1398 38.5243 14.1398 38.4229C14.132 38.3293 14.2023 38.1578 14.4522 37.8224L34.8026 37.7834L34.8416 35.171H5.15594L5.195 37.7834L12.2649 37.8224L12.4211 38.033C12.5149 38.1578 12.5852 38.3293 12.5774 38.4229C12.5774 38.5243 12.4836 38.6881 12.1477 39L4.72628 38.9922L4.43723 38.7582C4.24193 38.6101 4.10913 38.4229 4.06225 38.228C4.02319 38.072 3.98413 37.3155 3.98413 35.171L2.32017 35.1476C0.812451 35.132 0.640586 35.1164 0.437474 34.976C0.312481 34.8902 0.164053 34.7265 0.109368 34.6017C0.0234361 34.4379 0 33.8062 0 31.5993C0 28.9556 0.00781203 28.7996 0.156241 28.5579C0.242173 28.4253 0.421849 28.2537 0.546842 28.1914C0.734331 28.0978 1.11712 28.0744 3.98413 28.0744V14.5597C3.98413 5.85663 4.01538 0.95141 4.06225 0.756449C4.10913 0.569286 4.24193 0.382124 4.43723 0.233953L4.72628 0ZM29.3654 6.62867C32.8808 6.62867 33.9042 6.60528 33.9042 6.57409C33.9042 6.53509 32.8808 5.4979 31.6387 4.25015L29.3654 1.9886V6.62867ZM13.6867 13.6473C13.671 13.7019 14.7804 13.7253 16.9833 13.7253H20.3035C20.3035 10.6449 20.2956 9.75585 20.2878 9.75585C20.28 9.76365 18.7879 10.6215 16.9833 11.6665C15.1788 12.7115 13.6945 13.6005 13.6867 13.6473ZM21.5143 13.6863C26.5843 13.7175 28.0842 13.7019 28.1233 13.6707C28.1624 13.6317 26.7171 12.7582 24.9126 11.7211C23.108 10.6761 21.6003 9.82603 21.5534 9.82603C21.5065 9.82603 21.4831 10.4889 21.4987 11.76L21.5143 13.6863ZM16.788 16.7666C18.4442 17.7181 19.905 18.5603 20.0457 18.6383L20.3035 18.7942V14.895C14.8819 14.8872 13.6554 14.9184 13.7023 14.9652C13.7414 15.0042 15.1319 15.8152 16.788 16.7666ZM21.4753 16.7822C21.4674 17.8194 21.4909 18.7007 21.5143 18.7319C21.5299 18.763 23.022 17.9364 24.8266 16.8992C26.6234 15.862 28.1233 14.9808 28.1545 14.9496C28.1936 14.9184 26.7015 14.895 24.8422 14.895H21.4753V16.7822ZM11.9055 25.0408L17.1396 28.0588L20.3035 28.0666L20.3113 20.1512C13.9288 16.4625 12.0305 15.3863 11.9758 15.3707C11.8977 15.3473 11.8821 16.3377 11.8899 20.1902L11.9055 25.0408ZM1.16399 34.0012H38.818V29.2442L37.529 29.2364C37.4352 30.2034 37.3884 30.3281 37.2243 30.4685C37.1149 30.5621 36.9509 30.6479 36.865 30.6479C36.779 30.6479 36.6228 30.5621 36.5134 30.4685C36.3415 30.3281 36.3025 30.2034 36.2556 29.7666L36.2009 29.2364H34.7166C34.6229 30.2034 34.576 30.3281 34.412 30.4685C34.3026 30.5621 34.1386 30.6479 34.0526 30.6479C33.9667 30.6479 33.8105 30.5621 33.7011 30.4685C33.5292 30.3281 33.4902 30.2034 33.4433 29.7666L33.3886 29.2364L31.8653 29.2442C31.8262 31.1002 31.8262 31.1314 31.6153 31.3107C31.4981 31.4199 31.3262 31.5057 31.2403 31.5057C31.1544 31.5057 30.9903 31.4199 30.8731 31.3107C30.6622 31.1314 30.6544 31.1002 30.6388 30.18L30.6153 29.2442L29.092 29.2364C28.9982 30.2034 28.9514 30.3281 28.7873 30.4685C28.6779 30.5621 28.5139 30.6479 28.428 30.6479C28.342 30.6479 28.1858 30.5621 28.0764 30.4685C27.9046 30.3281 27.8655 30.2034 27.8186 29.7666L27.7639 29.2364H26.2797C26.1859 30.2034 26.139 30.3281 25.975 30.4685C25.8656 30.5621 25.7016 30.6479 25.6156 30.6479C25.5297 30.6479 25.3735 30.5621 25.2641 30.4685C25.0922 30.3281 25.0532 30.2034 25.0063 29.7666L24.9516 29.2364L23.4283 29.2442C23.3892 31.1002 23.3892 31.1314 23.1783 31.3107C23.0611 31.4199 22.8892 31.5057 22.8033 31.5057C22.7174 31.5057 22.5533 31.4199 22.4361 31.3107C22.2252 31.1314 22.2174 31.1002 22.2018 30.18L22.1783 29.2442L20.655 29.2364C20.5613 30.2034 20.5144 30.3281 20.3503 30.4685C20.241 30.5621 20.0769 30.6479 19.991 30.6479C19.905 30.6479 19.7488 30.5621 19.6394 30.4685C19.4676 30.3281 19.4285 30.2034 19.3816 29.7666L19.327 29.2364H17.8427C17.7489 30.2034 17.7021 30.3281 17.538 30.4685C17.4286 30.5621 17.2646 30.6479 17.1786 30.6479C17.0927 30.6479 16.9365 30.5621 16.8271 30.4685C16.6552 30.3281 16.6162 30.2034 16.5693 29.7666L16.5146 29.2364L14.9913 29.2442C14.9522 31.1002 14.9522 31.1314 14.7413 31.3107C14.6241 31.4199 14.4522 31.5057 14.3663 31.5057C14.2804 31.5057 14.1163 31.4199 13.9992 31.3107C13.7882 31.1314 13.7804 31.1002 13.7648 30.18L13.7414 29.2442L12.218 29.2364C12.1243 30.2034 12.0774 30.3281 11.9133 30.4685C11.804 30.5621 11.6399 30.6479 11.554 30.6479C11.4681 30.6479 11.3118 30.5621 11.2024 30.4685C11.0306 30.3281 10.9915 30.2034 10.9446 29.7666L10.89 29.2364H9.40568C9.31194 30.2034 9.26506 30.3281 9.10101 30.4685C8.99164 30.5621 8.82759 30.6479 8.74166 30.6479C8.65573 30.6479 8.49949 30.5621 8.39012 30.4685C8.21825 30.3281 8.17919 30.2034 8.13232 29.7666L8.07764 29.2364L6.55429 29.2442C6.51523 31.1002 6.51523 31.1314 6.30431 31.3107C6.18713 31.4199 6.01526 31.5057 5.92933 31.5057C5.8434 31.5057 5.67934 31.4199 5.56216 31.3107C5.35124 31.1314 5.34343 31.1002 5.3278 30.18L5.30437 29.2442L3.78102 29.2364C3.68728 30.2034 3.6404 30.3281 3.47635 30.4685C3.36698 30.5621 3.20293 30.6479 3.117 30.6479C3.03107 30.6479 2.87483 30.5621 2.76546 30.4685C2.59359 30.3281 2.55453 30.2034 2.50766 29.7666L2.45298 29.2364L1.16399 29.2442V34.0012ZM7.25737 3.26755L15.1631 3.31434L15.3194 3.5093C15.3975 3.61068 15.4678 3.77445 15.4678 3.86023C15.4678 3.94601 15.3975 4.10978 15.1475 4.44511L7.21831 4.43731L7.04645 4.26575C6.93708 4.16437 6.86677 4.0006 6.87458 3.87582C6.87458 3.75105 6.96052 3.57169 7.06988 3.46251L7.25737 3.26755ZM7.25737 5.45111L15.1631 5.4901L15.3116 5.68506C15.3975 5.79424 15.4678 5.95021 15.4678 6.03599C15.4678 6.12178 15.3975 6.29334 15.1475 6.62088H7.21831L7.03864 6.44931C6.93708 6.34013 6.86677 6.18416 6.86677 6.05159C6.87458 5.93461 6.96052 5.74745 7.06207 5.64607L7.25737 5.45111ZM7.25737 7.63467L15.1631 7.67367L15.3194 7.86863C15.4053 7.9778 15.4678 8.14157 15.4678 8.24295C15.4678 8.33653 15.3819 8.5003 15.085 8.80444H7.22612L7.04645 8.62507C6.93708 8.52369 6.86677 8.36773 6.87458 8.23515C6.87458 8.11818 6.96833 7.93101 7.06988 7.82184L7.25737 7.63467ZM7.24956 9.82603H10.6947L10.89 10.021C10.9993 10.1302 11.0853 10.3017 11.0853 10.4109C11.0853 10.5201 10.9993 10.6917 10.7025 10.9958H8.96039C7.26518 10.9958 7.21831 10.988 7.04645 10.8164C6.93708 10.7151 6.86677 10.5591 6.86677 10.4265C6.87458 10.3095 6.96052 10.1224 7.06207 10.021L7.24956 9.82603Z" fill="#2984DE"/>
</svg>
