<svg width="39" height="40" viewBox="0 0 39 40" fill="none" xmlns="http://www.w3.org/2000/svg">
<path fill-rule="evenodd" clip-rule="evenodd" d="M2.61805 0.0104083L9.2258 0.00259481C15.6762 -0.00521871 15.8414 -0.0052187 16.2662 0.151052C16.5022 0.237 16.8404 0.393271 17.0135 0.494846C17.1866 0.596422 17.4934 0.854268 17.69 1.05742C17.8867 1.26838 18.1384 1.64343 18.2564 1.89347C18.3744 2.13569 18.5002 2.59668 18.5474 2.90922C18.5868 3.21395 18.6261 4.25315 18.6261 5.2064C18.6261 6.56595 18.6497 6.941 18.7284 6.91756C18.7756 6.90193 19.5307 6.48782 20.396 5.99556C21.2613 5.50331 22.1109 5.05794 22.284 4.99543C22.457 4.94074 22.7953 4.89386 23.0313 4.88604C23.2673 4.88604 23.6606 4.94855 23.8966 5.0345C24.1955 5.13608 24.4472 5.30016 24.7304 5.57363C25.0451 5.89399 25.6586 6.90193 30.3785 15.1139L31.5977 16.1375C32.2743 16.7001 33.525 17.7471 34.3824 18.4659C35.3185 19.2551 36.1288 19.9974 36.4277 20.3568C36.6952 20.685 37.0727 21.2007 37.2615 21.5132C37.4503 21.8179 37.7256 22.3493 37.8751 22.6931C38.0246 23.0368 38.237 23.6541 38.3471 24.0604C38.4966 24.6386 38.5516 25.0606 38.5831 25.9357C38.6145 26.8811 38.5673 27.5765 37.9852 33.2413L38.4887 34.1399C38.7719 34.6321 39 35.1166 39 35.2181C39 35.3119 38.9135 35.476 38.8033 35.5854C38.7011 35.6947 38.5438 35.7807 38.4494 35.7807C38.3628 35.7807 38.2212 35.7494 38.1347 35.7026C38.0482 35.6557 37.702 35.14 36.7659 33.4757L37.0963 30.194C37.2851 28.3891 37.4346 26.592 37.4346 26.2091C37.4267 25.8263 37.3795 25.2246 37.3087 24.8808C37.2458 24.537 37.1042 23.9901 36.9941 23.6697C36.8839 23.3494 36.6558 22.8415 36.4985 22.5368C36.3333 22.2321 36.0422 21.7789 35.8535 21.521C35.6568 21.2632 35.3028 20.8569 35.0668 20.6225C34.823 20.3881 34.1071 19.763 33.4699 19.2395C32.8328 18.7082 32.2979 18.294 32.2743 18.3175C32.2507 18.3409 32.4394 18.716 32.699 19.1613C32.9508 19.5989 33.2025 20.099 33.2575 20.2709C33.3205 20.4584 33.3441 20.8022 33.3205 21.1304C33.2969 21.5445 33.2261 21.7789 33.053 22.0992C32.9272 22.3258 32.699 22.6305 32.5496 22.7634C32.4001 22.8962 31.7551 23.2947 31.1179 23.6541C30.4729 24.0057 29.9537 24.3417 29.9537 24.3964C29.9537 24.4433 30.0245 24.5996 30.111 24.7246C30.1975 24.8496 30.2683 25.0371 30.2683 25.1387C30.2683 25.2324 30.2369 25.3809 30.1897 25.4669C30.1425 25.5528 30.0166 25.6622 29.8986 25.7013C29.7492 25.7638 29.6154 25.7638 29.4817 25.7091C29.3401 25.6466 29.0333 25.1934 28.404 24.0995C27.9163 23.2634 27.5151 22.5055 27.5151 22.4196C27.5151 22.3336 27.5466 22.193 27.5938 22.107C27.641 22.0211 27.7668 21.9117 27.8927 21.8726C28.0343 21.8101 28.168 21.8101 28.3017 21.8648C28.4276 21.9195 28.6479 22.193 28.8917 22.6149C29.112 22.9822 29.3086 23.2791 29.348 23.2791C29.3794 23.2791 29.9379 22.9743 30.5987 22.5993C31.346 22.1617 31.8495 21.8258 31.9517 21.6773C32.0461 21.5288 32.1248 21.2788 32.172 20.5834L28.1208 13.5512C25.5485 9.0819 23.991 6.45656 23.8494 6.33936C23.7235 6.23778 23.4875 6.12839 23.3302 6.08151C23.1571 6.04244 22.9211 6.04245 22.7795 6.0737C22.638 6.11277 20.3646 7.36293 17.7215 8.86313C15.0784 10.3633 12.8365 11.6604 12.7342 11.7463C12.6319 11.8401 12.4982 12.0276 12.4431 12.1682C12.3802 12.3011 12.333 12.5433 12.333 12.6918C12.333 12.8402 12.4117 13.1137 12.4982 13.3012C12.5926 13.4809 13.0882 14.356 13.5995 15.2546C14.1187 16.1453 14.5356 16.9345 14.5356 17.0126C14.5435 17.0829 14.4727 17.2392 14.3783 17.3642C14.2603 17.5205 14.158 17.5752 13.9456 17.5752C13.7411 17.5752 13.6231 17.5205 13.4894 17.3564C13.395 17.2314 13.0174 16.5985 11.979 14.7701L7.58959 14.7623C3.87667 14.7623 3.1687 14.7467 2.93271 14.6451C2.78324 14.5826 2.58659 14.4107 2.50006 14.2779C2.35846 14.0357 2.34273 13.8794 2.34273 12.1057C2.33486 10.3243 2.34273 10.1758 2.49219 9.99609C2.60232 9.84763 2.72031 9.80075 2.93271 9.80075C3.1451 9.80075 3.26309 9.84763 3.37322 9.99609C3.51482 10.1758 3.53055 10.3243 3.52268 13.5903H11.3104L11.2475 13.4184C11.216 13.3168 11.1924 12.9574 11.1924 12.6136C11.2003 12.0979 11.2317 11.926 11.4048 11.5979C11.5149 11.3869 11.7509 11.0822 11.9161 10.9259C12.0813 10.7696 12.7263 10.3477 13.3556 9.99609C13.985 9.64448 14.63 9.26943 15.0862 8.98033V5.62052H3.52268V6.81598C3.53055 7.89425 3.51482 8.02708 3.36536 8.22242C3.24736 8.37869 3.13723 8.43338 2.94844 8.43338C2.79898 8.43338 2.62592 8.36306 2.51579 8.25367C2.34273 8.08959 2.33486 8.04271 2.34273 6.62065C2.34273 5.47206 2.36633 5.09701 2.46072 4.9173C2.52365 4.79228 2.68098 4.6282 2.81471 4.56569C3.01924 4.46411 3.90813 4.44849 15.6369 4.44849L15.8807 4.66727C16.0223 4.79228 16.1482 5.00325 16.1875 5.19077C16.2269 5.36267 16.2662 6.14402 16.2662 8.35525L17.4068 7.68328V5.26891C17.4068 2.85453 17.4068 2.84672 17.2102 2.42479C17.0922 2.16694 16.8719 1.87784 16.6595 1.69813C16.4629 1.53404 16.1482 1.34652 15.9515 1.28401C15.6526 1.18244 14.6536 1.16681 2.69671 1.20588L2.26406 1.4481C1.97563 1.60958 1.74488 1.81794 1.57182 2.07318C1.43023 2.28414 1.28077 2.58106 1.24144 2.72951C1.19424 2.8936 1.17064 8.06614 1.2021 28.7876L1.4381 29.2095C1.56396 29.4361 1.79995 29.7252 1.94941 29.8502C2.09887 29.9674 2.38206 30.1237 2.57872 30.194C2.89337 30.3034 3.68001 30.3112 9.42246 30.2956C15.9043 30.2722 15.9122 30.2722 16.2269 30.1003C16.3999 30.0065 16.6516 29.819 16.7932 29.6705C16.9348 29.5299 17.1236 29.2408 17.2259 29.022C17.3911 28.6548 17.4068 28.5141 17.4698 24.3339L16.3055 22.3024L16.2505 23.0837C16.2111 23.5604 16.1403 23.9354 16.0695 24.0448C16.0066 24.1386 15.8335 24.287 15.692 24.373C15.4717 24.5058 15.2986 24.5292 14.3783 24.5292C13.4579 24.5292 13.2848 24.5058 13.0567 24.373C12.923 24.287 12.7421 24.1229 12.6634 24.0057C12.5533 23.8338 12.5297 23.615 12.5297 22.8493C12.5297 22.0055 12.5454 21.8883 12.7027 21.6617C12.805 21.521 13.0017 21.3491 13.1354 21.2788C13.3478 21.1772 13.6074 21.1616 14.5199 21.1772C15.4874 21.2085 15.629 21.1929 15.5976 21.0913C15.5661 21.0288 15.338 20.6147 15.0784 20.1771C14.7952 19.677 14.6143 19.2785 14.6143 19.1379C14.6143 18.9738 14.6772 18.8566 14.8267 18.7472C14.9525 18.6535 15.1177 18.5831 15.2042 18.5831C15.2908 18.5831 15.4402 18.6457 15.5268 18.7238C15.6212 18.8019 16.7146 20.6381 17.9653 22.8103C19.2082 24.9824 20.3095 26.8733 20.4118 27.0139C20.5062 27.1468 20.7107 27.3343 20.8444 27.4202C21.0017 27.514 21.2456 27.5765 21.458 27.5765C21.7569 27.5765 22.0008 27.4749 22.9762 26.928C23.6134 26.5764 24.2034 26.2326 24.282 26.1701C24.4236 26.0607 24.4315 25.9825 24.3214 23.8651L23.3695 22.2242C22.8503 21.3179 22.3233 20.3881 22.2053 20.1537C22.0873 19.9193 21.9693 19.552 21.9536 19.3332C21.9221 19.0988 21.9614 18.7707 22.0322 18.5128C22.0952 18.2784 22.2761 17.9268 22.4177 17.7315C22.5908 17.5049 22.8582 17.2939 23.1729 17.1298C23.5898 16.9032 23.7392 16.872 24.227 16.872C24.6675 16.872 24.8956 16.9189 25.1945 17.0595C25.4069 17.1611 25.7137 17.3799 25.871 17.5439C26.0284 17.7158 26.4453 18.3487 26.7993 18.966C27.1454 19.5755 27.4364 20.1537 27.4364 20.2552C27.4364 20.349 27.3656 20.5053 27.2791 20.6068C27.1768 20.7162 27.0353 20.7787 26.8622 20.7787C26.7285 20.7787 26.5711 20.7475 26.5161 20.7162C26.461 20.685 26.1228 20.1537 25.7609 19.5286C25.2968 18.7238 25.0215 18.3409 24.8327 18.2159C24.6596 18.0987 24.4472 18.044 24.227 18.044C24.046 18.044 23.7943 18.1065 23.6606 18.1847C23.5347 18.255 23.3538 18.4581 23.2594 18.63C23.1414 18.841 23.1021 19.0285 23.1257 19.216C23.1493 19.3723 23.5898 20.2396 24.1483 21.2085C24.6911 22.1539 25.2103 23.0759 25.3047 23.2634C25.4148 23.4744 25.4856 23.8026 25.5092 24.2011C25.5328 24.5292 25.6036 25.8263 25.6665 27.0686C25.7452 28.6235 25.8317 29.569 25.9418 30.0768C26.0205 30.4831 26.1857 31.1004 26.2958 31.4442C26.4059 31.788 26.7049 32.4912 26.9566 33.0069C27.2162 33.5226 27.641 34.2649 27.9163 34.6477C28.1995 35.0462 28.8681 35.7963 29.4502 36.3667C30.3549 37.2575 30.5437 37.4919 30.9999 38.281C31.3224 38.8436 31.527 39.2655 31.527 39.414C31.527 39.5546 31.4483 39.7187 31.346 39.8281C31.2516 39.9219 31.0864 40 30.9763 40C30.8662 40 30.7088 39.9375 30.6223 39.8594C30.5358 39.7812 30.2526 39.3515 30.0009 38.9061C29.5997 38.2029 29.4109 37.9685 28.6715 37.2653C28.1916 36.8121 27.5308 36.0776 27.1926 35.6244C26.8465 35.1712 26.3981 34.4837 26.1778 34.1008C25.9654 33.7179 25.6586 33.0772 25.2181 31.9911L24.8484 32.0927C24.6517 32.1474 24.3607 32.1865 24.2112 32.1865C24.0618 32.1865 23.755 32.124 23.5426 32.0536C23.3223 31.9755 23.0077 31.7802 22.4885 31.2879L22.1896 31.4364C22.0008 31.5301 21.7176 31.5927 21.4187 31.5927C21.1512 31.6005 20.7894 31.5458 20.5927 31.4676C20.3882 31.3895 20.0971 31.1863 19.9005 30.9832C19.7195 30.78 19.515 30.4988 19.4521 30.3503C19.3891 30.2018 19.3341 29.8893 19.3262 29.6705C19.3183 29.4439 19.3813 28.9517 19.4599 28.5766C19.6015 27.9516 19.6015 27.889 19.4835 27.7562C19.4127 27.6781 19.2161 27.3734 19.0509 27.0764C18.8857 26.7795 18.7205 26.5295 18.6812 26.5139C18.6497 26.4982 18.6261 26.8264 18.6261 27.2483C18.6261 27.6625 18.5868 28.2719 18.5396 28.5923C18.5002 28.9126 18.3744 29.3658 18.2721 29.5924C18.162 29.8112 17.8867 30.194 17.6585 30.4363C17.4383 30.6707 17.1079 30.9519 16.9348 31.0535C16.7618 31.1551 16.3999 31.3036 15.6369 31.5223V34.9603C15.6369 38.2576 15.629 38.406 15.4796 38.6561C15.3773 38.8123 15.22 38.9374 15.0469 38.9842C14.8031 39.0546 14.6772 39.0233 13.0803 38.3592L12.2543 38.7498C11.7981 38.9608 11.3655 39.1405 11.2868 39.1405C11.216 39.1405 10.7361 38.9608 9.30446 38.3513L8.39983 38.742C7.90425 38.9608 7.43227 39.1405 7.3536 39.1405C7.28281 39.1405 6.80296 38.9608 5.37128 38.3513L4.66331 38.6873C4.20706 38.8983 3.85307 39.0155 3.68001 39.0077C3.47549 38.9999 3.34962 38.9295 2.97204 38.5154V31.4833L2.57872 31.4051C2.35846 31.3582 2.02021 31.241 1.80782 31.1395C1.60329 31.0379 1.2965 30.8269 1.12344 30.6863C0.950381 30.5378 0.690791 30.2409 0.549196 30.03C0.407602 29.819 0.218809 29.4205 0.132279 29.1392C-0.017182 28.6391 -0.017182 28.3657 0.0221499 2.53417L0.203076 2.10443C0.297473 1.87003 0.501998 1.5106 0.651459 1.30745C0.80092 1.09649 1.08411 0.815201 1.28077 0.682371C1.47743 0.541728 1.85501 0.330763 2.12247 0.21356L2.61805 0.0104083ZM13.6703 23.365H15.0862V22.3493H13.6703V23.365ZM23.7864 27.9516C23.7707 28.0297 23.6606 28.561 23.5505 29.147C23.3853 29.9831 23.3538 30.2487 23.4246 30.4519C23.4718 30.6003 23.6134 30.7722 23.7628 30.866C23.9044 30.9519 24.1247 31.0223 24.2506 31.0223C24.3843 31.0223 24.5731 30.9676 24.6753 30.8894L24.8641 30.7488C24.6596 29.6549 24.5809 28.9282 24.5573 28.4204C24.5337 27.7953 24.4866 27.5062 24.4236 27.5062C24.3764 27.5062 24.2191 27.5765 24.0775 27.6625C23.9359 27.7484 23.8022 27.8812 23.7864 27.9516ZM21.2613 28.7251L20.632 28.686C20.5455 29.1314 20.514 29.4049 20.514 29.5768C20.514 29.7721 20.5691 29.9674 20.6714 30.1003C20.7579 30.2175 20.9624 30.3581 21.1276 30.405C21.3715 30.4753 21.4737 30.4675 21.694 30.3659C21.8513 30.2956 22.0244 30.1628 22.0794 30.0612C22.1424 29.9674 22.2525 29.6002 22.339 29.2408C22.4492 28.7563 22.457 28.6001 22.3862 28.6001C22.3312 28.6079 22.1974 28.647 22.0873 28.686C21.9772 28.7329 21.6232 28.7485 21.2613 28.7251ZM4.15199 34.5383C4.15199 36.2104 4.17559 37.5856 4.19132 37.5856C4.21492 37.5856 4.48238 37.4762 4.7813 37.3512C5.13529 37.2028 5.40274 37.1324 5.51287 37.1637C5.60727 37.1871 6.06352 37.3668 6.5119 37.5622L7.33787 37.9216C8.62009 37.3668 9.0842 37.1793 9.18647 37.1559C9.32806 37.1246 9.65845 37.234 10.2878 37.5075C10.7912 37.7185 11.2239 37.8982 11.2553 37.8982C11.2868 37.8982 11.7116 37.7185 12.1993 37.4997L13.0803 37.0934C13.6939 37.3356 14.0007 37.4606 14.1659 37.5309L14.4569 37.6638V31.4911H4.15199V34.5383ZM21.1433 9.73043C21.3007 9.74605 21.6153 9.78512 21.8513 9.81637C22.1581 9.85544 22.339 9.92576 22.4649 10.0508C22.5593 10.1524 22.6458 10.3321 22.6458 10.4493C22.6458 10.5821 22.5672 10.7462 22.4413 10.8634C22.2446 11.0509 22.2289 11.0587 21.6311 10.9728C21.3007 10.9181 20.8366 10.9103 20.5927 10.9415C20.3567 10.9728 19.9477 11.09 19.6881 11.2072C19.4285 11.3244 19.0666 11.551 18.87 11.7072C18.6812 11.8635 18.4294 12.137 18.3115 12.3089C18.1935 12.4808 18.0204 12.809 17.926 13.0512C17.8316 13.2856 17.69 13.5434 17.6192 13.6216C17.5484 13.6997 17.3832 13.7544 17.2338 13.7544C17.045 13.7544 16.9348 13.6919 16.8168 13.5356C16.691 13.3793 16.6595 13.2543 16.691 13.0512C16.7146 12.8949 16.8562 12.5277 17.0056 12.2308C17.1551 11.926 17.4619 11.4728 17.6979 11.215C17.926 10.965 18.3272 10.6212 18.5868 10.4571C18.8464 10.2852 19.2476 10.082 19.4757 9.99609C19.7038 9.91795 20.1129 9.81637 20.3803 9.77731C20.6478 9.73824 20.9939 9.7148 21.1433 9.73043ZM21.2613 12.0901C21.4344 12.1136 21.6704 12.1917 21.7727 12.262C21.9064 12.3558 21.9772 12.4886 21.9929 12.6683C22.0086 12.8558 21.9693 12.9809 21.8356 13.1059C21.694 13.2543 21.576 13.2856 21.2063 13.2856C20.9546 13.2856 20.6714 13.3246 20.577 13.3715C20.4826 13.4262 20.3488 13.5356 20.2859 13.6294C20.2151 13.7153 20.1129 13.895 20.0499 14.0279C19.9791 14.1529 19.8297 14.2935 19.7117 14.3404C19.5622 14.3951 19.4442 14.3873 19.3026 14.317C19.1925 14.2623 19.0588 14.1294 19.0037 14.02C18.925 13.8638 18.925 13.7622 18.9958 13.5356C19.0509 13.3715 19.2004 13.0981 19.3341 12.9183C19.4599 12.7386 19.7195 12.5042 19.9083 12.3948C20.0893 12.2854 20.4039 12.1604 20.5927 12.1214C20.7894 12.0823 21.0883 12.0667 21.2613 12.0901ZM21.3793 14.2232C21.4895 14.2232 21.6389 14.2623 21.7019 14.317C21.7727 14.3717 21.9064 14.5357 22.0008 14.692C22.0873 14.8405 22.166 15.0436 22.166 15.1374C22.166 15.239 22.0794 15.403 21.9772 15.5124C21.8671 15.6218 21.694 15.7078 21.5603 15.7078C21.4344 15.7078 21.2692 15.6374 21.1669 15.5281C21.0725 15.4343 20.9467 15.2233 20.8759 15.0592C20.7815 14.8327 20.7736 14.7311 20.8444 14.5826C20.8916 14.4732 20.986 14.356 21.0568 14.3091C21.1276 14.2623 21.2771 14.2232 21.3793 14.2232ZM4.28572 16.7392C5.35555 16.7626 5.41061 16.7704 5.61514 16.9579C5.72527 17.0595 5.87473 17.247 5.92979 17.3642C6.00846 17.5127 6.03992 17.8487 6.03992 18.4034C6.03992 19.0207 6.00845 19.2942 5.90619 19.5051C5.82753 19.6614 5.66233 19.8489 5.52861 19.9349C5.33195 20.0521 5.12742 20.0755 4.19132 20.0755C3.26309 20.0755 3.05857 20.0521 2.85404 19.9349C2.72818 19.8489 2.56299 19.6614 2.48432 19.5051C2.38206 19.2864 2.34273 19.0207 2.34273 18.38C2.34273 17.708 2.37419 17.4893 2.49219 17.2705C2.57872 17.1142 2.75965 16.9345 2.90911 16.8564C3.12936 16.7392 3.33389 16.7157 4.28572 16.7392ZM3.52268 18.9113H4.85997V17.8956H3.52268V18.9113ZM9.26513 16.7157C10.2484 16.7157 10.3507 16.7313 10.6024 16.8954C10.7597 16.997 10.9407 17.2001 11.0193 17.3486C11.1216 17.5518 11.1531 17.8096 11.1531 18.38C11.1531 18.8488 11.1137 19.2395 11.0508 19.3958C10.9879 19.5364 10.8463 19.7395 10.7283 19.8489C10.5237 20.0365 10.4608 20.0443 9.39886 20.0677C8.49423 20.0912 8.23464 20.0755 8.03011 19.9739C7.88852 19.9036 7.69972 19.7317 7.61319 19.5911C7.48733 19.3801 7.45587 19.2004 7.45587 18.4191C7.45587 17.7627 7.4952 17.4346 7.57386 17.2705C7.64466 17.1376 7.80985 16.9657 7.95145 16.8798C8.17171 16.7392 8.34477 16.7235 9.26513 16.7157ZM8.63582 18.9113H9.9731V17.8956H8.63582V18.9113ZM4.17559 21.1772C4.89143 21.1772 5.25328 21.2085 5.43421 21.2866C5.5758 21.3569 5.7646 21.5367 5.86686 21.7007C6.01632 21.9586 6.03992 22.1149 6.03992 22.8337C6.03992 23.4822 6.00845 23.7401 5.90619 23.9588C5.82753 24.1151 5.66233 24.3026 5.52861 24.3886C5.33195 24.5058 5.12742 24.5292 4.19132 24.5292C3.26309 24.5292 3.05857 24.5058 2.85404 24.3886C2.72818 24.3026 2.56299 24.1151 2.48432 23.9588C2.38206 23.7401 2.34273 23.4744 2.34273 22.8337C2.34273 22.1617 2.37419 21.943 2.49219 21.7242C2.57872 21.5679 2.75965 21.3882 2.90911 21.3101C3.1215 21.2007 3.37322 21.1772 4.17559 21.1772ZM3.52268 23.365H4.85997V22.3493H3.52268V23.365ZM9.35953 21.1929C10.4687 21.2163 10.5237 21.2241 10.7283 21.4116C10.8463 21.5132 10.9879 21.7164 11.0508 21.857C11.1137 22.0133 11.1531 22.404 11.1531 22.8571C11.1531 23.3103 11.1137 23.6932 11.0508 23.8495C10.9879 23.9901 10.8463 24.1933 10.7283 24.3026C10.5237 24.4902 10.4608 24.498 9.39886 24.5214C8.49423 24.5449 8.23464 24.5292 8.03011 24.4277C7.88852 24.3573 7.69972 24.1854 7.61319 24.0448C7.48733 23.8338 7.45587 23.6541 7.45587 22.8728C7.45587 22.2164 7.4952 21.8883 7.57386 21.7242C7.64466 21.5913 7.80985 21.4195 7.95145 21.3257C8.17957 21.185 8.3133 21.1694 9.35953 21.1929ZM8.63582 23.365H9.9731V22.3493H8.63582V23.365ZM4.13626 25.6309C4.90716 25.6309 5.24542 25.6622 5.43421 25.7481C5.5758 25.8185 5.75673 25.9669 5.84326 26.0841C5.98486 26.2638 6.00059 26.4123 6.00059 27.3108C6.00059 28.2016 5.98486 28.35 5.84326 28.5376C5.75673 28.6548 5.5758 28.8032 5.43421 28.8657C5.24542 28.9595 4.91503 28.9907 4.13626 28.9829C3.26309 28.9829 3.05857 28.9595 2.85404 28.8423C2.72818 28.7563 2.56299 28.5688 2.48432 28.4125C2.38206 28.1938 2.34273 27.9281 2.34273 27.2874C2.34273 26.6389 2.37419 26.3888 2.48432 26.1935C2.56299 26.0529 2.72818 25.8653 2.85404 25.7872C3.05857 25.6466 3.23163 25.6309 4.13626 25.6309ZM3.52268 27.8187H4.85997V26.803H3.52268V27.8187ZM9.35953 25.6466C10.4687 25.67 10.5237 25.6778 10.7283 25.8653C10.8463 25.9669 10.9879 26.1701 11.0508 26.3107C11.1137 26.467 11.1531 26.8577 11.1531 27.3108C11.1531 27.764 11.1137 28.1469 11.0508 28.3032C10.9879 28.4438 10.8463 28.647 10.7283 28.7563C10.5237 28.9439 10.4608 28.9517 9.39886 28.9751C8.49423 28.9986 8.23464 28.9829 8.03011 28.8814C7.88852 28.811 7.69972 28.6391 7.61319 28.4985C7.48733 28.2875 7.45587 28.1078 7.45587 27.3265C7.45587 26.6701 7.4952 26.342 7.57386 26.1779C7.64466 26.0451 7.80985 25.8732 7.95145 25.7794C8.17957 25.6388 8.3133 25.6231 9.35953 25.6466ZM8.63582 27.8187H9.9731V26.803H8.63582V27.8187ZM14.3625 25.6309C15.1334 25.6309 15.4638 25.6622 15.6369 25.7481C15.7706 25.8106 15.9594 25.9747 16.0538 26.1154C16.2111 26.3498 16.2269 26.467 16.2269 27.3108C16.2269 28.1547 16.2111 28.2719 16.0538 28.4985C15.9594 28.6391 15.7706 28.8032 15.6369 28.8735C15.4638 28.9595 15.1334 28.9908 14.3625 28.9908C13.4579 28.9908 13.2848 28.9673 13.0646 28.8345C12.923 28.7485 12.7499 28.5844 12.6713 28.4672C12.5611 28.2953 12.5297 28.0766 12.5297 27.3108C12.5297 26.5451 12.5611 26.3263 12.6713 26.1544C12.7499 26.0372 12.923 25.8732 13.0646 25.7872C13.2848 25.6466 13.4579 25.6309 14.3625 25.6309ZM13.6703 27.8187H15.0862V26.803H13.6703V27.8187Z" fill="#2984DE"/>
</svg>
