<svg width="40" height="40" viewBox="0 0 40 40" fill="none" xmlns="http://www.w3.org/2000/svg">
<path fill-rule="evenodd" clip-rule="evenodd" d="M6.175 0.0310008C6.23 0.0310008 6.355 0.0775021 6.45 0.134337C6.545 0.186005 6.67 0.310008 6.72 0.403011C6.785 0.516681 6.825 0.713019 6.875 1.47254H9L9.005 0.465012L9.19 0.273841C9.29 0.170505 9.44 0.0723353 9.525 0.0516681C9.635 0.0206672 9.735 0.0413344 9.885 0.124003C10.015 0.186005 10.135 0.299675 10.185 0.403011C10.24 0.511514 10.275 0.723353 10.3 1.47254H12.45L12.46 0.961026C12.475 0.480513 12.485 0.434012 12.61 0.299675C12.68 0.222173 12.83 0.124003 12.935 0.0826689C13.105 0.0206672 13.145 0.025834 13.325 0.118837C13.435 0.170505 13.57 0.284174 13.625 0.366843C13.7 0.48568 13.725 0.625183 13.75 1.47254H15.9V1.02303C15.895 0.635517 15.915 0.542515 16.015 0.38751C16.075 0.289341 16.22 0.165338 16.325 0.11367C16.435 0.0620017 16.57 0.0310008 16.625 0.0465012C16.68 0.0620017 16.8 0.124003 16.885 0.180838C16.975 0.237673 17.085 0.366843 17.125 0.465012C17.17 0.573515 17.2 0.806022 17.2 1.47254H19.35V1.02303C19.35 0.661351 19.37 0.532181 19.45 0.403011C19.505 0.304842 19.65 0.180838 20.005 0L20.24 0.12917C20.39 0.211839 20.505 0.320342 20.56 0.439178C20.625 0.568349 20.65 0.74402 20.65 1.47254H22.8V1.04886C22.8 0.74402 22.825 0.568349 22.89 0.439178C22.945 0.320342 23.06 0.211839 23.445 0L23.67 0.118837C23.8 0.180838 23.945 0.304842 24 0.403011C24.08 0.532181 24.1 0.661351 24.1 1.47254H26.25V1.0592C26.25 0.806022 26.28 0.573515 26.325 0.465012C26.365 0.366843 26.475 0.237673 26.565 0.180838C26.65 0.124003 26.77 0.0620017 26.825 0.0465012C26.88 0.0310008 27.015 0.0620017 27.125 0.11367C27.23 0.165338 27.375 0.289341 27.435 0.38751C27.535 0.542515 27.555 0.635517 27.55 1.47254H29.7V1.0747C29.7 0.785354 29.73 0.609683 29.8 0.454679C29.875 0.294508 29.96 0.201505 30.115 0.124003C30.255 0.0482235 30.3717 0.0223895 30.465 0.0465012C30.54 0.0620017 30.685 0.155004 30.975 0.428845L31 1.47254H33.125L33.155 1.02303C33.17 0.769854 33.22 0.50118 33.26 0.413344C33.305 0.330676 33.425 0.206672 33.53 0.144671C33.64 0.0826689 33.77 0.0310008 33.825 0.0310008C33.88 0.0310008 34.005 0.0775021 34.1 0.134337C34.195 0.186005 34.315 0.304842 34.365 0.38751C34.43 0.50118 34.45 0.656184 34.45 1.44671L35.76 1.47771C36.875 1.50871 37.135 1.52937 37.475 1.62238C37.695 1.68438 38.045 1.83422 38.25 1.95305C38.46 2.07189 38.78 2.33023 38.98 2.53173C39.19 2.74874 39.41 3.03808 39.53 3.25509C39.635 3.45659 39.785 3.8286 40 4.54679V17.8151C40 29.6936 39.99 31.1197 39.92 31.4503C39.88 31.657 39.74 32.0497 39.61 32.3184C39.43 32.7007 39.3 32.8919 39.025 33.1761C38.835 33.3776 38.52 33.6359 38.325 33.7547C38.13 33.8684 37.835 34.0131 37.665 34.0699C37.49 34.1319 37.14 34.1991 36.89 34.2301C36.63 34.2559 34.81 34.2818 29.125 34.2818L28.98 34.5556C28.9 34.7003 28.69 35.0464 28.51 35.3151C28.33 35.5838 28.01 36.0126 27.8 36.271C27.585 36.5293 27.27 36.8755 27.095 37.0408C26.92 37.2113 26.605 37.4903 26.4 37.6608C26.195 37.8262 25.845 38.0897 25.625 38.2395C25.405 38.3894 24.93 38.6632 24.575 38.8492C24.22 39.0352 23.62 39.2936 23.25 39.4176C22.88 39.5416 22.34 39.6914 22.05 39.7534C21.76 39.8102 21.175 39.8981 20.75 39.9446C20.1 40.0117 19.885 40.0169 19.4 39.9652C19.085 39.9342 18.565 39.8619 18.25 39.8102C17.935 39.7534 17.43 39.6397 17.125 39.5467C16.825 39.4589 16.385 39.3039 16.15 39.2057C15.915 39.1076 15.49 38.9009 15.2 38.7407C14.91 38.5857 14.505 38.3377 14.3 38.193C14.095 38.0535 13.715 37.759 13.455 37.542C13.195 37.325 12.785 36.9272 12.535 36.6585C12.29 36.3898 11.925 35.9455 11.73 35.6716C11.535 35.403 11.265 34.9793 10.875 34.2818H7.225C5.22 34.2818 3.375 34.2559 3.125 34.2301C2.88 34.2043 2.53 34.1371 2.35 34.0802C2.17 34.0234 1.88 33.8891 1.7 33.7806C1.52 33.6721 1.205 33.4086 0.995 33.1967C0.685 32.8764 0.575 32.7214 0.39 32.3184C0.265 32.0497 0.125 31.6725 0.08 31.4813C0.01 31.161 0 29.8848 0 17.8875C0 6.48434 0.01 4.59846 0.075 4.28845C0.115 4.09211 0.255 3.7046 0.385 3.43593C0.57 3.04325 0.695 2.86758 0.995 2.55757C1.205 2.34573 1.52 2.08222 1.7 1.97372C1.88 1.86522 2.17 1.73088 2.35 1.67405C2.53 1.61721 2.88 1.55004 3.125 1.52421C3.375 1.49837 4.02 1.47254 5.55 1.47254V1.00753C5.55 0.656184 5.57 0.506347 5.64 0.38751C5.685 0.304842 5.805 0.186005 5.9 0.12917C5.995 0.0723353 6.12 0.0310008 6.175 0.0310008ZM2.25 3.21375C2.125 3.30159 1.935 3.47209 1.83 3.5961C1.72 3.7201 1.56 3.97327 1.48 4.15928C1.34 4.46929 1.325 4.54679 1.315 5.13064L1.3 5.76099H38.7C38.67 4.69146 38.64 4.47962 38.56 4.26261C38.5 4.10761 38.365 3.86477 38.26 3.7201C38.155 3.5806 37.96 3.37392 37.825 3.27059C37.685 3.16209 37.44 3.02775 37.275 2.97091C37.005 2.87791 36.845 2.86758 35.715 2.86758H34.45C34.45 3.8441 34.45 3.85444 34.29 4.02494C34.2 4.12311 34.055 4.21611 33.975 4.23678C33.895 4.25745 33.755 4.26261 33.675 4.24195C33.595 4.22645 33.465 4.14894 33.385 4.07144C33.31 3.98877 33.225 3.83377 33.2 3.7201C33.175 3.60643 33.15 3.36876 33.15 3.19309V2.86758H31C31 3.5961 30.975 3.7976 30.925 3.90094C30.885 3.98877 30.775 4.10244 30.69 4.15928C30.6 4.21611 30.465 4.26261 30.39 4.26261C30.31 4.26261 30.175 4.22645 30.09 4.18511C30 4.14378 29.88 4.03528 29.825 3.94227C29.755 3.8131 29.725 3.6581 29.715 3.32226L29.7 2.86758H27.55C27.55 3.5961 27.525 3.7976 27.475 3.90094C27.435 3.98877 27.325 4.10244 27.24 4.15928C27.15 4.21611 27.015 4.26261 26.94 4.26261C26.86 4.26261 26.715 4.22128 26.615 4.17478C26.49 4.10761 26.405 4.01977 26.34 3.8751C26.28 3.7356 26.25 3.53926 26.25 3.27059V2.86758H24.1C24.1 3.5341 24.07 3.7666 24.025 3.8751C23.985 3.97327 23.875 4.10244 23.79 4.15928C23.7 4.21611 23.555 4.26261 23.475 4.26261C23.395 4.26261 23.25 4.22128 23.155 4.17478C23.065 4.12311 22.945 3.99911 22.895 3.90094C22.825 3.7666 22.8 3.61676 22.8 3.29642V2.86758H20.65C20.625 3.75627 20.605 3.86994 20.52 3.98877C20.465 4.06628 20.32 4.16961 20.21 4.21095C20.025 4.27811 19.975 4.27811 19.79 4.21095C19.68 4.16961 19.535 4.06628 19.48 3.98877C19.395 3.86994 19.375 3.75627 19.365 3.35326L19.35 2.86758H17.2C17.2 3.61676 17.175 3.7666 17.105 3.90094C17.055 3.99911 16.935 4.12311 16.845 4.17478C16.75 4.22128 16.605 4.26261 16.525 4.26261C16.445 4.26261 16.3 4.21611 16.215 4.15928C16.125 4.10244 16.015 3.98877 15.975 3.90094C15.925 3.7976 15.9 3.5961 15.9 3.30676V2.86758H13.75C13.75 3.55476 13.72 3.72527 13.655 3.8751C13.59 4.00944 13.495 4.11278 13.38 4.17478C13.28 4.22128 13.145 4.26261 13.075 4.26261C13.005 4.26261 12.88 4.22645 12.8 4.18511C12.72 4.14378 12.605 4.03011 12.55 3.94227C12.47 3.80794 12.45 3.67877 12.45 3.32226V2.86758H10.3C10.3 3.41009 10.28 3.64776 10.25 3.74593C10.225 3.8441 10.14 3.99394 10.065 4.07144C9.97 4.16961 9.855 4.22645 9.7 4.24195C9.515 4.26778 9.44 4.24711 9.3 4.14894C9.205 4.08178 9.095 3.96811 9.065 3.90094C9.03 3.8286 9 3.57543 9 3.32226V2.86758H6.875C6.83 3.6116 6.79 3.82344 6.735 3.91644C6.69 3.99394 6.575 4.10244 6.49 4.15928C6.4 4.21611 6.265 4.26261 6.19 4.26261C6.11 4.26261 5.985 4.22645 5.9 4.18511C5.82 4.14378 5.705 4.04561 5.65 3.96811C5.565 3.8441 5.545 3.74593 5.55 3.34809V2.86758C3.17 2.87274 2.935 2.88824 2.725 2.96575C2.59 3.01741 2.375 3.12592 2.25 3.21375ZM1.325 31.2592C1.62 31.8999 1.765 32.1065 1.95 32.2925C2.1 32.4424 2.35 32.6232 2.5 32.6955C2.65 32.7679 2.92 32.8557 3.1 32.8815C3.305 32.9177 4.705 32.9384 6.84 32.9384C9.535 32.9384 10.25 32.9229 10.25 32.8764C10.25 32.8402 10.21 32.68 10.16 32.525C10.105 32.37 10.015 32.0342 9.96 31.7759C9.9 31.5175 9.82 31.068 9.775 30.7683C9.735 30.4583 9.7 29.8486 9.7 29.3475C9.7 28.8618 9.725 28.2728 9.75 28.0299C9.78 27.7871 9.85 27.3582 9.905 27.0741C9.965 26.7899 10.1 26.2784 10.21 25.9374C10.32 25.5964 10.52 25.0797 10.655 24.7903L10.9 24.2582C10.34 24.2582 10.14 24.2272 10.05 24.1807C9.97 24.1393 9.855 24.0411 9.8 23.9636C9.73 23.8655 9.695 23.7415 9.695 23.5865C9.695 23.4211 9.73 23.3075 9.81 23.2041C9.875 23.1215 10 23.0233 10.09 22.982C10.195 22.9354 10.495 22.9148 11 22.9148H11.75C12.14 22.3929 12.445 22.0364 12.69 21.7884C12.93 21.5352 13.305 21.1839 13.525 21.0031C13.745 20.8222 14.13 20.5381 14.375 20.3675C14.625 20.2022 15.06 19.9387 15.35 19.7889C15.64 19.639 16.1 19.4324 16.375 19.3239C16.65 19.2153 17.135 19.0603 17.45 18.9777C17.765 18.895 18.26 18.7917 18.55 18.7503C18.875 18.6987 19.425 18.6677 20 18.6677C20.575 18.6677 21.125 18.6987 21.45 18.7503C21.74 18.7917 22.235 18.895 22.55 18.9777C22.865 19.0603 23.35 19.2153 23.625 19.3239C23.9 19.4272 24.36 19.639 24.65 19.794C24.94 19.9439 25.4 20.2229 25.675 20.414C25.95 20.6001 26.345 20.8997 26.55 21.0754C26.755 21.2459 27.115 21.6024 27.355 21.8556C27.595 22.1139 27.9 22.4549 28.035 22.6203L28.275 22.92C29.56 22.9148 29.795 22.9354 29.925 22.9923C30.02 23.0336 30.145 23.1473 30.2 23.2403C30.255 23.3281 30.3 23.4986 30.3 23.6123C30.305 23.7415 30.265 23.8706 30.2 23.9636C30.145 24.0411 30.03 24.1393 29.95 24.1807C29.86 24.2272 29.66 24.2582 29.45 24.2582H29.1C29.345 24.7593 29.51 25.1623 29.625 25.4724C29.745 25.7875 29.91 26.33 29.995 26.6866C30.08 27.0431 30.19 27.6114 30.23 27.9524C30.29 28.4123 30.305 28.8359 30.285 29.6058C30.27 30.3446 30.23 30.8045 30.155 31.2075C30.1 31.5175 29.985 32.0135 29.9 32.308C29.82 32.5974 29.75 32.8609 29.75 32.8867C29.75 32.9229 30.92 32.9384 33.165 32.9384C35.34 32.9384 36.69 32.9177 36.9 32.8815C37.08 32.8506 37.34 32.773 37.475 32.7059C37.615 32.6387 37.85 32.4734 38 32.3287C38.15 32.1892 38.34 31.9515 38.42 31.7965C38.5 31.6415 38.595 31.4038 38.635 31.2592C38.685 31.0473 38.7 28.7481 38.7 19.0552V7.10436H1.3L1.325 31.2592ZM18.125 20.1815C17.85 20.2384 17.39 20.3675 17.1 20.4709C16.81 20.5742 16.34 20.7757 16.05 20.9204C15.76 21.0702 15.335 21.3182 15.1 21.4732C14.865 21.6334 14.505 21.9021 14.3 22.0726C14.095 22.2431 13.725 22.6048 13.475 22.8683C13.23 23.137 12.895 23.54 12.735 23.7673C12.57 23.9946 12.33 24.3667 12.205 24.594C12.075 24.8213 11.875 25.2192 11.765 25.4724C11.65 25.7307 11.485 26.1595 11.4 26.4282C11.315 26.6969 11.2 27.1412 11.15 27.4099C11.095 27.6786 11.035 28.0713 11.015 28.2779L10.975 28.6499C12.485 28.6499 12.59 28.6603 12.735 28.7533C12.825 28.8101 12.935 28.9393 12.975 29.0374C13.015 29.1356 13.05 29.27 13.05 29.3371C13.05 29.3991 13 29.5335 12.935 29.6316C12.875 29.7298 12.745 29.8538 12.65 29.9003C12.505 29.9778 12.34 29.9933 11.735 29.9933H11C11.045 30.4945 11.1 30.8717 11.155 31.1558C11.21 31.44 11.34 31.9412 11.445 32.2667C11.55 32.5922 11.755 33.1037 11.9 33.4034C12.045 33.7031 12.255 34.0957 12.365 34.2818C12.475 34.4678 12.705 34.8036 12.875 35.0309C13.045 35.2583 13.35 35.62 13.555 35.8318C13.76 36.0436 14.095 36.3588 14.3 36.5345C14.505 36.7102 14.865 36.9788 15.1 37.1338C15.335 37.294 15.715 37.5213 15.95 37.6402C16.185 37.7642 16.565 37.9347 16.8 38.0277C17.035 38.1207 17.44 38.2602 17.7 38.3274C17.96 38.3997 18.33 38.4824 18.525 38.5134C18.715 38.5392 18.98 38.5754 19.11 38.5909L19.35 38.6219C19.35 37.0873 19.36 36.9737 19.45 36.829C19.505 36.736 19.615 36.6223 19.7 36.581C19.78 36.5396 19.92 36.5035 20.01 36.5035C20.1 36.5035 20.245 36.55 20.335 36.6068C20.425 36.6637 20.535 36.7928 20.575 36.891C20.63 37.0253 20.65 37.2733 20.65 37.8469V38.6219C21.015 38.5754 21.315 38.5289 21.55 38.4927C21.785 38.4514 22.175 38.3584 22.425 38.286C22.67 38.2085 23.1 38.0587 23.375 37.9502C23.65 37.8365 24.135 37.5937 24.45 37.4077C24.765 37.2217 25.195 36.9323 25.4 36.7722C25.605 36.612 25.985 36.271 26.24 36.0126C26.5 35.7543 26.845 35.372 27.015 35.1601C27.18 34.9483 27.44 34.5763 27.59 34.3334C27.74 34.0906 27.985 33.6359 28.13 33.3259C28.275 33.0159 28.475 32.5147 28.57 32.215C28.665 31.9154 28.785 31.44 28.84 31.1558C28.895 30.8717 28.95 30.4945 28.97 30.3188L29 29.9933C27.66 29.9933 27.485 29.9726 27.325 29.9003C27.185 29.8331 27.095 29.7453 27.035 29.6161C26.99 29.5128 26.95 29.363 26.95 29.2855C26.95 29.2028 26.995 29.0633 27.05 28.9754C27.105 28.8824 27.215 28.7688 27.3 28.7274C27.415 28.6706 27.635 28.6499 28.225 28.6499H29C28.955 28.2314 28.91 27.9111 28.87 27.6682C28.835 27.4254 28.745 27.0224 28.67 26.7641C28.6 26.5057 28.465 26.0924 28.365 25.834C28.27 25.5809 28.085 25.1727 27.96 24.9298C27.84 24.687 27.605 24.2943 27.445 24.0515C27.285 23.8086 26.965 23.3901 26.735 23.1215C26.505 22.8528 26.13 22.4601 25.895 22.2534C25.665 22.0468 25.26 21.7316 25 21.5456C24.74 21.3647 24.245 21.0754 23.9 20.9101C23.555 20.7396 23.07 20.5277 22.825 20.445C22.575 20.3572 22.14 20.2384 21.85 20.1764C21.56 20.1144 21.17 20.0472 20.985 20.0317L20.65 19.9955C20.65 21.4319 20.635 21.6024 20.56 21.7574C20.505 21.8763 20.4 21.9796 20.275 22.0416C20.13 22.1191 20.025 22.1346 19.9 22.1088C19.805 22.0881 19.68 22.0468 19.625 22.0106C19.57 21.9744 19.485 21.8608 19.435 21.7574C19.365 21.6076 19.35 21.4267 19.35 20.7964V20.0214C18.98 20.0317 18.82 20.0472 18.75 20.0575C18.68 20.0679 18.4 20.1247 18.125 20.1815ZM6.175 12.2195C7.305 12.2195 7.755 12.2402 7.845 12.2867C7.915 12.3177 8.02 12.4313 8.085 12.5295C8.155 12.6328 8.2 12.7878 8.2 12.8912C8.2 12.9893 8.16 13.1444 8.11 13.227C8.06 13.3097 7.935 13.4234 7.835 13.475C7.67 13.5525 7.475 13.5629 6.16 13.5629C4.84 13.5629 4.655 13.5525 4.505 13.475C4.415 13.4234 4.295 13.2994 4.245 13.2012C4.19 13.103 4.15 12.9583 4.15 12.8808C4.15 12.7982 4.185 12.6638 4.225 12.5812C4.265 12.4985 4.37 12.3797 4.46 12.3228C4.615 12.2247 4.71 12.2195 6.175 12.2195ZM11.7 12.2195C13.185 12.2195 13.285 12.2247 13.435 12.3228C13.525 12.3797 13.635 12.514 13.68 12.6225C13.725 12.731 13.745 12.8808 13.73 12.9687C13.715 13.0514 13.65 13.1909 13.59 13.2735C13.525 13.3562 13.4 13.4544 13.31 13.4957C13.19 13.5474 12.785 13.5629 11.7 13.5629C10.61 13.5629 10.21 13.5474 10.085 13.4957C9.995 13.4544 9.875 13.3562 9.81 13.2735C9.73 13.1702 9.695 13.0565 9.695 12.9067C9.7 12.7827 9.735 12.6225 9.775 12.545C9.82 12.4623 9.915 12.359 9.99 12.3125C10.11 12.2298 10.295 12.2247 11.7 12.2195ZM17.235 12.2195C18.635 12.2195 18.815 12.2298 18.945 12.3125C19.03 12.359 19.13 12.4623 19.17 12.545C19.215 12.6225 19.25 12.7723 19.25 12.8808C19.25 12.9842 19.205 13.1495 19.15 13.2425C19.095 13.3304 18.97 13.444 18.875 13.4854C18.73 13.5474 18.425 13.5629 17.235 13.5629C15.9 13.5629 15.755 13.5525 15.575 13.4647C15.445 13.3975 15.345 13.2994 15.285 13.1805C15.24 13.0772 15.2 12.948 15.2 12.8912C15.2 12.8343 15.235 12.7052 15.275 12.607C15.315 12.5088 15.42 12.3797 15.51 12.3228C15.665 12.2247 15.765 12.2195 17.235 12.2195ZM22.75 12.2195C24.235 12.2195 24.335 12.2247 24.485 12.3228C24.575 12.3797 24.685 12.5088 24.725 12.607C24.765 12.7052 24.8 12.8395 24.8 12.9067C24.8 12.9687 24.75 13.103 24.685 13.2012C24.625 13.2994 24.495 13.4234 24.4 13.4699C24.245 13.5525 24.055 13.5629 22.76 13.5629C21.57 13.5629 21.265 13.5474 21.125 13.4854C21.03 13.444 20.905 13.3304 20.85 13.2425C20.795 13.1495 20.75 12.9842 20.75 12.8808C20.75 12.7723 20.785 12.6225 20.825 12.545C20.87 12.4623 20.965 12.359 21.04 12.3125C21.16 12.2298 21.345 12.2247 22.75 12.2195ZM28.285 12.2195C29.685 12.2195 29.865 12.2298 29.995 12.3125C30.08 12.359 30.18 12.4623 30.22 12.545C30.265 12.6225 30.3 12.7827 30.3 12.9067C30.3 13.0565 30.265 13.1702 30.19 13.2735C30.125 13.3562 30 13.4544 29.91 13.4957C29.79 13.5474 29.385 13.5629 28.3 13.5629C27.21 13.5629 26.81 13.5474 26.685 13.4957C26.595 13.4544 26.475 13.3562 26.41 13.2735C26.345 13.1909 26.285 13.0514 26.27 12.9687C26.25 12.8808 26.275 12.731 26.32 12.6225C26.365 12.514 26.47 12.3797 26.56 12.3228C26.715 12.2247 26.815 12.2195 28.285 12.2195ZM33.825 12.2195C35.285 12.2195 35.385 12.2247 35.535 12.3228C35.625 12.3797 35.735 12.4985 35.775 12.5812C35.815 12.6638 35.85 12.7982 35.85 12.8808C35.85 12.9583 35.805 13.103 35.755 13.2012C35.7 13.2994 35.585 13.4234 35.49 13.475C35.345 13.5525 35.155 13.5629 33.835 13.5629C32.525 13.5629 32.325 13.5525 32.165 13.475C32.065 13.4234 31.94 13.3097 31.89 13.227C31.84 13.1444 31.8 12.9893 31.8 12.8912C31.795 12.7827 31.845 12.638 31.915 12.5295C31.98 12.4313 32.085 12.3228 32.155 12.2867C32.24 12.2402 32.685 12.2195 33.825 12.2195ZM6.175 15.7846C7.635 15.7846 7.735 15.7898 7.885 15.8879C7.975 15.9448 8.085 16.0636 8.125 16.1463C8.165 16.2289 8.2 16.3736 8.2 16.4563C8.2 16.5389 8.165 16.6836 8.125 16.7663C8.085 16.849 7.975 16.9678 7.885 17.0246C7.735 17.1228 7.635 17.128 6.185 17.128C4.92 17.128 4.625 17.1125 4.5 17.0505C4.415 17.0091 4.305 16.8955 4.25 16.8076C4.195 16.7146 4.15 16.5596 4.15 16.4718C4.15 16.3788 4.185 16.2289 4.225 16.1463C4.265 16.0636 4.37 15.9448 4.46 15.8879C4.615 15.7898 4.715 15.7846 6.175 15.7846ZM11.7 15.7846C13.09 15.7846 13.24 15.7949 13.4 15.8828C13.52 15.9499 13.605 16.0481 13.775 16.4563L13.675 16.6939C13.605 16.8645 13.52 16.9626 13.4 17.0298C13.24 17.1176 13.09 17.128 11.71 17.128C10.465 17.128 10.17 17.1125 10.05 17.0505C9.965 17.0091 9.855 16.911 9.795 16.8335C9.72833 16.737 9.695 16.6113 9.695 16.4563C9.7 16.3168 9.735 16.1721 9.785 16.1049C9.83 16.0378 9.94 15.9396 10.02 15.8828C10.165 15.7898 10.285 15.7846 11.7 15.7846ZM17.25 15.7846C18.765 15.7794 18.775 15.7846 18.95 15.9034C19.045 15.9654 19.15 16.0791 19.185 16.1463C19.22 16.2186 19.245 16.3581 19.245 16.4563C19.245 16.5544 19.22 16.6939 19.185 16.7663C19.15 16.8335 19.045 16.9471 18.95 17.0091C18.775 17.128 18.76 17.1331 17.25 17.128C15.895 17.128 15.705 17.1176 15.555 17.0401C15.465 16.9885 15.345 16.8645 15.29 16.7663C15.22 16.6371 15.2 16.5286 15.22 16.3788C15.235 16.2651 15.285 16.1204 15.33 16.0533C15.375 15.9861 15.485 15.8983 15.57 15.8621C15.69 15.8053 16.065 15.7898 17.25 15.7846ZM22.745 15.7846C24.1 15.7846 24.295 15.7949 24.445 15.8776C24.54 15.9241 24.655 16.0481 24.705 16.1463C24.76 16.2444 24.8 16.3839 24.8 16.4563C24.8 16.5286 24.76 16.6681 24.705 16.7663C24.655 16.8645 24.54 16.9885 24.445 17.035C24.295 17.1176 24.1 17.128 22.75 17.128C21.235 17.1331 21.225 17.128 21.05 17.0091C20.955 16.9471 20.845 16.8335 20.81 16.7663C20.78 16.6939 20.75 16.5544 20.75 16.4563C20.75 16.3581 20.78 16.2186 20.81 16.1463C20.845 16.0791 20.95 15.9706 21.045 15.9034C21.215 15.7846 21.235 15.7846 22.745 15.7846ZM28.285 15.7846C29.53 15.7846 29.825 15.8001 29.95 15.8621C30.03 15.9034 30.145 16.0016 30.2 16.0843C30.27 16.1773 30.3 16.3013 30.3 16.4563C30.3 16.6113 30.27 16.7353 30.2 16.8335C30.145 16.911 30.03 17.0091 29.95 17.0505C29.825 17.1125 29.53 17.128 28.285 17.128C26.905 17.128 26.76 17.1176 26.6 17.0298C26.48 16.9626 26.395 16.8645 26.225 16.4563L26.325 16.2186C26.395 16.0481 26.48 15.9499 26.6 15.8828C26.76 15.7949 26.905 15.7846 28.285 15.7846ZM33.785 15.7846C35.02 15.7846 35.33 15.8001 35.475 15.8621C35.57 15.9034 35.695 16.0171 35.75 16.1101C35.805 16.1979 35.85 16.3374 35.85 16.4201C35.85 16.4976 35.815 16.6423 35.775 16.7404C35.735 16.8386 35.625 16.9678 35.535 17.0246C35.385 17.1228 35.285 17.128 33.835 17.128C32.57 17.128 32.275 17.1125 32.15 17.0505C32.065 17.0091 31.955 16.8955 31.9 16.8076C31.845 16.7146 31.8 16.5596 31.8 16.4718C31.8 16.3788 31.835 16.2289 31.875 16.1463C31.915 16.0636 32.02 15.9448 32.11 15.8879C32.265 15.7898 32.365 15.7846 33.785 15.7846ZM6.175 19.3497C7.635 19.3497 7.735 19.3549 7.885 19.453C7.975 19.5099 8.085 19.6287 8.125 19.7114C8.165 19.794 8.2 19.9387 8.2 20.0214C8.2 20.104 8.165 20.2487 8.125 20.3314C8.085 20.414 7.975 20.5329 7.885 20.5897C7.735 20.6879 7.635 20.6931 6.185 20.6931C4.92 20.6931 4.625 20.6776 4.5 20.6156C4.415 20.5742 4.305 20.4605 4.25 20.3727C4.195 20.2797 4.15 20.1247 4.15 20.0369C4.15 19.9439 4.185 19.794 4.225 19.7114C4.265 19.6287 4.37 19.5099 4.46 19.453C4.615 19.3549 4.715 19.3497 6.175 19.3497ZM11.7 19.3497C13.09 19.3497 13.24 19.36 13.4 19.4479C13.52 19.515 13.605 19.6132 13.775 20.0214L13.675 20.259C13.605 20.4296 13.52 20.5277 13.4 20.5949C13.24 20.6827 13.09 20.6931 11.71 20.6931C10.465 20.6931 10.17 20.6776 10.05 20.6156C9.965 20.5742 9.855 20.476 9.795 20.3985C9.72833 20.3021 9.695 20.1764 9.695 20.0214C9.7 19.8819 9.735 19.7372 9.785 19.67C9.83 19.6029 9.94 19.5047 10.02 19.4479C10.165 19.3549 10.285 19.3497 11.7 19.3497ZM28.285 19.3497C29.53 19.3497 29.825 19.3652 29.95 19.4272C30.03 19.4685 30.145 19.5667 30.2 19.6494C30.27 19.7424 30.3 19.8664 30.3 20.0214C30.3 20.1764 30.27 20.3004 30.2 20.3985C30.145 20.476 30.03 20.5742 29.95 20.6156C29.825 20.6776 29.53 20.6931 28.285 20.6931C26.905 20.6931 26.76 20.6827 26.6 20.5949C26.48 20.5277 26.395 20.4295 26.225 20.0214L26.325 19.7837C26.395 19.6132 26.48 19.515 26.6 19.4479C26.76 19.36 26.905 19.3497 28.285 19.3497ZM33.785 19.3497C35.02 19.3497 35.33 19.3652 35.475 19.4272C35.57 19.4685 35.695 19.5822 35.75 19.6752C35.805 19.763 35.85 19.9025 35.85 19.9852C35.85 20.0627 35.815 20.2074 35.775 20.3055C35.735 20.4037 35.625 20.5329 35.535 20.5897C35.385 20.6879 35.285 20.6931 33.835 20.6931C32.57 20.6931 32.275 20.6776 32.15 20.6156C32.065 20.5742 31.955 20.4605 31.9 20.3727C31.845 20.2797 31.8 20.1247 31.8 20.0369C31.8 19.9439 31.835 19.794 31.875 19.7114C31.915 19.6287 32.02 19.5099 32.11 19.453C32.265 19.3549 32.365 19.3497 33.785 19.3497ZM6.16 22.9148C7.475 22.9148 7.67 22.9251 7.835 23.0078C7.935 23.0543 8.06 23.168 8.11 23.2506C8.16 23.3333 8.2 23.4831 8.2 23.5761C8.2 23.664 8.165 23.8138 8.125 23.8965C8.085 23.9791 7.975 24.098 7.885 24.1548C7.735 24.253 7.635 24.2582 6.185 24.2582C4.92 24.2582 4.625 24.2427 4.5 24.1807C4.415 24.1393 4.305 24.0256 4.25 23.9378C4.195 23.8448 4.15 23.695 4.15 23.6123C4.15 23.5296 4.19 23.3746 4.245 23.2765C4.295 23.1783 4.415 23.0543 4.505 23.0026C4.655 22.9251 4.84 22.9148 6.16 22.9148ZM33.825 22.9148C35.16 22.9148 35.345 22.9251 35.49 23.0026C35.585 23.0543 35.7 23.1783 35.755 23.2765C35.805 23.3746 35.85 23.509 35.85 23.5761C35.85 23.6381 35.815 23.7725 35.775 23.8706C35.735 23.9688 35.625 24.098 35.535 24.1548C35.385 24.253 35.285 24.2582 33.835 24.2582C32.57 24.2582 32.275 24.2427 32.15 24.1807C32.065 24.1393 31.955 24.0256 31.9 23.9378C31.845 23.8448 31.8 23.6846 31.8 23.5865C31.8 23.4883 31.845 23.3333 31.905 23.2455C31.96 23.1628 32.08 23.0491 32.165 23.0026C32.305 22.9303 32.525 22.9148 33.825 22.9148ZM24.81 23.6381C24.885 23.6381 25.03 23.6795 25.135 23.7311C25.27 23.7931 25.345 23.881 25.415 24.0515C25.505 24.2633 25.505 24.3047 25.445 24.4752C25.395 24.6095 24.855 25.2192 23.61 26.5315C22.075 28.1539 21.85 28.4071 21.9 28.6499H23.45C24.66 28.6499 25.03 28.6654 25.135 28.7223C25.21 28.7584 25.315 28.8566 25.37 28.9393C25.425 29.0219 25.47 29.1821 25.47 29.3061C25.475 29.4456 25.44 29.5696 25.37 29.6678C25.315 29.7453 25.19 29.8538 25.095 29.9003C24.945 29.983 24.755 29.9933 21.925 29.9881L21.8 30.2568C21.73 30.4015 21.575 30.634 21.45 30.7632C21.32 30.9078 21.08 31.0783 20.875 31.1817C20.575 31.3315 20.46 31.3625 20.1 31.378C19.76 31.3935 19.615 31.378 19.075 31.1817L18.55 31.75C18.26 32.0652 17.955 32.37 17.875 32.4269C17.78 32.4889 17.635 32.525 17.485 32.525C17.31 32.525 17.215 32.494 17.11 32.4062C17.035 32.339 16.945 32.215 16.905 32.1324C16.865 32.0342 16.85 31.9102 16.875 31.7759C16.905 31.6002 17 31.4762 17.535 30.9233C18.095 30.3395 18.155 30.262 18.1 29.9933H17.625C17.315 29.9933 17.09 29.9675 16.975 29.9158C16.88 29.8745 16.755 29.7608 16.7 29.673C16.635 29.5645 16.6 29.4146 16.6 29.27C16.605 29.0684 16.63 29.0116 16.985 28.6499H18.05L18.18 28.3813C18.255 28.2314 18.42 27.9938 18.55 27.8491C18.68 27.7096 18.915 27.5287 19.07 27.4512C19.225 27.3686 19.465 27.2807 19.61 27.2497C19.755 27.2187 20.01 27.2032 20.175 27.2187C20.34 27.2342 20.57 27.2911 20.905 27.4357L22.69 25.5964C23.67 24.5837 24.52 23.726 24.575 23.695C24.63 23.664 24.735 23.6381 24.81 23.6381ZM19.34 29.0116C19.265 29.1821 19.245 29.2906 19.27 29.425C19.29 29.5231 19.35 29.6678 19.405 29.7505C19.455 29.828 19.565 29.9261 19.65 29.9675C19.73 30.0088 19.895 30.045 20.01 30.045C20.135 30.045 20.29 30.0036 20.385 29.9416C20.485 29.8796 20.59 29.7453 20.65 29.6058C20.715 29.4508 20.74 29.3165 20.72 29.208C20.7 29.1149 20.65 28.9754 20.605 28.8979C20.56 28.8204 20.445 28.7068 20.35 28.6551C20.255 28.5983 20.095 28.5518 20 28.5518C19.905 28.5518 19.74 28.5983 19.635 28.6654C19.51 28.7378 19.41 28.8566 19.34 29.0116ZM6.16 26.4799C7.475 26.4799 7.67 26.4902 7.835 26.5729C7.935 26.6194 8.06 26.7331 8.11 26.8157C8.16 26.8984 8.2 27.0534 8.2 27.1516C8.2 27.2549 8.155 27.4099 8.085 27.5132C8.02 27.6114 7.915 27.7251 7.845 27.7561C7.755 27.8026 7.305 27.8232 6.175 27.8232C5.045 27.8232 4.59 27.8026 4.5 27.7561C4.435 27.7251 4.325 27.6114 4.26 27.5132C4.2 27.4151 4.145 27.2601 4.145 27.1774C4.15 27.0947 4.19 26.9397 4.245 26.8416C4.295 26.7434 4.415 26.6194 4.505 26.5677C4.655 26.4902 4.84 26.4799 6.16 26.4799ZM33.825 26.4799C35.16 26.4799 35.345 26.4902 35.49 26.5677C35.585 26.6194 35.7 26.7434 35.755 26.8416C35.805 26.9397 35.85 27.0844 35.85 27.1671C35.85 27.2446 35.815 27.3789 35.775 27.4616C35.735 27.5442 35.625 27.6631 35.535 27.7199C35.385 27.8181 35.285 27.8232 33.825 27.8232C32.695 27.8232 32.24 27.8026 32.15 27.7561C32.085 27.7251 31.975 27.6114 31.91 27.5132C31.845 27.4099 31.795 27.2549 31.8 27.1516C31.8 27.0534 31.845 26.8984 31.905 26.8106C31.96 26.7279 32.08 26.6142 32.165 26.5677C32.305 26.4954 32.525 26.4799 33.825 26.4799Z" fill="#2984DE"/>
</svg>
