<svg width="35" height="40" viewBox="0 0 35 40" fill="none" xmlns="http://www.w3.org/2000/svg">
<path fill-rule="evenodd" clip-rule="evenodd" d="M2.3594 0.015625L20.8519 0L21.2979 0.210938C21.6746 0.382812 22.1821 0.867188 24.7503 3.46875C27.0878 5.84375 27.8029 6.61719 28.1951 7.38281L28.2181 12.7734C28.2335 17.0391 28.2181 18.2031 28.1412 18.3438C28.0874 18.4375 27.9567 18.5469 27.8491 18.5859C27.726 18.6328 27.5722 18.6172 27.4262 18.5625C27.3031 18.5078 27.1724 18.4062 27.1417 18.3359C27.1032 18.2656 27.0801 15.8828 27.0801 7.89062H25.2578C24.2428 7.89062 23.2202 7.85156 22.9664 7.80469C22.7127 7.75781 22.3436 7.63281 22.1437 7.53125C21.9361 7.42969 21.6285 7.21094 21.4517 7.03906C21.2671 6.875 21.0134 6.53125 20.875 6.28125C20.7442 6.02344 20.5982 5.60938 20.552 5.35156C20.5059 5.09375 20.4674 4.04688 20.4674 1.17188L2.43629 1.21094L2.12872 1.38281C1.95956 1.46875 1.74426 1.63281 1.65199 1.73438C1.55972 1.82813 1.41363 2.07031 1.32905 2.26562C1.17526 2.61719 1.16757 2.67969 1.16757 34.4922L1.35211 34.8828C1.45207 35.0938 1.67506 35.375 1.83653 35.5078C1.99801 35.6328 2.30557 35.7812 2.51318 35.8359C2.79768 35.9141 3.74345 35.9375 9.20277 35.9375L9.37963 36.1172C9.4719 36.2109 9.55648 36.375 9.55648 36.4844C9.55648 36.5938 9.48728 36.7656 9.2566 37.0703L6.07328 37.0938C3.91261 37.1094 2.75155 37.0859 2.43629 37.0312C2.18255 36.9766 1.76733 36.8281 1.52128 36.6953C1.26753 36.5547 0.929208 36.2891 0.767735 36.0938C0.598573 35.8984 0.375586 35.5469 0.0526405 34.8828L0.0141946 32.2266C-0.00887301 30.7656 -0.00887301 23.4141 0.0526405 2.22656L0.298695 1.71875C0.444789 1.39844 0.690843 1.0625 0.952276 0.820312C1.20602 0.570312 1.54434 0.351562 1.8596 0.21875L2.3594 0.015625ZM21.7131 5.25781C21.7592 5.48438 21.9053 5.80469 22.036 5.97656C22.1667 6.14062 22.4436 6.375 22.6589 6.48438C23.0279 6.67188 23.0971 6.67969 24.5965 6.70312C25.4577 6.71094 26.1574 6.69531 26.1574 6.66406C26.1574 6.63281 25.1655 5.59375 23.9506 4.35938C22.7281 3.125 21.7131 2.10938 21.6823 2.10938C21.6439 2.10938 21.6208 2.72656 21.6208 3.47656C21.6208 4.25 21.6593 5.02344 21.7131 5.25781ZM10.7406 19.7891C11.0482 19.8125 11.2865 19.9141 11.9709 20.3281C12.4399 20.6094 12.9167 20.9609 13.0397 21.1094C13.1627 21.25 13.3319 21.5078 13.4164 21.6797C13.501 21.8594 13.5933 22.2344 13.6625 23.0781L14.047 23.2578C14.2776 23.3672 14.5775 23.4375 14.8005 23.4375C15.0466 23.4375 15.4464 23.3281 16.1 23.0703C16.9919 22.7188 17.0919 22.6953 17.7762 22.6953C18.4606 22.6953 18.5451 22.7188 19.6985 23.2812L20.9134 22.9688C21.8976 22.7031 22.2129 22.6484 22.6204 22.6797C22.9664 22.7031 23.3816 22.8203 23.966 23.0547C24.4351 23.2344 24.9656 23.4062 25.1578 23.4219C25.3501 23.4453 25.5884 23.4375 25.6961 23.4141C25.8806 23.3672 25.8883 23.3516 25.8652 22.7578C25.8422 22.3125 25.8729 22.0547 25.9729 21.7969C26.0498 21.6094 26.2497 21.2969 26.4189 21.1094C26.5957 20.9219 27.0801 20.5625 27.503 20.3047C27.9336 20.0469 28.4104 19.8203 28.5795 19.7969C28.7487 19.7734 29.0101 19.7891 29.1562 19.8359C29.3023 19.8828 29.5176 20.0156 29.6329 20.1406C29.7483 20.2578 30.9324 22.2344 32.2703 24.5312C33.6159 26.8359 34.777 28.8438 34.8539 29.0078C34.9308 29.1641 35 29.3672 35 29.4531C35 29.5391 34.9231 29.7734 34.8308 29.9766C34.7232 30.2031 34.5387 30.4219 34.3464 30.5469C34.1773 30.6641 33.762 30.9219 33.4237 31.1172C33.0623 31.3359 32.6317 31.5156 32.3857 31.5625C32.0858 31.625 31.8397 31.6172 31.5399 31.5547C31.1631 31.4766 31.0862 31.4844 30.794 31.6328C30.6095 31.7266 30.448 31.8281 30.4326 31.8594C30.4096 31.8906 30.4788 32.0938 30.5864 32.3047C30.7248 32.5938 30.7709 32.8281 30.7709 33.1641C30.7786 33.5312 30.7248 33.7344 30.5557 34.0625C30.4403 34.3047 30.2019 34.6016 30.0328 34.7344C29.8559 34.8828 29.5484 35.0156 29.2716 35.0781C28.9486 35.1562 28.7102 35.1641 28.4796 35.1094C28.172 35.0469 28.1489 35.0547 28.1028 35.2344C28.0797 35.3438 27.9952 35.5547 27.9259 35.7031C27.8491 35.8594 27.6568 36.1016 27.4954 36.2578C27.3262 36.4141 27.0571 36.5859 26.8879 36.6406C26.7187 36.7031 26.3804 36.7578 26.1421 36.7578C25.7192 36.7578 25.6961 36.7734 25.6961 36.9531C25.6961 37.0625 25.5961 37.3203 25.4808 37.5312C25.3654 37.7344 25.1502 38 25.0041 38.1094C24.858 38.2266 24.6196 38.3594 24.4889 38.4141C24.3505 38.4688 24.0429 38.5156 23.8122 38.5156C23.5816 38.5156 23.2586 38.4688 23.1048 38.3984C22.9434 38.3359 22.8126 38.2891 22.8049 38.3047C22.8049 38.3125 22.7588 38.4688 22.7127 38.6562C22.6589 38.8359 22.4897 39.1328 22.3359 39.3125C22.1744 39.4844 21.8822 39.7188 21.6823 39.8203C21.4132 39.9531 21.1825 40 20.8519 40C20.4751 40 20.306 39.9531 19.9523 39.7578C19.7062 39.6172 19.291 39.375 18.5451 38.9062L18.2991 39.0938C18.1607 39.1953 17.9223 39.3438 17.7762 39.4219C17.6071 39.5078 17.3302 39.5625 17.0073 39.5703C16.5844 39.5703 16.4383 39.5391 16.0846 39.3359C15.8001 39.1719 15.5848 38.9688 15.431 38.7344C15.208 38.3906 15.185 38.375 14.9312 38.4219C14.7851 38.4531 14.4929 38.4688 14.2776 38.4609C14.0623 38.4531 13.7394 38.3672 13.5549 38.2656C13.3626 38.1719 13.0935 37.9453 12.9551 37.7734C12.809 37.6016 12.6552 37.3359 12.6014 37.1797C12.5091 36.8984 12.4937 36.8906 12.0862 36.8516C11.8555 36.8359 11.5249 36.75 11.3557 36.6641C11.1866 36.5781 10.9175 36.3516 10.756 36.1641C10.5945 35.9766 10.4254 35.6875 10.3715 35.5312C10.287 35.25 10.2562 35.2344 9.97169 35.2344C9.80253 35.2344 9.52572 35.1875 9.36425 35.1406C9.19509 35.0859 8.91827 34.9141 8.74911 34.7656C8.57226 34.6094 8.35696 34.3281 8.26469 34.1406C8.14936 33.9062 8.08784 33.6484 8.08784 33.3594C8.08784 33.125 8.12629 32.8125 8.17242 32.6562C8.22625 32.5078 8.41079 32.1641 8.59533 31.8984C8.77987 31.625 8.93365 31.3906 8.93365 31.3672C8.93365 31.3516 8.87983 31.3125 8.81832 31.2891C8.7568 31.2734 8.55688 31.3203 8.38003 31.4062C8.19549 31.4844 7.89561 31.5781 7.70338 31.6016C7.50346 31.6328 7.1959 31.6094 6.97291 31.5469C6.7653 31.4922 6.28088 31.2734 5.90411 31.0547C5.52734 30.8438 5.08906 30.5469 4.93528 30.3906C4.75073 30.2188 4.61233 30 4.55851 29.7891C4.49699 29.5547 4.49699 29.3672 4.55082 29.1641C4.59695 29 5.79646 26.9062 7.21896 24.5C9.31811 20.9375 9.85636 20.0938 10.0793 19.9453C10.2946 19.8047 10.4407 19.7656 10.7406 19.7891ZM8.14936 25.1562C6.85757 27.375 5.76571 29.2578 5.71957 29.3594C5.63499 29.5234 5.66575 29.5547 6.2655 29.9141C6.61152 30.125 7.01904 30.3281 7.16514 30.375C7.34199 30.4297 7.53422 30.4375 7.72645 30.3906C7.88023 30.3438 8.09553 30.2344 8.19549 30.1406C8.30314 30.0391 9.28736 28.4141 10.3946 26.5234C11.7787 24.1484 12.4092 22.9922 12.4399 22.7734C12.4784 22.5469 12.4476 22.3828 12.34 22.1484C12.2092 21.8984 12.0401 21.75 11.4403 21.3906C11.0328 21.1406 10.6868 20.9375 10.6714 20.9375C10.656 20.9375 10.6099 20.9844 10.5638 21.0391C10.5253 21.0937 9.43345 22.9453 8.14936 25.1562ZM27.1724 22.0391C27.0571 22.2188 27.0032 22.4219 27.0032 22.6562C27.0032 22.9453 27.0878 23.1484 27.4415 23.75C27.6799 24.1641 27.8798 24.5859 27.8798 24.6953C27.8875 24.8125 27.8337 24.9609 27.7722 25.0391C27.7107 25.1172 27.5799 25.2109 27.48 25.25C27.38 25.2891 27.2339 25.2812 27.1186 25.2344C27.0109 25.1953 26.8187 24.9844 26.6957 24.7656L26.465 24.375C25.896 24.5625 25.5269 24.6094 25.2732 24.6094C24.9656 24.6094 24.6042 24.5312 24.1967 24.3906C23.8584 24.2656 23.3816 24.0938 23.1356 24C22.8972 23.9062 22.605 23.8281 22.482 23.8281C22.3667 23.8281 21.7362 23.9688 21.0826 24.1406C20.3213 24.3438 19.8062 24.5234 19.6601 24.6406C19.537 24.7344 19.3602 24.9609 19.2756 25.125C19.1372 25.3984 19.1218 25.6094 19.0988 26.9375L19.0834 28.4375C19.4371 28.4375 19.6831 28.3672 19.8523 28.2891C20.0215 28.2031 20.2291 28.0312 20.306 27.9141C20.3829 27.7969 20.4905 27.5547 20.5366 27.3828C20.5828 27.2109 20.6212 26.9766 20.6212 26.8594C20.6212 26.7135 20.6904 26.5885 20.8288 26.4844C20.9519 26.3984 21.0979 26.3281 21.1595 26.3281C21.221 26.3281 22.2052 26.8828 23.3509 27.5703C24.4966 28.25 26.3112 29.3359 27.3877 29.9844L29.3484 31.1562C29.9713 30.7422 30.0712 30.6328 30.0405 30.5469C30.0097 30.4844 29.5791 29.7188 29.0716 28.8516C28.4488 27.7812 28.1566 27.1953 28.1566 27.0312C28.1566 26.9062 28.2258 26.7266 28.3104 26.6406C28.395 26.5547 28.5565 26.4844 28.6718 26.4844C28.7948 26.4844 28.9486 26.5312 29.0178 26.5859C29.0947 26.6406 29.5714 27.4062 30.0866 28.2812C30.5941 29.1641 31.1093 29.9844 31.2169 30.1016C31.3323 30.2266 31.5476 30.3516 31.6937 30.3984C31.8628 30.4375 32.0627 30.4375 32.2319 30.3906C32.378 30.3516 32.7778 30.1484 33.1161 29.9375C33.4545 29.7266 33.7313 29.5078 33.7236 29.4453C33.7236 29.3906 32.624 27.4453 31.2861 25.1406C29.9482 22.8281 28.8256 20.9375 28.7871 20.9453C28.7564 20.9453 28.4181 21.1328 28.0413 21.3594C27.6107 21.6172 27.2801 21.875 27.1724 22.0391ZM14.8159 24.5703C14.1315 24.5703 13.9931 24.5469 13.5856 24.3594C13.3319 24.2422 13.1166 24.1484 13.1089 24.1641C13.1012 24.1719 12.3015 25.5547 11.3173 27.2266C10.3408 28.9062 9.56417 30.3203 9.58723 30.375C9.6103 30.4297 9.67181 30.4688 9.71795 30.4766C9.77177 30.4766 9.95632 30.4141 10.1255 30.3438C10.3408 30.2578 10.5715 30.2266 10.8944 30.2578C11.1481 30.2734 11.4942 30.3672 11.6633 30.4531C11.8325 30.5391 12.0862 30.7344 12.2169 30.8906L12.4707 31.1719C13.2165 30.6953 13.3242 30.6641 13.8086 30.6719C14.1931 30.6719 14.4468 30.7188 14.6621 30.8203C14.8313 30.9062 15.1004 31.1172 15.2619 31.2891C15.4233 31.4609 15.6002 31.7422 15.654 31.9141C15.754 32.2266 15.754 32.2266 16.2076 32.2734C16.4998 32.2969 16.792 32.3906 17.0227 32.5234C17.2303 32.6406 17.4994 32.8828 17.6224 33.0703C17.7532 33.25 17.8992 33.5938 17.9454 33.8281C17.9992 34.1172 18.0069 34.3672 17.9608 34.5781L17.8916 34.8984C18.4606 35.1016 18.7066 35.2812 18.9296 35.5312C19.1218 35.7344 19.3217 36.0469 19.3679 36.2188C19.4217 36.3906 19.4678 36.6953 19.4678 36.8984C19.4678 37.1016 19.414 37.3984 19.3525 37.5625C19.2833 37.7188 19.2372 37.8828 19.2372 37.9141C19.2372 37.9453 19.5217 38.1484 19.8677 38.3594C20.2214 38.5703 20.6135 38.7656 20.7366 38.7969C20.8827 38.8281 21.0595 38.8047 21.2133 38.7188C21.3594 38.6484 21.5132 38.4844 21.5747 38.3438C21.6362 38.2031 21.6669 38 21.6516 37.8906C21.6285 37.7891 21.5593 37.625 21.4824 37.5391C21.4055 37.4531 21.0672 37.2188 20.7366 37.0234C20.3982 36.8203 20.083 36.6094 20.0292 36.5547C19.983 36.4922 19.9215 36.3516 19.8984 36.2344C19.86 36.0625 19.8984 35.9688 20.083 35.7812C20.2521 35.6094 20.3598 35.5625 20.5059 35.5859C20.6135 35.6094 21.344 36.0156 22.136 36.4922C23.1125 37.0703 23.6584 37.3516 23.8122 37.3516C23.9353 37.3516 24.1275 37.2891 24.2274 37.2109C24.3351 37.1328 24.4658 36.9609 24.5196 36.8203C24.6042 36.6016 24.6042 36.5234 24.4812 36.2734C24.3659 36.0156 24.1506 35.8594 22.7742 35.0234C21.7131 34.3828 21.1748 34.0156 21.1287 33.8906C21.0903 33.7969 21.0826 33.6172 21.1133 33.5C21.1364 33.3828 21.2364 33.2266 21.3286 33.1641C21.4363 33.0859 21.5824 33.0547 21.6977 33.0781C21.8054 33.1016 22.8049 33.6719 23.9276 34.3516C25.3116 35.1875 26.0421 35.5781 26.1959 35.5859C26.3266 35.5859 26.5265 35.5234 26.6419 35.4531C26.7572 35.375 26.8879 35.2188 26.934 35.1016C26.9802 34.9844 26.9956 34.7812 26.9725 34.6484C26.9494 34.5234 26.8495 34.3438 26.7572 34.25C26.6572 34.1641 25.7115 33.5703 24.658 32.9375C23.5969 32.3047 22.6742 31.7109 22.5973 31.6172C22.5205 31.5234 22.4589 31.3594 22.4589 31.25C22.4589 31.1484 22.5435 30.9766 22.6358 30.8828C22.7357 30.7891 22.9049 30.7109 23.0202 30.7109C23.1663 30.7031 24.1429 31.2578 25.9037 32.3203C28.1028 33.6484 28.6334 33.9375 28.8717 33.9453C29.1101 33.9453 29.21 33.8984 29.3946 33.6953C29.5484 33.5156 29.6176 33.3594 29.6176 33.1641C29.6176 32.9766 29.5561 32.8281 29.4023 32.6641C29.2869 32.5391 27.5722 31.4609 25.5807 30.2734C23.5892 29.0781 21.8899 28.0547 21.79 28C21.6285 27.8984 21.6131 27.9141 21.3978 28.3047C21.2825 28.5312 21.0518 28.8281 20.898 28.9688C20.7442 29.1094 20.4751 29.2969 20.2906 29.3906C20.0753 29.5078 19.7754 29.5703 19.3909 29.5938C18.8835 29.625 18.7835 29.6094 18.5528 29.4453C18.4067 29.3438 18.2145 29.1641 18.1299 29.0391C17.9761 28.8281 17.9684 28.7266 17.9684 27.0078V25.1953C18.3837 24.3516 18.5144 24.0859 18.5221 24.0625C18.5374 24.0469 18.4606 23.9844 18.3529 23.9297C18.2453 23.875 17.9761 23.8359 17.7532 23.8359C17.461 23.8359 17.115 23.9375 16.4691 24.2031C15.6232 24.5469 15.5464 24.5625 14.8159 24.5703ZM9.74871 32.2812C9.33349 32.875 9.24122 33.0625 9.24122 33.3047C9.24122 33.5234 9.29504 33.6562 9.4719 33.8281C9.64106 34 9.77177 34.0625 9.97169 34.0625C10.1178 34.0625 10.3023 34.0312 10.3715 34C10.4484 33.9609 10.7252 33.625 10.9867 33.2578C11.2558 32.8828 11.4942 32.4844 11.5172 32.3672C11.548 32.2422 11.5249 32.0391 11.4634 31.8828C11.4019 31.7422 11.2635 31.5703 11.1404 31.5156C11.0251 31.4531 10.8559 31.4141 10.756 31.4141C10.6637 31.4141 10.5176 31.4453 10.4254 31.4844C10.3331 31.5234 10.0332 31.8828 9.74871 32.2812ZM12.3938 33.2734C11.6172 34.375 11.4788 34.6172 11.4711 34.8672C11.4711 35.0234 11.5018 35.2266 11.548 35.3125C11.5864 35.3984 11.7402 35.5312 11.8709 35.5938C12.0247 35.6719 12.2169 35.7031 12.3553 35.6797C12.4784 35.6484 12.6783 35.5312 12.7859 35.4141C12.8936 35.2969 13.3396 34.6875 13.7778 34.0625C14.3084 33.3047 14.5852 32.8438 14.6083 32.6562C14.639 32.4375 14.6006 32.3359 14.4237 32.1328C14.2699 31.9531 14.1162 31.8594 13.9316 31.8359C13.7855 31.8203 13.5856 31.8438 13.4857 31.8906C13.3934 31.9375 12.9013 32.5625 12.3938 33.2734ZM14.7236 34.75C14.3007 35.3359 13.8701 35.9609 13.7778 36.1328C13.6241 36.4141 13.6087 36.4844 13.6856 36.7422C13.7394 36.8984 13.8547 37.0859 13.947 37.1562C14.047 37.2188 14.2238 37.2734 14.3545 37.2812C14.4776 37.2891 14.6621 37.2656 14.7544 37.2422C14.8697 37.2109 15.2772 36.6953 15.8693 35.8438C16.6844 34.6797 16.8151 34.4609 16.8151 34.1953C16.8151 33.9531 16.7689 33.8516 16.5613 33.6719C16.3973 33.5156 16.2307 33.4375 16.0615 33.4375C15.9308 33.4375 15.7463 33.4922 15.654 33.5547C15.5694 33.625 15.1542 34.1562 14.7236 34.75ZM16.5613 36.8828C16.3383 37.2266 16.2384 37.4688 16.2384 37.6406C16.2384 37.8047 16.3153 37.9766 16.4614 38.1484C16.6459 38.3516 16.7459 38.3984 16.9919 38.3984C17.2149 38.3984 17.361 38.3438 17.5071 38.2031C17.6224 38.1016 17.8454 37.7969 18.0146 37.5391C18.2145 37.2344 18.3222 36.9844 18.3145 36.8203C18.3145 36.6406 18.2453 36.4922 18.0838 36.3281C17.9069 36.1484 17.7839 36.0938 17.5609 36.0938C17.3841 36.0938 17.1842 36.1562 17.0765 36.2422C16.9765 36.3203 16.7459 36.6094 16.5613 36.8828ZM4.40472 6.71875H14.393L14.5468 6.9375C14.639 7.05469 14.7082 7.19531 14.7005 7.25C14.7005 7.30469 14.6544 7.4375 14.6006 7.54688C14.5544 7.64844 14.4237 7.77344 14.3161 7.82031C14.1931 7.86719 12.3938 7.89062 4.45855 7.85156L4.274 7.64062C4.17405 7.52344 4.08946 7.35938 4.08178 7.28125C4.07409 7.19531 4.15098 7.03906 4.24325 6.92969L4.40472 6.71875ZM4.45855 10.7812H14.1162C23.6661 10.7812 23.7738 10.7812 23.9199 10.9375C24.0198 11.0312 24.0737 11.1953 24.0737 11.3672C24.0737 11.5703 24.0275 11.6797 23.8661 11.7969C23.6508 11.9531 23.5892 11.9531 14.1546 11.9531C8.93365 11.9531 4.58157 11.9219 4.47392 11.8906C4.37396 11.8594 4.24325 11.7344 4.18942 11.6172C4.12791 11.5 4.08946 11.3516 4.08946 11.2812C4.08946 11.2187 4.17405 11.0781 4.274 10.9688L4.45855 10.7812ZM14.07 14.375C23.5892 14.375 23.6508 14.375 23.8661 14.5312C24.0275 14.6484 24.0737 14.7578 24.0737 14.9609C24.0737 15.1328 24.0198 15.2969 23.9199 15.3906C23.7661 15.5469 23.6661 15.5469 4.46623 15.5469L4.26632 15.3359C4.09715 15.1641 4.0664 15.0703 4.11253 14.8828C4.1356 14.7578 4.23556 14.5859 4.32014 14.5156C4.47392 14.3828 5.0583 14.375 14.07 14.375Z" fill="#2984DE"/>
</svg>
