<svg width="40" height="40" viewBox="0 0 40 40" fill="none" xmlns="http://www.w3.org/2000/svg">
<path fill-rule="evenodd" clip-rule="evenodd" d="M19.9591 0C20.0892 0.00869565 20.2712 0.0521739 20.3752 0.113043C20.4706 0.173913 24.8827 4.07826 30.1703 8.7913C35.4579 13.513 39.8353 17.4696 39.8873 17.6C39.948 17.7217 40 17.913 40 18.0261C40 18.1304 39.9046 18.313 39.5493 18.6522L35.3192 18.6957V25L36.6107 27.3478L37.7983 28C38.4571 28.3565 39.0985 28.7391 39.2372 28.8522C39.4279 29 39.4799 29.1217 39.4799 29.3739C39.4799 29.6 39.4279 29.7565 39.2892 29.887C39.1765 29.9913 38.5351 30.3826 36.6194 31.4348L35.3192 33.7826V39.4783L34.8858 40H20.1065C6.1767 40 5.31855 39.9913 5.11051 39.8522C4.98916 39.7652 4.85047 39.5739 4.79846 39.4348C4.74645 39.2696 4.72044 35.3391 4.72044 18.6957H2.72676C1.59989 18.6957 0.637724 18.6609 0.516369 18.6087C0.395015 18.5565 0.221651 18.4087 0.126301 18.2609C-0.0123906 18.0522 -0.029727 17.9478 0.0396186 17.7217C0.100296 17.4957 1.25317 16.4261 11.0569 7.69565L10.2074 7.23478C9.73933 6.97391 9.28858 6.68696 9.2019 6.58261C9.11522 6.47826 9.04587 6.28696 9.05454 6.15652C9.05454 6.01739 9.14122 5.81739 9.24524 5.70435C9.35793 5.58261 10.008 5.17391 11.9584 4.08696L12.6345 2.85217C13.0072 2.16522 13.406 1.52174 13.5273 1.41739C13.64 1.30435 13.8394 1.21739 13.9694 1.21739C14.1081 1.21739 14.2988 1.27826 14.4028 1.34783C14.5155 1.41739 14.8362 1.93043 15.1223 2.47826C15.4083 3.02609 15.677 3.47826 15.7291 3.47826C15.7811 3.47826 16.5439 2.82609 17.4367 2.02609C18.3382 1.22609 19.2137 0.443478 19.3957 0.286957C19.5951 0.104348 19.8031 0 19.9591 0V0ZM16.8906 4.56522C16.8733 4.61739 17.2113 4.83478 17.6361 5.06957C18.0695 5.29565 18.4942 5.56522 18.5896 5.67826C18.6849 5.78261 18.7716 5.9913 18.7716 6.13043C18.7716 6.27826 18.7022 6.47826 18.6156 6.58261C18.5289 6.69565 17.8788 7.10435 17.168 7.49565L15.8764 8.21739C14.7929 10.2 14.4115 10.8435 14.3335 10.9217C14.2468 11 14.0561 11.0609 13.8567 11.0522C13.6574 11.0522 13.458 10.9913 13.3626 10.8957C13.2673 10.8087 12.9899 10.3478 12.7299 9.86957C12.4785 9.3913 12.2271 8.93913 12.1838 8.86957C12.1231 8.76522 11.1436 9.6 7.4856 12.8696L2.87412 17C5.07584 17.0696 5.7953 17.1304 5.88198 17.1739C5.96866 17.2261 6.09869 17.3652 6.15936 17.5043C6.26338 17.6957 6.28072 19.2783 6.28072 26.4348V35.1304H17.0293V29.0435L13.5187 29.0522C12.6865 28.6174 12.4958 28.4435 12.3051 28.1304L12.0451 27.713C11.9411 23.7739 11.889 23.1043 11.7157 22.087C11.5943 21.3913 11.3776 20.3565 11.2303 19.7826C11.0916 19.2087 10.8489 18.3826 10.6928 17.9565C10.5455 17.5304 10.3028 16.9217 10.1641 16.6087C10.0254 16.2957 9.75667 15.8261 9.57463 15.5652C9.3926 15.3043 9.21924 15 9.19323 14.8957C9.16723 14.7826 9.2019 14.5826 9.27125 14.4348C9.34059 14.287 9.47928 14.1391 9.57463 14.087C9.68732 14.0348 13.2153 14 19.6297 14H29.5115C29.9362 14.4261 30.0316 14.6174 30.0316 14.7652C30.0316 14.9043 29.8929 15.2087 29.6675 15.5217C29.4681 15.8087 29.1561 16.3565 28.9827 16.7391C28.8007 17.1217 28.5146 17.9043 28.3413 18.4783C28.1679 19.0522 27.9165 20.0348 27.7778 20.6522C27.6392 21.2696 27.4658 22.2348 27.3878 22.7826C27.3011 23.3304 27.2144 24.687 27.1797 25.7826C27.1277 27.7217 27.1191 27.7913 26.911 28.1217C26.7897 28.313 26.573 28.5478 26.4343 28.6522C26.2956 28.7565 26.0355 28.887 25.8708 28.9478C25.6975 29 25.03 29.0435 24.2846 29.0435H23.0103V35.1304H33.6722V33.6957L32.4153 31.4C30.1529 30.1565 29.6935 29.8522 29.6155 29.6957C29.5635 29.5739 29.5115 29.4174 29.5115 29.3478C29.5115 29.2783 29.5548 29.1304 29.5982 29.0261C29.6502 28.8957 30.1876 28.5478 31.0544 28.0609L32.4153 27.2957L33.6722 24.9565V17.5652C34.097 17.1304 34.123 17.1304 35.4925 17.1304C36.2553 17.1304 36.8794 17.1043 36.8794 17.0696C36.8794 17.0261 33.0828 13.6087 28.428 9.46087C23.7818 5.30435 19.9245 1.91304 19.8638 1.92174C19.8118 1.92174 19.1183 2.49565 18.3382 3.2C17.558 3.90435 16.8993 4.52174 16.8906 4.56522ZM12.7992 5.37391C12.6692 5.46087 12.2878 5.68696 11.9584 5.86957L11.3516 6.2C12.1404 6.61739 12.5305 6.86087 12.7212 7C12.9552 7.17391 13.2066 7.50435 13.4667 7.98261C13.6834 8.37391 13.8827 8.69565 13.9087 8.69565C13.9347 8.69565 14.1428 8.33913 14.3855 7.90435L14.8189 7.11304C16.0238 6.43478 16.3878 6.22609 16.3965 6.2087C16.4138 6.1913 16.1625 6.03478 15.8331 5.85217C15.5123 5.67826 15.1396 5.45217 14.9923 5.34783C14.8449 5.24348 14.5849 4.88696 14.4115 4.55652C14.2381 4.22609 14.0388 3.88696 13.9781 3.8087C13.8741 3.66957 13.822 3.73913 13.4493 4.43478C13.2153 4.88696 12.9379 5.28696 12.7992 5.37391ZM11.5597 15.9826C11.655 16.1565 11.8284 16.5826 11.9584 16.913C12.0797 17.2522 12.3051 17.9304 12.4438 18.4348C12.5912 18.9391 12.8252 19.8783 12.9552 20.5217C13.0939 21.1652 13.2499 22.0261 13.302 22.4348C13.354 22.8435 13.4146 23.2609 13.4406 23.3739L13.4753 23.5652C22.9497 23.5652 25.6975 23.5391 25.6975 23.5043C25.6975 23.4609 25.7755 22.9217 25.8622 22.3043C25.9575 21.687 26.1396 20.7043 26.2696 20.1304C26.3909 19.5565 26.625 18.6435 26.7897 18.113C26.9544 17.5739 27.2404 16.7739 27.4311 16.3478L27.7778 15.5652H25.6975C25.3594 16.1043 25.134 16.5826 24.9693 16.9826C24.8047 17.3739 24.5099 18.2261 24.3192 18.8696C24.0679 19.713 23.9118 20.087 23.7731 20.2C23.6604 20.287 23.4871 20.3565 23.3744 20.3478C23.2704 20.3478 23.0623 20.287 22.9237 20.2174C22.785 20.1478 22.6376 20 22.6116 19.8957C22.5769 19.7826 22.5509 19.6 22.5596 19.4783C22.5596 19.3565 22.7243 18.7565 22.9323 18.1304C23.1317 17.513 23.4264 16.687 23.5824 16.3043C23.7471 15.9217 23.8772 15.6 23.8772 15.5913C23.8772 15.5739 23.097 15.5652 22.1435 15.5652H20.4099C20.4099 18.8957 20.4012 18.9652 20.2105 19.1739C20.1065 19.2957 19.8811 19.4261 19.7164 19.4522C19.4564 19.5043 19.3784 19.4696 19.127 19.2348L18.8496 18.9565V15.5652C16.1625 15.5652 15.3823 15.5826 15.3823 15.6087C15.3823 15.6348 15.5384 16.0348 15.7204 16.5043C15.9111 16.9652 16.2145 17.8348 16.3878 18.4348C16.6912 19.4435 16.6999 19.5391 16.5872 19.8174C16.5179 19.9739 16.3618 20.1652 16.2231 20.2261C16.0931 20.2957 15.9111 20.3478 15.8157 20.3478C15.7204 20.3478 15.547 20.2609 15.4257 20.1565C15.261 20.0087 15.1223 19.6696 14.8622 18.7826C14.6802 18.1391 14.4115 17.3391 14.2728 17C14.1254 16.6696 13.9001 16.2087 13.77 15.9739L13.5187 15.5652C11.8717 15.5652 11.395 15.5826 11.395 15.6087C11.395 15.6348 11.473 15.8 11.5597 15.9826ZM13.6053 27.4348C24.0505 27.4696 25.4201 27.4522 25.5068 27.3652C25.5848 27.287 25.6195 26.9565 25.6108 26.2V25.1304H13.5533L13.6053 27.4348ZM33.5162 28.3739C33.4382 28.4609 33.0481 28.7043 32.658 28.9217C32.268 29.1304 31.9386 29.3217 31.9386 29.3478C31.9386 29.3739 32.268 29.5652 32.658 29.7739C33.0481 29.9913 33.4382 30.2348 33.5162 30.3217C33.5942 30.4087 33.8196 30.7826 34.0189 31.1565C34.2096 31.5217 34.4003 31.8261 34.435 31.8261C34.4697 31.8261 34.6517 31.5478 34.8338 31.2C35.0245 30.8522 35.2585 30.4783 35.3538 30.3652C35.4579 30.2522 35.8653 29.9826 36.2553 29.7739C36.6454 29.5652 36.9661 29.3739 36.9661 29.3478C36.9661 29.3217 36.6107 29.113 36.1687 28.8783L35.3625 28.4522C34.6951 27.2261 34.4697 26.8696 34.4437 26.8696C34.409 26.8696 34.2183 27.1739 34.0189 27.5478C33.8196 27.913 33.5942 28.287 33.5162 28.3739ZM18.5029 35.1304H21.4501V29.0435H18.5029V35.1304ZM6.28072 38.4348H33.6722V36.6957H6.28072V38.4348Z" fill="#2984DE"/>
</svg>
