<svg width="40" height="41" viewBox="0 0 40 41" fill="none" xmlns="http://www.w3.org/2000/svg">
<path fill-rule="evenodd" clip-rule="evenodd" d="M13.2488 0.0157818C14.4282 0.0324522 15.5182 0.107469 16.0957 0.190821C16.6081 0.265838 17.4541 0.424207 17.9665 0.5409C18.4789 0.665928 19.211 0.874308 19.5933 1.00767C19.9756 1.14937 20.5612 1.39943 20.8947 1.5828C21.2282 1.75784 21.7244 2.08291 21.9847 2.29963C22.2531 2.51634 22.5947 2.88309 22.7411 3.11648C22.8957 3.34153 23.0502 3.6666 23.0909 3.82497C23.1397 4.00001 23.1722 7.20073 23.1722 19.1618L23.4325 19.1201C23.5789 19.1034 24.0507 19.0451 24.4737 18.9951C24.8967 18.945 25.9947 18.9034 26.9139 18.9034C27.833 18.9034 28.9311 18.945 29.3541 18.9951C29.777 19.0451 30.3627 19.1201 30.6555 19.1701C30.9483 19.2201 31.6234 19.3701 32.1603 19.5118C32.6971 19.6535 33.4699 19.9036 33.8684 20.0703C34.2751 20.237 34.8201 20.5037 35.0804 20.6621C35.3488 20.8205 35.7799 21.1622 36.0483 21.4123C36.3737 21.729 36.6014 22.0374 37 22.9126L36.9593 35.6238L36.7641 36.0406C36.6502 36.2656 36.3411 36.6824 36.0646 36.9574C35.723 37.2992 35.3163 37.5909 34.7632 37.891C34.3158 38.1244 33.6163 38.4328 33.2177 38.5745C32.8191 38.7162 32.0627 38.9162 31.5502 39.0329C31.0378 39.1496 30.0861 39.2996 29.4354 39.383C28.5163 39.4913 27.833 39.508 26.3445 39.4747C25.1976 39.4496 24.0914 39.3746 23.5789 39.2913C23.1072 39.2163 22.4239 39.0829 21.3828 38.8328L20.8703 39.1996C20.5938 39.3996 20.0651 39.7164 19.6909 39.9081C19.3249 40.0915 18.7555 40.3415 18.4301 40.4499C18.1129 40.5582 17.4785 40.7333 17.0311 40.825C16.478 40.9417 15.9167 41 15.2823 41C14.5909 41 14.111 40.95 13.4522 40.8C12.956 40.6916 12.2809 40.4916 11.9474 40.3749C11.6139 40.2498 11.1177 40.0331 10.8493 39.8914C10.5809 39.7581 10.0847 39.458 9.7512 39.2246C9.4177 38.9912 8.79139 38.4494 8.36029 38.0077C7.91292 37.5492 7.38421 36.9074 7.12392 36.499C6.8799 36.1072 6.58708 35.5988 6.47321 35.3737C6.36746 35.1487 6.16411 34.6402 6.02584 34.2485C5.89569 33.8567 5.72488 33.2233 5.65981 32.8315C5.5866 32.4397 5.50526 31.8646 5.42392 30.9561L4.93589 30.6643C4.66746 30.506 4.22823 30.1642 3.95981 29.9142C3.61818 29.5974 3.39856 29.2974 3 28.4138L3.04067 3.95L3.22775 3.53324C3.33349 3.30819 3.58565 2.9331 3.79713 2.70805C4.00861 2.483 4.41531 2.14126 4.70813 1.94955C5.00096 1.74951 5.42392 1.50778 5.64354 1.40776C5.86316 1.30774 6.41627 1.09102 6.86364 0.94099C7.311 0.782621 8.11627 0.565906 8.65311 0.449213C9.18995 0.340855 9.99521 0.207492 10.4426 0.15748C10.89 0.0991339 11.2722 0.0407874 11.2966 0.0157818C11.3211 -0.00088861 12.1995 -0.00922382 13.2488 0.0157818ZM10.1986 1.20772C9.61292 1.28273 8.71818 1.44944 8.20574 1.5828C7.6933 1.70783 6.94498 1.95789 6.53828 2.11625C6.13158 2.28296 5.60287 2.54969 5.35885 2.69972C5.11483 2.84975 4.75694 3.14148 4.56172 3.33319C4.36651 3.53324 4.15502 3.86665 4.08182 4.07503C3.96794 4.39177 3.96794 4.50012 4.04928 4.78352C4.12249 5.00857 4.3177 5.2753 4.6512 5.60871C4.97655 5.92544 5.38325 6.20884 5.80622 6.41722C6.16411 6.59226 6.73349 6.83398 7.06699 6.95067C7.40048 7.06737 8.05933 7.25074 8.5311 7.3591C9.00287 7.46746 9.71866 7.60916 10.1172 7.67584C10.6053 7.74252 11.6464 7.7842 13.2081 7.7842C15.3148 7.7842 15.6809 7.75919 16.6244 7.58415C17.21 7.47579 18.0641 7.28408 18.5359 7.15072C19.0077 7.00902 19.7885 6.70062 20.2847 6.4589C20.8622 6.16717 21.3177 5.87543 21.5699 5.62538C21.7813 5.417 22.0091 5.10859 22.0742 4.95022C22.1392 4.79186 22.1962 4.55014 22.1962 4.40844C22.1962 4.27507 22.1311 4.01668 22.0416 3.84164C21.9603 3.67494 21.7163 3.37487 21.4966 3.17483C21.277 2.97478 20.8215 2.66638 20.488 2.49134C20.1545 2.3163 19.4957 2.04124 19.0239 1.88287C18.5522 1.7245 17.7876 1.51612 17.3158 1.4161C16.844 1.32441 16.1526 1.20772 15.7703 1.15771C15.388 1.10769 14.3794 1.05768 13.5335 1.04101C12.6876 1.02434 11.8254 1.02434 11.622 1.04101C11.4187 1.05768 10.7842 1.1327 10.1986 1.20772ZM20.8947 7.28408C20.5124 7.48413 19.8211 7.77586 19.3493 7.93423C18.8775 8.0926 18.1129 8.30931 17.6411 8.401C17.1694 8.50102 16.2909 8.64272 15.689 8.71774C14.8593 8.80943 14.1029 8.83443 12.5574 8.80109C11.2641 8.77609 10.2311 8.7094 9.71053 8.62605C9.26316 8.55103 8.57177 8.40934 8.16507 8.30931C7.75837 8.21763 7.06699 8.00925 6.61962 7.85088C6.17225 7.69251 5.65981 7.48413 5.48086 7.39244C5.30191 7.30075 4.91962 7.05903 4.62679 6.85899C4.33397 6.65894 4.07368 6.50057 4.03301 6.49224C4.00048 6.49224 3.97608 6.94234 3.97608 7.49246C3.97608 8.20929 4.00861 8.58438 4.10622 8.80109C4.17129 8.97613 4.34211 9.24286 4.48852 9.40123C4.63493 9.55126 4.95215 9.81799 5.19617 9.98469C5.44019 10.1597 5.66794 10.3598 5.70861 10.4348C5.74115 10.5098 5.76555 10.6348 5.76555 10.7015C5.76555 10.7682 5.69234 10.9016 5.60287 10.9933C5.5134 11.0849 5.37512 11.16 5.29378 11.16C5.22057 11.16 4.91148 10.9933 4.61053 10.7849C4.30144 10.5765 4.04115 10.4098 4.01675 10.4098C3.99234 10.4098 3.97608 10.8682 3.97608 11.4267C3.97608 12.2352 4.00861 12.5186 4.13062 12.7853C4.21196 12.9687 4.42344 13.2604 4.59426 13.4355C4.76507 13.6105 5.14737 13.8939 5.44019 14.0689C5.73301 14.244 6.22919 14.494 6.53828 14.6191C6.84737 14.7441 7.41675 14.9441 7.79904 15.0525C8.18134 15.1609 8.9134 15.3192 9.42584 15.4109C9.93828 15.5026 10.9876 15.6276 11.744 15.6776C12.8014 15.7527 13.444 15.7527 14.4689 15.6776C15.2091 15.6276 16.2665 15.5026 16.8278 15.4026C17.389 15.3026 18.2105 15.1108 18.6579 14.9775C19.1053 14.8441 19.7804 14.5857 20.1627 14.4024C20.545 14.219 21.0493 13.9189 21.2852 13.7355C21.5129 13.5605 21.822 13.2354 21.9522 13.0104C22.1962 12.627 22.1962 12.6019 22.1962 11.51C22.1962 10.9099 22.1799 10.4098 22.1555 10.4098C22.1311 10.4098 21.9766 10.5181 21.8057 10.6515C21.6431 10.7849 21.212 11.0516 20.8541 11.235C20.4962 11.4267 19.8129 11.7101 19.3249 11.8684C18.845 12.0268 18.0072 12.2519 17.4622 12.3602C16.9091 12.4769 16.0794 12.6103 15.6077 12.6686C15.1359 12.727 13.989 12.7687 13.0455 12.7687C11.9067 12.7687 10.9876 12.7186 10.2799 12.627C9.69426 12.5436 9.14115 12.4269 9.03541 12.3602C8.92153 12.2852 8.85646 12.1602 8.85646 12.0101C8.84833 11.8851 8.92966 11.7101 9.02727 11.6184C9.18995 11.46 9.23062 11.46 9.85694 11.5517C10.223 11.6101 11.0933 11.7017 11.7847 11.7518C12.6713 11.8101 13.444 11.8101 14.3876 11.7518C15.1278 11.7017 16.1852 11.5851 16.7464 11.485C17.3077 11.385 18.0722 11.2183 18.4545 11.1016C18.8368 10.9933 19.4388 10.7765 19.7966 10.6348C20.1545 10.4931 20.7239 10.1847 21.0574 9.95135C21.4641 9.67629 21.7569 9.38456 21.9359 9.11783L22.2043 8.70107C22.1962 6.92567 22.188 6.40889 22.1799 6.40889C22.1636 6.41722 22.0254 6.52558 21.8708 6.66728C21.7163 6.80064 21.277 7.0757 20.8947 7.28408ZM3.98421 15.5609C4.01675 16.4862 4.03301 16.5778 4.26077 16.9529C4.43158 17.2363 4.7 17.4947 5.11483 17.7864C5.44833 18.0198 6.10718 18.3699 6.57895 18.5533C7.05072 18.745 7.74211 18.97 8.1244 19.0701C8.5067 19.1618 9.12488 19.2951 9.50718 19.3618C9.88947 19.4285 10.711 19.5285 11.3373 19.5868C12.0124 19.6452 13.0211 19.6619 13.8182 19.6369C14.5584 19.6035 15.4694 19.5452 15.8517 19.4952C16.234 19.4452 16.9091 19.3285 17.3565 19.2368C17.8038 19.1451 18.5196 18.9534 18.9426 18.8117C19.3655 18.6783 20.0244 18.3949 20.4067 18.2032C20.789 18.0032 21.277 17.6781 21.4966 17.478C21.7163 17.278 21.9603 16.9779 22.0416 16.8029C22.1718 16.5445 22.1962 16.3278 22.1799 15.4192L22.1555 14.344C21.2689 14.9525 20.6914 15.2692 20.2847 15.4443C19.8861 15.611 19.1703 15.8693 18.6986 16.0027C18.2268 16.1361 17.4053 16.3194 16.8684 16.4111C16.3316 16.5028 15.2742 16.6279 14.5096 16.6779C13.4359 16.7529 12.8014 16.7529 11.6627 16.6695C10.8574 16.6195 9.81627 16.5028 9.3445 16.4111C8.87273 16.3278 8.25455 16.2028 7.96172 16.1277C7.6689 16.0444 7.14019 15.886 6.7823 15.7693C6.4244 15.6526 5.83876 15.4026 5.48086 15.2192C5.12297 15.0442 4.65933 14.7608 4.43971 14.6107C4.13876 14.3857 4.04928 14.3523 4.00861 14.444C3.97608 14.5107 3.96794 15.0108 3.98421 15.5609ZM3.95981 19.2784C3.96794 19.7869 4.01675 20.3537 4.06555 20.5371C4.13062 20.7538 4.30957 21.0205 4.57799 21.2872C4.83014 21.5456 5.27751 21.8624 5.72488 22.0957C6.13158 22.3041 6.8067 22.5875 7.22966 22.7292C7.65263 22.8709 8.22201 23.0293 8.49043 23.0876L8.97847 23.1877C9.8 22.5542 10.3694 22.1958 10.7679 21.9791C11.1746 21.7707 11.7603 21.5039 12.0694 21.3873C12.3866 21.2789 12.9478 21.1122 13.3301 21.0288C13.8263 20.9205 14.3713 20.8788 15.2823 20.8705C16.2258 20.8705 16.722 20.9121 17.2344 21.0288L17.9258 21.1872C18.5603 20.7538 19.0727 20.4704 19.4713 20.2787C19.878 20.0786 20.5856 19.8119 21.0574 19.6702C21.5292 19.5285 21.9766 19.4118 22.0579 19.4118C22.1799 19.4118 22.1962 19.3285 22.1962 18.8283V18.2449C21.4722 18.745 21.0411 19.0034 20.7727 19.1451C20.5043 19.2784 19.9593 19.5118 19.5526 19.6535C19.1541 19.8036 18.5115 19.9953 18.1292 20.087C17.7469 20.1786 16.966 20.3287 16.3804 20.4204C15.8029 20.5121 14.6804 20.6037 13.8995 20.6371C13.0536 20.6621 12.0124 20.6454 11.3373 20.5871C10.711 20.5371 9.8488 20.437 9.42584 20.362C9.00287 20.2953 8.23828 20.1286 7.74211 19.9869C7.2378 19.8536 6.53828 19.6285 6.19665 19.4868C5.84689 19.3451 5.34258 19.1117 5.07416 18.9534C4.80574 18.8033 4.47225 18.5866 4.33397 18.4616C4.18756 18.3449 4.04928 18.2699 4.00861 18.3032C3.97608 18.3282 3.95167 18.77 3.95981 19.2784ZM23.6196 20.112C23.1722 20.187 22.4239 20.3454 21.9522 20.462C21.4804 20.5787 20.7727 20.8038 20.366 20.9705C19.9675 21.1372 19.512 21.3456 19.3737 21.4289L19.1053 21.579C20.0163 22.0624 20.488 22.3458 20.7321 22.5125C20.9761 22.6792 21.4397 23.0376 21.7488 23.3127C22.066 23.5794 22.5703 24.1129 22.8713 24.5046C23.1722 24.888 23.5952 25.5132 23.8067 25.8883L24.189 26.5634C25.1325 26.6718 26.1249 26.7051 26.9952 26.6968C27.8655 26.6968 28.9636 26.6468 29.4354 26.5884C29.9072 26.5301 30.6555 26.4051 31.1029 26.3134C31.5502 26.2217 32.266 26.0383 32.689 25.8966C33.112 25.7632 33.7708 25.4882 34.1531 25.2965C34.5679 25.0881 35.0234 24.7797 35.3163 24.4963C35.6335 24.1879 35.8287 23.9128 35.9182 23.6628C36.0321 23.346 36.0321 23.2377 35.9507 22.9543C35.8856 22.7376 35.6742 22.4542 35.3651 22.1374C35.0234 21.804 34.6655 21.554 34.1368 21.2872C33.722 21.0872 33.0876 20.8205 32.7297 20.7038C32.3718 20.5871 31.6397 20.3954 31.1029 20.287C30.566 20.1786 29.7445 20.0453 29.2727 20.0036C28.801 19.9536 28.0364 19.9036 27.5646 19.8953C27.0928 19.8786 26.1981 19.8869 25.5718 19.9203C24.9455 19.9536 24.067 20.0453 23.6196 20.112ZM12.8014 22.2041C12.533 22.2791 12.0612 22.4542 11.744 22.5959C11.4349 22.7292 10.8249 23.0793 10.4019 23.3627C9.97895 23.6544 9.57225 23.9545 9.50718 24.0295C9.3933 24.1545 9.40957 24.1962 9.64545 24.4379C9.79187 24.588 9.91388 24.788 9.91388 24.888C9.91388 24.9964 9.84067 25.1548 9.7512 25.2465C9.66172 25.3381 9.51531 25.4132 9.42584 25.4132C9.33636 25.4132 9.13301 25.2965 8.97847 25.1631C8.78868 24.9964 8.66124 24.9381 8.59617 24.9881C8.53923 25.0297 8.30335 25.3381 8.0756 25.6716C7.84785 26.0133 7.53876 26.5217 7.40048 26.8051C7.2622 27.0969 7.07512 27.5303 6.99378 27.7637C6.90431 28.0054 6.77416 28.4305 6.70909 28.7056C6.64402 28.9806 6.55455 29.4807 6.52201 29.8058L6.45694 30.4143C7.06699 30.406 7.2378 30.456 7.32727 30.556C7.40861 30.6393 7.47368 30.806 7.47368 30.9311C7.47368 31.0811 7.40861 31.2061 7.29474 31.2895C7.18899 31.3562 6.96124 31.4145 6.7823 31.4145H6.45694C6.55455 32.3481 6.67655 32.9649 6.79043 33.3733C6.89617 33.7817 7.14833 34.4652 7.34354 34.8736C7.53876 35.282 7.90478 35.9155 8.15694 36.2656C8.40909 36.624 8.63684 36.9157 8.67751 36.9157C8.71005 36.9074 8.85646 36.7991 9.00287 36.6657C9.14115 36.524 9.33636 36.4156 9.42584 36.4156C9.51531 36.4156 9.66172 36.4907 9.7512 36.5823C9.84067 36.674 9.91388 36.8324 9.91388 36.9324C9.91388 37.0408 9.80813 37.2408 9.66986 37.3742C9.53158 37.5075 9.42584 37.6492 9.42584 37.6826C9.42584 37.7243 9.65359 37.9243 9.93828 38.1327C10.2148 38.3411 10.6785 38.6495 10.9713 38.8162C11.2641 38.9829 11.7359 39.2163 12.0287 39.3413C12.3215 39.458 12.9072 39.6414 13.3301 39.733C13.7531 39.8331 14.2574 39.9248 14.4526 39.9498L14.7943 39.9998C14.7943 39.358 14.8431 39.1996 14.9569 39.0829C15.0464 38.9912 15.201 38.9162 15.3067 38.9162C15.4043 38.9079 15.5507 38.9745 15.6239 39.0579C15.7215 39.1579 15.7703 39.3413 15.7703 39.5997V39.9998C16.3072 39.9248 16.7545 39.8497 17.1124 39.7831C17.4703 39.708 18.0967 39.5247 18.4952 39.3663C18.9019 39.1996 19.5038 38.9079 19.8373 38.6995C20.1708 38.4994 20.61 38.1827 20.8134 38.0077L21.1794 37.6826C20.8541 37.3158 20.7321 37.1408 20.6995 37.0574C20.6751 36.9824 20.6914 36.8324 20.7402 36.724C20.7971 36.624 20.8785 36.5157 20.9273 36.4823C20.9761 36.449 21.09 36.4156 21.1794 36.4156C21.2689 36.4156 21.4641 36.5407 21.6105 36.6907L21.8871 36.9574C22.3263 36.4406 22.6354 35.9905 22.855 35.6238C23.0746 35.257 23.3675 34.6569 23.5057 34.2902C23.644 33.9234 23.823 33.3649 23.9043 33.0399C23.9856 32.7148 24.067 32.223 24.0995 31.9313L24.1483 31.4145C23.522 31.4145 23.3675 31.3645 23.2536 31.2478C23.1641 31.1561 23.0909 31.0061 23.0909 30.9144C23.0909 30.8227 23.1641 30.6727 23.2536 30.581C23.3675 30.4643 23.522 30.4143 23.7823 30.4143H24.1483C24.0751 29.6058 23.9612 29.014 23.8474 28.5805C23.7416 28.1471 23.5139 27.4886 23.3431 27.1219C23.1804 26.7551 22.855 26.1717 22.6273 25.8299C22.3995 25.4882 22.1392 25.1298 22.0498 25.0381L21.8789 24.8714C21.4316 25.2881 21.2445 25.4132 21.1794 25.4132C21.1144 25.4132 20.9679 25.3215 20.8541 25.2048C20.7402 25.0881 20.6507 24.9381 20.6507 24.8714C20.6507 24.8047 20.7727 24.613 20.9191 24.4546L21.1794 24.1545C20.9273 23.8878 20.6019 23.6294 20.2847 23.4127C19.9756 23.196 19.5364 22.9209 19.3086 22.8126C19.089 22.6959 18.5766 22.4792 18.1699 22.3375C17.7713 22.1874 17.1124 22.0207 16.7057 21.9541C16.3072 21.8874 15.9249 21.829 15.8761 21.829C15.8056 21.829 15.7703 21.9679 15.7703 22.2458C15.7703 22.5875 15.7378 22.6875 15.5914 22.7876C15.4856 22.8543 15.3392 22.9126 15.266 22.9126C15.1847 22.9126 15.0464 22.8376 14.9569 22.7459C14.8431 22.6292 14.7943 22.4708 14.7943 22.2041C14.7943 21.8707 14.778 21.829 14.6153 21.8374C14.5096 21.8374 14.1761 21.8957 13.8589 21.9457C13.5498 22.0041 13.0699 22.1208 12.8014 22.2041ZM3.98421 23.4461C4.01675 24.4379 4.02488 24.4963 4.2689 24.8464C4.39904 25.0381 4.69187 25.3465 4.91962 25.5132C5.13923 25.6882 5.57847 25.9633 5.88756 26.1217C6.4 26.38 6.46507 26.3967 6.53828 26.28C6.58708 26.205 6.79856 25.8549 7.01818 25.5048C7.2378 25.1548 7.56316 24.688 7.75024 24.4713C7.92919 24.2546 8.06746 24.0629 8.04306 24.0462C8.01866 24.0379 7.6201 23.9045 7.14832 23.7545C6.67655 23.6044 5.9689 23.321 5.5622 23.121C5.16364 22.9293 4.65933 22.6292 4.43971 22.4625C4.13062 22.2208 4.04115 22.1874 4.00048 22.2875C3.96794 22.3541 3.95981 22.8793 3.98421 23.4461ZM34.5598 26.205C34.1775 26.3967 33.5105 26.6801 33.0794 26.8218C32.6402 26.9635 31.8349 27.1719 31.2899 27.2802C30.7368 27.3969 29.9234 27.5303 29.4761 27.5887C29.0287 27.647 27.7679 27.697 26.6536 27.7053C24.9048 27.7053 24.6445 27.722 24.677 27.8304C24.6933 27.8971 24.7665 28.1805 24.8397 28.4555C24.9129 28.7306 25.0105 29.3224 25.0675 29.7641L25.1651 30.5727C25.9866 30.6643 26.8244 30.6643 27.5646 30.6393C28.3048 30.6143 29.2158 30.5476 29.5981 30.4976C29.9804 30.4476 30.6718 30.3309 31.1435 30.2392C31.6153 30.1392 32.3311 29.9475 32.7297 29.8141C33.1364 29.6808 33.722 29.4474 34.0311 29.2974C34.3483 29.1473 34.8201 28.8556 35.0885 28.6556C35.4464 28.3805 35.6335 28.1638 35.8043 27.8304C36.0077 27.4136 36.0239 27.2886 36.0321 26.3967C36.0402 25.8633 36.0077 25.4048 35.967 25.3882C35.9263 25.3715 35.7474 25.4632 35.5684 25.5965C35.3976 25.7382 34.9421 26.005 34.5598 26.205ZM4.08182 28.4305C4.14689 28.5805 4.3177 28.8556 4.47225 29.0306C4.62679 29.2057 4.90335 29.4641 5.09856 29.5891C5.28565 29.7225 5.45646 29.8225 5.47273 29.8058C5.489 29.7975 5.5622 29.4724 5.63541 29.0807C5.70048 28.6889 5.83876 28.1471 5.92823 27.872C6.0177 27.597 6.09091 27.3636 6.09091 27.3469C6.09091 27.3386 5.78995 27.1802 5.42392 26.9885C5.04976 26.7968 4.60239 26.5384 4.42344 26.4051C4.2445 26.2717 4.07368 26.1633 4.04115 26.1633C4.00048 26.1633 3.97608 26.6134 3.97608 27.1636C3.97608 27.8054 4.01675 28.2638 4.08182 28.4305ZM34.9258 29.9559C34.6574 30.1059 34.145 30.3559 33.7871 30.4976C33.4292 30.6393 32.7378 30.8727 32.2416 30.9978C31.7536 31.1311 30.8182 31.3228 30.1675 31.4228C29.2239 31.5729 28.6057 31.6062 27.0603 31.6146L25.1244 31.6229C25.0593 32.2064 24.9455 32.7648 24.8316 33.2483C24.7177 33.7317 24.6038 34.2068 24.5876 34.3068C24.555 34.4902 24.5794 34.4985 25.3522 34.5485C25.7833 34.5819 26.8163 34.5819 27.6459 34.5569C28.4756 34.5319 29.533 34.4485 30.0048 34.3735C30.4766 34.3068 31.1679 34.1735 31.5502 34.0818C31.9325 33.9901 32.5344 33.8151 32.8923 33.6984C33.2502 33.5733 33.8684 33.3066 34.2751 33.0899C34.7062 32.8648 35.178 32.5314 35.422 32.2897C35.6904 32.023 35.8694 31.7563 35.9344 31.5395C35.9833 31.3562 36.0239 30.7894 36.0321 30.2726C36.0402 29.7558 36.0077 29.3224 35.967 29.3057C35.9182 29.2807 35.7799 29.3557 35.6498 29.4641C35.5196 29.5808 35.1943 29.7975 34.9258 29.9559ZM34.7225 33.9901C34.389 34.1735 33.7464 34.4485 33.299 34.6069C32.8517 34.7653 32.0464 34.9903 31.5096 35.107C30.9727 35.2237 30.1512 35.3654 29.6794 35.4321C29.1995 35.4904 27.9957 35.5404 26.9139 35.5404C25.8646 35.5404 24.799 35.5154 24.555 35.4821L24.1077 35.4237C23.4163 36.5907 23.0177 37.1491 22.79 37.4242C22.5541 37.6909 22.3589 37.941 22.3589 37.9743C22.3589 38.016 22.5134 38.0743 22.7005 38.1077C22.8957 38.1494 23.3837 38.2327 23.7823 38.3077C24.189 38.3744 25.2871 38.4494 26.2225 38.4744C27.2799 38.5078 28.3373 38.4828 28.988 38.4244C29.5737 38.3661 30.4847 38.2327 31.0215 38.1244C31.5584 38.016 32.3474 37.8076 32.7703 37.6659C33.1933 37.5242 33.8033 37.2825 34.1124 37.1241C34.4297 36.9574 34.8608 36.6907 35.0804 36.5157C35.3081 36.349 35.601 36.0406 35.7311 35.8488C35.9751 35.4904 35.9832 35.4571 36.0077 34.3902C36.0239 33.7817 35.9995 33.2649 35.967 33.2316C35.9263 33.2066 35.7636 33.2899 35.6172 33.4233C35.4627 33.5567 35.056 33.8151 34.7225 33.9901ZM12.5981 2.09125C13.0292 2.07458 13.2651 2.10792 13.3952 2.19961C13.5091 2.27462 13.5742 2.40799 13.5742 2.54969C13.5823 2.68305 13.5172 2.84142 13.4359 2.91643C13.322 3.02479 13.0373 3.06647 12.2321 3.10814C11.6545 3.14148 10.7923 3.22484 10.3206 3.29152C9.8488 3.3582 9.14115 3.49156 8.73445 3.58325C8.06746 3.73328 7.98612 3.74162 7.82344 3.62493C7.70957 3.54157 7.63636 3.39988 7.63636 3.25818C7.62823 3.13315 7.6933 2.96645 7.77464 2.89143C7.85598 2.81641 8.23014 2.67471 8.61244 2.58303C8.99474 2.49134 9.72679 2.35798 10.2392 2.29129C10.7517 2.21628 11.3617 2.1496 11.5813 2.13292C11.8091 2.11625 12.2646 2.09958 12.5981 2.09125ZM6.45694 3.45822C6.54641 3.48323 6.66842 3.56658 6.72536 3.64993C6.7823 3.72495 6.82297 3.86665 6.82297 3.96667C6.82297 4.10003 6.68469 4.2584 6.3756 4.49179C6.13158 4.67516 5.91196 4.85854 5.88756 4.90855C5.86316 4.95022 5.72488 4.9919 5.5866 4.9919C5.44019 4.9919 5.26938 4.95022 5.21244 4.89188C5.1555 4.83353 5.11483 4.67516 5.11483 4.53346C5.11483 4.36676 5.18804 4.20839 5.33445 4.05836C5.46459 3.93333 5.72488 3.74162 5.92823 3.62493C6.14785 3.49156 6.35933 3.43322 6.45694 3.45822ZM15.4856 23.6128C16.1201 23.6378 16.7545 23.7044 17.0718 23.7878C17.3646 23.8711 17.9096 24.0795 18.2919 24.2629C18.6742 24.4463 19.2029 24.7547 19.4713 24.9464C19.7397 25.1464 20.2196 25.5882 20.5287 25.9299C20.8459 26.28 21.2201 26.7635 21.3584 27.0052C21.5048 27.2552 21.7488 27.7554 21.9033 28.1221C22.0579 28.4889 22.245 29.0807 22.31 29.4307C22.3833 29.7891 22.4402 30.456 22.4402 30.9144C22.4402 31.3728 22.3833 31.998 22.3182 32.3064C22.2612 32.6231 22.1311 33.0816 22.0498 33.3316C21.9603 33.5817 21.8139 33.9484 21.7163 34.1401C21.6268 34.3402 21.4722 34.5319 21.3828 34.5819C21.2689 34.6402 21.155 34.6319 21.0005 34.5569C20.8378 34.4819 20.7646 34.3818 20.7483 34.2068C20.7321 34.0651 20.8215 33.7317 20.9598 33.415C21.0981 33.1149 21.2689 32.5731 21.3421 32.2064C21.456 31.6896 21.4804 31.3228 21.4397 30.581C21.4153 29.9725 21.334 29.4391 21.2364 29.1223C21.1469 28.8473 21.0086 28.4722 20.9354 28.2888C20.8541 28.1054 20.667 27.747 20.5124 27.497C20.3579 27.2469 20 26.7968 19.7316 26.5051C19.455 26.2133 18.9914 25.8133 18.6986 25.6215C18.4057 25.4215 17.9909 25.1798 17.7632 25.0798C17.5435 24.9797 17.0636 24.8297 16.7057 24.738C16.3072 24.6463 15.7703 24.5796 15.323 24.5796C14.9244 24.5796 14.355 24.6297 14.0622 24.6963C13.7694 24.7547 13.2976 24.9047 13.0048 25.0297C12.712 25.1464 12.2809 25.3715 12.045 25.5215C11.801 25.6632 11.3861 25.9966 11.1177 26.2467C10.8411 26.4967 10.467 26.9302 10.2718 27.2052C10.0847 27.4803 9.81627 27.9471 9.68612 28.2471C9.54785 28.5472 9.38517 29.014 9.31196 29.289C9.23876 29.5641 9.15742 30.1476 9.13301 30.581C9.09234 31.2061 9.11675 31.5479 9.25502 32.2064C9.36077 32.7481 9.53971 33.2733 9.7512 33.7067C9.93014 34.0734 10.2718 34.6152 10.5077 34.907C10.7354 35.207 11.1909 35.6488 11.5 35.8905C11.8172 36.1406 12.289 36.449 12.5574 36.5823C12.8258 36.724 13.3057 36.9074 13.6148 36.9991C13.9321 37.0908 14.534 37.1908 14.9569 37.2242C15.5263 37.2575 15.9086 37.2325 16.4211 37.1325C16.8033 37.0491 17.389 36.8741 17.7225 36.7407C18.2837 36.5157 18.3488 36.5073 18.5196 36.624C18.6172 36.6907 18.7148 36.8241 18.7392 36.9157C18.7636 37.0074 18.723 37.1741 18.6579 37.2908C18.5766 37.4325 18.3325 37.5742 17.8852 37.7493C17.5273 37.8826 16.8928 38.0577 16.4861 38.1327C15.9493 38.2327 15.4856 38.2577 14.9163 38.2244C14.4689 38.191 13.8507 38.0993 13.5335 38.016C13.2244 37.9243 12.7445 37.7659 12.4761 37.6492C12.2077 37.5409 11.7196 37.2742 11.4024 37.0574C11.077 36.8407 10.5565 36.4156 10.2555 36.0989C9.94641 35.7905 9.53158 35.2737 9.32823 34.957C9.11675 34.6319 8.84833 34.1318 8.72632 33.8317C8.60431 33.5317 8.44163 33.0232 8.36029 32.7065C8.27081 32.3814 8.18134 31.7813 8.15694 31.3728C8.1244 30.9227 8.14067 30.3393 8.20574 29.9142C8.25455 29.5224 8.40909 28.8889 8.53923 28.4972C8.66938 28.1054 8.9378 27.5053 9.14115 27.1636C9.3445 26.8218 9.71866 26.2967 9.97895 26.005C10.2311 25.7132 10.6459 25.3131 10.89 25.1214C11.134 24.9214 11.5732 24.638 11.866 24.4713C12.1589 24.3129 12.6144 24.0962 12.8828 24.0045C13.1512 23.9045 13.6067 23.7711 13.8995 23.7044C14.2655 23.6211 14.7536 23.5961 15.4856 23.6128ZM15.0627 26.4967C16.356 26.4967 16.3885 26.4967 16.8684 26.7385C17.1531 26.8802 17.4622 27.1135 17.6086 27.3053C17.7469 27.4803 17.9258 27.7554 18.0072 27.9137C18.0885 28.0721 18.1699 28.4472 18.1943 28.7472C18.2187 29.114 18.1943 29.4224 18.1048 29.7058C18.0316 29.9392 17.8201 30.2976 17.6249 30.531C17.4297 30.756 17.0962 31.0311 16.8684 31.1478C16.5105 31.3395 16.3478 31.3728 14.4689 31.4145V32.1647H15.8517C17.1287 32.1647 17.2507 32.1814 17.3971 32.3314C17.4866 32.4231 17.5598 32.5731 17.5598 32.6648C17.5598 32.7565 17.4866 32.9065 17.3971 32.9982C17.2507 33.1482 17.1287 33.1649 14.4689 33.1649V33.8901C14.4689 34.3568 14.4364 34.6736 14.3713 34.7569C14.3144 34.8403 14.1923 34.9236 14.1029 34.9486C13.9971 34.982 13.8589 34.9403 13.7206 34.8319C13.501 34.6736 13.4928 34.6402 13.4928 33.1649H13.0048C12.6225 33.1649 12.4842 33.1316 12.3541 32.9982C12.2646 32.9065 12.1914 32.7398 12.1914 32.6231C12.1914 32.4981 12.2646 32.3647 12.3785 32.2897C12.4842 32.2147 12.7445 32.1647 13.4928 32.1647V31.4145H13.0048C12.6225 31.4145 12.4842 31.3812 12.3541 31.2478C12.2646 31.1561 12.1914 31.0061 12.1914 30.9144C12.1914 30.8227 12.2646 30.6727 12.3541 30.581C12.4842 30.4476 12.6225 30.4143 13.4928 30.4143L13.4847 28.6389C13.4766 27.1135 13.4928 26.8385 13.6148 26.6801C13.7368 26.5051 13.7938 26.4967 15.0627 26.4967ZM14.4689 30.4143C16.299 30.3726 16.3316 30.3643 16.6407 30.1142C16.8115 29.9725 17.0148 29.7308 17.088 29.5724C17.1694 29.4141 17.2344 29.139 17.2344 28.9556C17.2344 28.7639 17.1531 28.4638 17.0474 28.2471C16.9254 28.0054 16.7383 27.8054 16.5349 27.6887C16.2584 27.522 16.0957 27.497 15.3474 27.497H14.4689V30.4143Z" fill="#2984DE"/>
</svg>
