<svg width="39" height="40" viewBox="0 0 39 40" fill="none" xmlns="http://www.w3.org/2000/svg">
<path fill-rule="evenodd" clip-rule="evenodd" d="M6.95166 0.00781501L27.571 0L27.948 0.18756C28.1523 0.289155 28.435 0.507976 28.5843 0.672091C28.7335 0.844021 28.8985 1.0941 28.9613 1.23477C29.0163 1.36763 29.0634 1.59426 29.0634 1.95375H28.435C27.8695 1.95375 27.7988 1.93812 27.7674 1.79745C27.7438 1.71149 27.6495 1.57082 27.5553 1.48485C27.3746 1.32855 27.2961 1.32855 7.18731 1.32074L6.79456 1.73493L6.75529 24.1484H5.49849V12.8791C5.49849 4.15759 5.52205 1.53174 5.6006 1.29729C5.64773 1.13318 5.82054 0.851836 5.96979 0.679906C6.11903 0.507976 6.40181 0.289155 6.59819 0.18756L6.95166 0.00781501ZM36.3921 22.8276C36.7299 22.8198 37.0677 22.8745 37.3347 22.9761C37.5625 23.0543 37.9317 23.2887 38.1595 23.4997C38.4109 23.7264 38.6701 24.0468 38.7879 24.3047C38.9686 24.6642 39 24.8439 39 25.3988C39 25.9615 38.9686 26.1256 38.7879 26.4929C38.6701 26.7273 38.4266 27.0712 38.2381 27.2509C38.0338 27.4463 36.887 28.1575 35.3474 29.0406C33.9414 29.8455 30.7444 31.682 28.2387 33.12C25.7329 34.558 23.565 35.7849 23.4236 35.8475C23.2272 35.9256 22.4024 35.949 15.7885 35.949L15.8671 36.1679C15.9142 36.2851 15.9456 36.4961 15.9299 36.6446C15.9142 36.8243 15.8356 36.9572 15.71 37.0588C15.6 37.1369 14.0997 37.7152 12.3716 38.3326C10.6435 38.9578 9.17462 39.4736 9.11178 39.4736C9.04894 39.4736 8.8997 39.4033 8.77402 39.3095C8.65619 39.2235 8.52266 39.0125 8.45982 38.8328C8.41269 38.653 8.32628 38.4967 8.28701 38.4811C8.24773 38.4655 7.28943 38.7859 6.16616 39.2001C5.0429 39.6143 3.99819 39.9738 3.84894 39.9894C3.65257 40.0207 3.51903 39.9816 3.39335 39.8878C3.25982 39.7784 2.80423 38.6296 1.60242 35.3629C0.722659 32.9559 0 30.8849 0 30.7521C0 30.627 0.0392749 30.4551 0.0942598 30.3769C0.1571 30.2988 1.11541 29.9002 2.43505 29.4157C3.66828 28.9702 4.68157 28.5951 4.69728 28.5795C4.70514 28.5717 4.65801 28.431 4.59517 28.2747C4.53233 28.1106 4.47734 27.884 4.47734 27.7667C4.46949 27.6495 4.53233 27.4698 4.61088 27.3682C4.71299 27.2353 5.58489 26.8914 7.97281 26.024C9.74804 25.3832 11.2562 24.8595 11.3347 24.8517C11.4054 24.8517 11.5547 24.9299 11.6647 25.0315C11.7982 25.1409 11.9867 25.5551 12.2302 26.2194C12.4344 26.782 12.6073 27.2431 12.623 27.2588C12.6387 27.2666 13.6363 26.7273 17.0453 24.8517H22.3317C25.3873 24.8517 27.7281 24.883 27.8852 24.9299C28.0344 24.969 28.3329 25.1174 28.5529 25.2581C28.765 25.3988 29.0477 25.6567 29.1813 25.8286C29.3148 26.0005 29.4405 26.1881 29.4562 26.2506C29.4876 26.3288 30.3281 25.8833 32.3233 24.7345C33.8785 23.8358 35.3082 23.0465 35.5045 22.9683C35.7166 22.8823 36.0701 22.8276 36.3921 22.8276ZM33.3601 25.6254C32.0091 26.4147 30.6344 27.2119 30.3045 27.3994C29.739 27.7198 29.6918 27.7667 29.6526 28.0403C29.629 28.1966 29.5112 28.5092 29.3855 28.7202C29.2677 28.939 29.0085 29.2438 28.8199 29.4001C28.6314 29.5642 28.2858 29.7674 28.0659 29.8533C27.6653 30.0018 27.4846 30.0096 23.7613 30.0096H19.8731V28.7592C25.8743 28.7592 27.2489 28.728 27.4532 28.6733C27.626 28.6264 27.8695 28.4935 27.9952 28.3841C28.1208 28.2669 28.2701 28.0637 28.3251 27.923C28.3879 27.7824 28.435 27.5557 28.435 27.4151C28.435 27.2744 28.3565 27.0009 28.2544 26.8133C28.1601 26.6257 27.9637 26.3991 27.8066 26.3053C27.5317 26.1412 27.4767 26.1412 22.5045 26.1256L17.4773 26.1021C14.1468 27.9543 13.165 28.5248 13.1492 28.5639C13.1335 28.6108 13.6048 29.9784 14.2018 31.6117L15.2937 34.5814L22.9758 34.6283C33.8707 28.3685 37.1227 26.4929 37.2326 26.4225C37.3426 26.3444 37.4918 26.1568 37.5704 26.0005C37.6411 25.8442 37.7039 25.5707 37.7039 25.3988C37.7039 25.2269 37.6332 24.9455 37.5468 24.7736C37.4604 24.6017 37.2719 24.3906 37.1384 24.3125C36.997 24.2265 36.7378 24.1406 36.565 24.1171C36.3921 24.0937 36.1486 24.1015 36.0308 24.1406C35.913 24.1718 34.7112 24.8439 33.3601 25.6254ZM6.01692 28.134C5.99335 28.1575 6.73172 30.2675 7.66646 32.823C8.60121 35.3785 9.39456 37.5746 9.43384 37.6918C9.47311 37.809 9.55166 37.9028 9.60665 37.9028C9.65378 37.9028 10.7456 37.5277 12.0181 37.0744C13.2906 36.6133 14.3668 36.2148 14.3982 36.1913C14.4296 36.1679 13.6912 34.05 12.7565 31.4945C11.8218 28.939 11.0284 26.7508 10.9891 26.6336C10.942 26.5007 10.8634 26.4147 10.7849 26.4225C10.7063 26.4225 9.6145 26.8055 8.3577 27.2588C7.09305 27.7198 6.04834 28.1106 6.01692 28.134ZM1.51601 31.1584C1.5003 31.1741 2.08157 32.8074 2.80423 34.8002C3.51903 36.7852 4.13172 38.4342 4.15529 38.4655C4.17885 38.4889 5.01934 38.2154 6.00906 37.8559C7.00665 37.4886 7.82356 37.1838 7.83142 37.176C7.83927 37.1682 7.25801 35.527 6.52749 33.5264C5.71843 31.3304 5.16073 29.8846 5.09003 29.8768C5.03505 29.869 4.21027 30.1503 3.25982 30.502C2.30937 30.8458 1.52387 31.1428 1.51601 31.1584ZM20.1088 2.61021C29.1263 2.61803 30.2338 2.63366 30.4773 2.74307C30.6266 2.8134 30.8858 2.98533 31.0586 3.13382C31.2236 3.2823 31.4278 3.52457 31.4985 3.67305C31.577 3.82154 31.6634 4.07943 31.7341 4.53271H31.09C30.4538 4.53271 30.4381 4.52489 30.3438 4.3217C30.2888 4.20447 30.1631 4.0638 30.0532 4.0091C29.8961 3.93095 27.7045 3.9075 19.9124 3.9075C11.6961 3.9075 9.93656 3.92313 9.76375 4.01691C9.63807 4.07162 9.52024 4.18103 9.48882 4.25137C9.44955 4.3217 9.42598 8.82314 9.42598 24.1484H8.09063L8.1142 14.0905C8.12991 4.44674 8.13776 4.01691 8.27915 3.7512C8.3577 3.60272 8.53051 3.36045 8.6719 3.21978C8.80544 3.0713 9.02538 2.90718 9.15106 2.83685C9.28459 2.77433 9.5281 2.68836 9.70091 2.6571C9.87372 2.62584 14.5553 2.6024 20.1088 2.61021ZM32.7946 5.23606L33.1873 5.4158C33.4072 5.5174 33.7057 5.74403 33.855 5.91596C34.0042 6.08789 34.177 6.36923 34.2242 6.53335C34.3027 6.7678 34.3263 8.71374 34.3263 22.8198H33.0695V15.0283C33.0695 9.95632 33.0459 7.14292 32.9909 6.9788C32.9517 6.83813 32.8417 6.68965 32.7553 6.64276C32.6689 6.60368 32.4018 6.56461 31.7341 6.56461L31.6949 11.4255L31.4985 11.574C31.3885 11.66 31.2079 11.7303 31.09 11.7303C30.9643 11.7225 30.8072 11.6913 30.7366 11.6522C30.658 11.6209 30.4224 11.3161 30.2024 10.9957C29.9903 10.6675 29.7861 10.394 29.7547 10.394C29.7154 10.394 29.5583 10.5972 29.4012 10.8472C29.2441 11.0895 29.0242 11.3943 28.9142 11.5115C28.7571 11.6756 28.6393 11.7303 28.4193 11.7225C28.1837 11.7225 28.0816 11.6756 27.9637 11.5115C27.8066 11.3005 27.7988 11.1833 27.8066 6.56461H20.148C15.9378 6.56461 12.4344 6.59587 12.3637 6.62713C12.2931 6.65839 12.1831 6.78343 12.1281 6.90065C12.0338 7.07258 12.0181 8.61214 12.0181 24.1484H10.7613V15.419C10.7613 7.15855 10.7692 6.6662 10.9106 6.36923C10.9813 6.1973 11.2091 5.91596 11.4054 5.74403C11.594 5.5721 11.8767 5.39236 12.026 5.34547C12.2224 5.27513 15.058 5.25169 32.7946 5.23606ZM29.0634 7.64308C29.0634 8.22921 29.087 8.73718 29.1184 8.76844C29.1577 8.7997 29.2677 8.75281 29.3776 8.66685C29.4876 8.58088 29.6604 8.51055 29.7704 8.51055C29.8804 8.51055 30.061 8.5887 30.1867 8.67466L30.3988 8.83096V6.56461H29.0634V7.64308ZM14.6888 8.52618H18.6163V9.77658H14.6888V8.52618ZM23.4236 10.4799C23.6985 10.4799 24.1541 10.5268 24.429 10.5893C24.7118 10.644 25.1752 10.7925 25.4501 10.9098C25.7329 11.027 26.1964 11.2692 26.4713 11.4568C26.7541 11.6365 27.194 12.0117 27.461 12.2852C27.7202 12.5587 28.0816 13.0276 28.2544 13.3324C28.435 13.6294 28.6785 14.1608 28.7964 14.5047C28.9456 14.9345 29.0242 15.3565 29.087 16.6147L28.6314 16.9664H22.9366L22.5438 16.5756L22.5517 10.8629L22.7402 10.6675C22.9051 10.5034 23.0073 10.4799 23.4236 10.4799ZM23.8792 15.716C27.2961 15.716 27.7281 15.6925 27.7281 15.6144C27.7281 15.5597 27.6731 15.3252 27.6024 15.0908C27.5396 14.8485 27.3589 14.4265 27.2097 14.153C27.0604 13.8716 26.7934 13.4887 26.6127 13.3011C26.4242 13.1058 26.1335 12.8401 25.9607 12.6994C25.7879 12.5665 25.4737 12.3633 25.2538 12.2539C25.0417 12.1523 24.7432 12.0273 24.5861 11.9804C24.4369 11.9335 24.2169 11.8788 24.0991 11.8476L23.887 11.8007L23.8792 15.716ZM14.6888 11.1051H18.6163V12.4337H14.6888V11.1051ZM20.9728 12.4415C21.4205 12.4337 21.5069 12.4571 21.8761 12.8401L21.9154 17.6697H26.7462L26.9426 17.8729C27.1311 18.0683 27.139 18.0917 27.084 18.7873C27.0526 19.1858 26.9583 19.7173 26.8798 19.9752C26.8012 20.2331 26.6048 20.6941 26.4477 20.9911C26.2906 21.2959 25.9921 21.7492 25.7801 22.0071C25.5758 22.265 25.1909 22.6479 24.9317 22.8511C24.6804 23.0543 24.2405 23.3434 23.9577 23.4841C23.6749 23.6326 23.1958 23.828 22.8973 23.9217C22.5909 24.0155 22.0254 24.1093 21.6405 24.1406C21.2163 24.164 20.6743 24.1406 20.3051 24.0859C19.9595 24.0312 19.4097 23.8827 19.0876 23.7576C18.7656 23.6404 18.2864 23.3981 18.0272 23.2262C17.768 23.0621 17.3517 22.726 17.1003 22.4838C16.8568 22.2415 16.5033 21.8273 16.3227 21.5616C16.142 21.2881 15.8906 20.8426 15.7807 20.5613C15.6628 20.2878 15.5057 19.7798 15.4429 19.4516C15.3722 19.1155 15.3172 18.5997 15.3172 18.2949C15.3172 17.998 15.3722 17.4744 15.4429 17.1461C15.5057 16.8101 15.6628 16.3099 15.7728 16.0286C15.8906 15.7551 16.1263 15.3096 16.2991 15.0517C16.4719 14.7938 16.8411 14.3562 17.1317 14.0748C17.4224 13.8013 17.8465 13.4574 18.0743 13.3168C18.31 13.1761 18.7263 12.9729 19.0091 12.8557C19.2918 12.7463 19.7317 12.6056 19.9909 12.5509C20.2502 12.4962 20.69 12.4415 20.9728 12.4415ZM19.7553 13.9732C19.5353 14.0436 19.1112 14.2468 18.8127 14.4265C18.5063 14.6141 18.0822 14.9501 17.8701 15.1846C17.6502 15.419 17.3438 15.8488 17.1867 16.1536C17.0296 16.4506 16.8411 16.9273 16.7782 17.2008C16.7076 17.4822 16.6526 17.9745 16.6526 18.2949C16.6526 18.6232 16.7076 19.1155 16.7782 19.389C16.8411 19.6704 17.0296 20.1471 17.1867 20.4441C17.3595 20.7723 17.6737 21.1943 17.9879 21.4991C18.2943 21.8117 18.7184 22.1243 19.0483 22.2962C19.3468 22.4525 19.8103 22.6401 20.0695 22.7104C20.3287 22.7729 20.8393 22.8276 21.2085 22.8276C21.5776 22.8276 22.0882 22.7729 22.3474 22.7104C22.6066 22.6479 23.0308 22.4916 23.29 22.3666C23.5492 22.2415 23.9891 21.9289 24.264 21.6788C24.539 21.4288 24.9082 21.0146 25.0731 20.7567C25.2381 20.4988 25.4423 20.1158 25.5208 19.897C25.5994 19.686 25.6858 19.3734 25.7094 19.2171L25.7643 18.9201H20.9728L20.5801 18.5294C20.5801 14.8407 20.5486 13.77 20.5172 13.77C20.4858 13.7779 20.3915 13.8013 20.3051 13.8169C20.2187 13.8404 19.9674 13.9107 19.7553 13.9732Z" fill="#2984DE"/>
</svg>
