<svg width="40" height="40" viewBox="0 0 40 40" fill="none" xmlns="http://www.w3.org/2000/svg">
<path fill-rule="evenodd" clip-rule="evenodd" d="M13.4279 24.9251C13.7683 24.9537 14.26 25.0204 14.5154 25.0776C14.7801 25.1252 16.539 25.8207 18.4397 26.602C20.3404 27.3833 22.0236 28.1074 22.1749 28.2027C22.3262 28.298 22.6194 28.5457 22.8085 28.7458C23.0071 28.9459 23.2624 29.308 23.5934 29.9844L26.4775 29.0317C29.2009 28.1265 29.409 28.0693 30.1655 28.0693C30.8652 28.0693 31.0544 28.1074 31.5839 28.3552C31.9244 28.5171 32.3877 28.8125 32.6052 29.0221C32.8605 29.2508 33.1537 29.67 33.3617 30.0988C33.6927 30.7848 33.7116 30.8515 33.7116 31.8138C33.7116 32.719 33.6832 32.8809 33.4468 33.3669C33.305 33.6718 32.9929 34.1386 32.7376 34.4054C32.4917 34.6722 32.0756 35.0057 31.8203 35.1295C31.5556 35.2629 28.9267 36.311 25.9574 37.4448C22.9882 38.5882 20.2742 39.6172 19.9054 39.7315C19.5177 39.8459 18.8652 39.9602 18.3452 39.9888C17.8345 40.0174 17.2009 39.9888 16.8794 39.9316C16.5674 39.8745 14.5437 39.2456 8.46336 37.2543H6.43026V37.6544C6.43026 37.9308 6.37352 38.1308 6.24113 38.2738C6.05201 38.4929 6.0331 38.4929 3.21513 38.4929C0.397163 38.4929 0.378251 38.4929 0.189125 38.2738C0 38.0641 0 37.9498 0 26.3924L0.463357 25.916H3.26241C5.92908 25.916 6.06147 25.9255 6.24113 26.1066C6.38298 26.2495 6.43026 26.421 6.43026 27.2499H8.13239L8.77541 26.6497C9.13475 26.3257 9.72104 25.9065 10.0804 25.7159C10.4397 25.5254 10.9409 25.2967 11.2057 25.2109C11.461 25.1252 11.9338 25.0204 12.2459 24.9727C12.5579 24.9251 13.0875 24.906 13.4279 24.9251ZM10.8274 26.8116C10.4397 27.0117 9.95745 27.3547 9.6643 27.6501L9.16312 28.1551L9.21986 36.0537C11.7825 36.9017 13.5319 37.4734 14.7518 37.8736C16.4917 38.4453 17.1348 38.6168 17.7305 38.6549C18.3168 38.693 18.6572 38.6644 19.2435 38.512C19.6596 38.4072 22.4492 37.3781 25.4374 36.2253C28.4255 35.0819 31.0449 34.0529 31.253 33.9481C31.461 33.8433 31.773 33.586 31.9433 33.3859C32.1135 33.1858 32.3121 32.7952 32.3877 32.5379C32.4728 32.2712 32.5296 31.9281 32.5296 31.7757C32.5296 31.6137 32.4634 31.2612 32.3877 30.9849C32.2931 30.6419 32.1229 30.3656 31.8392 30.0797C31.6028 29.8511 31.2435 29.6129 30.9693 29.508C30.7045 29.4223 30.3073 29.3461 30.0709 29.3461C29.7872 29.3461 28.6525 29.6795 26.7234 30.3274C25.1158 30.861 23.792 31.3374 23.7731 31.3946C23.7541 31.4422 23.6501 31.7471 23.5366 32.0615C23.3853 32.4712 23.1773 32.7761 22.7991 33.1668C22.4208 33.5479 22.1087 33.7575 21.7021 33.91C21.2293 34.091 21.0024 34.1196 20.3783 34.0815C19.6785 34.0434 19.4232 33.9576 16.6903 32.8333C15.0733 32.1759 13.6832 31.5566 13.5887 31.4613C13.4941 31.3755 13.4184 31.1945 13.4279 31.0611C13.4279 30.9277 13.4941 30.7276 13.5697 30.6038C13.6643 30.464 13.8061 30.3941 13.9953 30.3941C14.1466 30.3941 15.6123 30.9372 17.2293 31.5947C19.9054 32.6809 20.2364 32.7952 20.6714 32.7666C21.0307 32.738 21.2766 32.6523 21.5697 32.4427C21.7872 32.2807 22.0426 32.0044 22.1466 31.8233C22.2411 31.6423 22.3452 31.3374 22.3735 31.1564C22.4019 30.9754 22.383 30.6419 22.3262 30.4132C22.26 30.175 22.0804 29.8701 21.8629 29.651C21.5697 29.3556 20.9929 29.0793 18.2033 27.9264C16.3783 27.1642 14.7045 26.4877 14.4681 26.421C14.2317 26.3543 13.74 26.2781 13.3806 26.2495C12.974 26.2209 12.4728 26.259 12.104 26.3448C11.7636 26.421 11.1868 26.6306 10.8274 26.8116ZM1.30496 32.2712L1.32388 37.159H5.10638V27.2499C2.2695 27.2499 1.41844 27.2785 1.37116 27.3166C1.32388 27.3452 1.29551 29.5747 1.30496 32.2712ZM6.47754 35.8727L7.8487 35.9204V28.5838H6.43026L6.47754 35.8727ZM11.8676 0C12.104 0.00952795 12.3499 0.209615 14.5154 2.39151L17.1631 1.40061C18.6194 0.847987 20.0473 0.333478 20.331 0.257255C20.6147 0.171503 21.1726 0.0762236 21.5603 0.0476397C22.0142 0.00952794 22.5437 0.0381118 23.026 0.123863C23.4421 0.200087 25.5697 0.847987 31.7258 2.86791L33.5225 2.81074L33.5697 2.30576C33.5981 1.9437 33.6738 1.75314 33.8061 1.65786C33.9574 1.54353 34.5059 1.52447 36.8038 1.52447C39.6028 1.52447 39.6217 1.52447 39.8109 1.73409C40 1.95323 40 2.06756 40 7.83197C40 13.5964 39.9905 13.7202 39.8109 13.9108C39.6312 14.0918 39.4894 14.1014 36.8038 14.1014C34.5059 14.1014 33.9574 14.0823 33.8061 13.968C33.6738 13.8727 33.5981 13.6821 33.5225 12.8151L31.8676 12.7674L31.3664 13.2534C31.0922 13.5297 30.6856 13.8822 30.4492 14.0347C30.2128 14.1966 29.7872 14.4348 29.5035 14.5587C29.2199 14.6826 28.747 14.8445 28.4634 14.9112C28.1797 14.9779 27.7825 15.0637 27.234 15.1494L27.5177 15.502C27.6785 15.7116 27.8014 15.9784 27.8014 16.1213C27.8014 16.3404 27.1773 17.0169 24.0851 20.104C20.8511 23.3435 20.3404 23.8199 20.0946 23.8199C19.8392 23.8199 18.8652 22.8671 11.9811 15.9307C4.84161 8.73713 4.16076 8.02253 4.17967 7.76528C4.19858 7.52708 4.84161 6.83154 7.89598 3.74448C11.13 0.466869 11.6217 0 11.8676 0V0ZM18.6761 2.2486C17.6359 2.64877 16.4917 3.08705 16.1418 3.22997L15.4988 3.4777L18.1466 6.14552C18.8936 5.92638 19.2813 5.8978 19.7163 5.92638C20.2742 5.97402 20.8038 6.14552 23.2624 7.13643C24.8511 7.78433 26.2411 8.39412 26.3641 8.50846C26.4775 8.62279 26.5721 8.81335 26.5721 8.92768C26.5721 9.05155 26.4681 9.25164 26.3357 9.38503C26.2128 9.51842 26.0426 9.62323 25.9574 9.62323C25.8818 9.62323 24.4823 9.08013 22.8558 8.4227C20.4917 7.46038 19.8109 7.22218 19.4326 7.22218C19.13 7.21266 18.818 7.28888 18.5816 7.40321C18.3735 7.51755 18.1277 7.67952 18.0426 7.7748C17.9669 7.87961 17.8251 8.09875 17.74 8.26073C17.6548 8.43223 17.5887 8.77524 17.5887 9.02296C17.5887 9.28022 17.6643 9.65181 17.7589 9.86142C17.8534 10.071 18.0709 10.3569 18.2506 10.4903C18.4303 10.6237 19.9433 11.3001 21.6076 11.9862C23.2719 12.6722 24.9078 13.3391 25.2482 13.463C25.5887 13.5964 26.1371 13.7298 26.4775 13.7679C26.8936 13.806 27.3097 13.7869 27.8014 13.6821C28.1891 13.5964 28.7849 13.3963 29.1253 13.2248C29.4657 13.0533 29.9858 12.6912 30.279 12.4149L30.8274 11.9099L30.7801 3.96363C26.818 2.6583 25.078 2.09615 24.3499 1.86748C23.565 1.61975 22.7518 1.42919 22.3641 1.40061C21.9953 1.37202 21.4468 1.39108 21.1348 1.43872C20.8227 1.48636 19.7163 1.85795 18.6761 2.2486ZM10.6856 3.04894C10.7612 3.10611 10.9787 3.18233 11.1584 3.2395C11.3381 3.28714 11.6407 3.33478 11.8203 3.33478C12 3.33478 12.3688 3.26809 12.643 3.19186C12.9173 3.11564 13.1442 3.02036 13.1348 2.98225C13.1348 2.93461 12.8605 2.63924 12.5201 2.31529C12.1891 1.98181 11.8771 1.71503 11.8392 1.71503C11.8014 1.71503 11.4894 1.99134 11.1489 2.33435C10.6572 2.84886 10.5721 2.97272 10.6856 3.04894ZM34.8936 12.7674H38.6761V2.85838H34.8936V12.7674ZM8.03783 5.47857C8.48227 6.36467 8.64303 6.87918 8.69976 7.1936C8.7565 7.56519 8.7565 7.98442 8.69031 8.38459C8.64303 8.7276 8.47281 9.26116 8.31206 9.57559L8.02837 10.1473L17.7683 19.961C18.5437 19.5704 18.9409 19.4084 19.1489 19.3513C19.357 19.2941 19.7825 19.2465 20.0946 19.2465C20.4066 19.2465 20.8983 19.3131 21.182 19.3989C21.4657 19.4846 21.8629 19.6466 22.052 19.7514L22.4113 19.961L23.8771 18.4842C23.234 17.1598 23.2151 17.055 23.2151 16.207C23.2151 15.5687 23.2624 15.1494 23.3759 14.8445C23.4704 14.5873 23.5366 14.3681 23.5177 14.3396C23.5083 14.3205 22.4113 13.8441 21.0875 13.2915C19.7636 12.7389 18.6667 12.291 18.6478 12.291C18.6383 12.291 18.6288 12.3673 18.6288 12.4626C18.6288 12.5483 18.5248 12.8437 18.4019 13.1009C18.279 13.3677 18.0142 13.7393 17.8061 13.9299C17.6076 14.1204 17.2577 14.3681 17.0213 14.4729C16.747 14.5968 16.3877 14.673 16.0284 14.673C15.7163 14.673 15.2719 14.6159 15.0355 14.5301C14.7991 14.4539 14.4208 14.2252 14.1939 14.0347C13.9669 13.8346 13.6738 13.4439 13.5319 13.1486C13.3333 12.7293 13.2861 12.4911 13.2861 11.9576C13.2955 11.5098 13.3617 11.1477 13.4846 10.8619C13.5887 10.6237 13.8629 10.2521 14.0898 10.0234C14.3357 9.7852 14.7234 9.53747 15.0071 9.42314C15.2813 9.32786 15.6785 9.24211 15.8865 9.24211C16.2459 9.24211 16.2648 9.23258 16.2648 8.93721C16.2648 8.76571 16.3026 8.47034 16.3593 8.28931C16.4066 8.10828 16.5863 7.71764 16.7565 7.41274L17.0686 6.87918L14.1371 3.91599C13.7683 4.18277 13.4846 4.32569 13.2577 4.41144C13.0402 4.50672 12.5674 4.602 12.2175 4.63058C11.7636 4.67822 11.4043 4.64964 10.9693 4.5353C10.6288 4.44955 10.1749 4.27805 9.94799 4.15418L9.54137 3.93504L8.03783 5.47857ZM32.1513 11.4335H33.5697V4.1923H32.1513V11.4335ZM5.72104 7.81292L7.04492 9.14683C7.30024 8.58468 7.36643 8.18451 7.37589 7.86056C7.37589 7.54613 7.32861 7.13643 7.26241 6.9554C7.20567 6.76484 7.13002 6.58381 7.0922 6.5457C7.06383 6.50759 6.73286 6.77437 6.37352 7.14596L5.72104 7.81292ZM14.8085 11.3573C14.6005 11.6813 14.5626 11.8432 14.6005 12.1481C14.6288 12.3577 14.7329 12.6341 14.8274 12.7674C14.922 12.8913 15.1489 13.0819 15.3286 13.1676C15.5083 13.2629 15.792 13.3391 15.9622 13.3391C16.1324 13.3391 16.4161 13.2629 16.6052 13.1676C16.7943 13.0819 17.0307 12.8723 17.1253 12.7198C17.2199 12.5578 17.305 12.2434 17.305 12.0052C17.3144 11.7098 17.2388 11.4716 17.0969 11.243C16.974 11.0524 16.7281 10.8333 16.5485 10.738C16.3688 10.6522 16.0946 10.576 15.9338 10.576C15.7825 10.576 15.5177 10.6522 15.357 10.7571C15.1962 10.8619 14.9504 11.1286 14.8085 11.3573ZM24.7281 15.159C24.6052 15.4353 24.539 15.7497 24.5485 16.1403C24.5579 16.4643 24.6336 16.893 24.7187 17.1027L24.8794 17.4838L26.2411 16.1022L24.9173 14.7588L24.7281 15.159ZM18.7991 20.9424C18.8085 20.971 19.0922 21.2759 19.4326 21.6189L20.0473 22.2382L21.3806 20.9043C20.8038 20.6375 20.435 20.5804 20.0946 20.5804C19.7825 20.5804 19.3664 20.6471 19.1584 20.7328C18.9504 20.809 18.7991 20.9043 18.7991 20.9424Z" fill="#2984DE"/>
</svg>
