<svg width="40" height="40" viewBox="0 0 40 40" fill="none" xmlns="http://www.w3.org/2000/svg">
<path fill-rule="evenodd" clip-rule="evenodd" d="M5.55645 0H33.1452L33.5484 0.403226V21.9355H39.5968L40 22.3387V34.4355L39.6048 34.8387H33.5484L33.5081 37.5484L33.2097 38.1532C33.0242 38.5403 32.7823 38.879 32.5242 39.1129C32.3145 39.3064 31.871 39.5887 30.9677 40H2.58065L1.99194 39.7339C1.67742 39.5887 1.23387 39.3064 1.02419 39.1129C0.766129 38.879 0.524194 38.5403 0.0403226 37.5484L0 17.1774L0.395161 16.7742H5.16129L5.16935 0.395161L5.55645 0ZM6.41129 37.5484L5.84677 38.7097C27.621 38.7097 30.6774 38.6855 30.9274 38.6129C31.121 38.5484 31.4032 38.3548 31.6532 38.1048C31.9032 37.8629 32.0968 37.5806 32.1532 37.379C32.2097 37.2016 32.2581 36.5726 32.2581 35.9516V34.8387C31.4435 34.8387 31.3306 34.8064 31.1694 34.6371C31 34.4677 30.9677 34.3548 30.9677 33.9919V33.5484H29.1935L26.6129 34.8387C19.5726 34.8387 18.3387 34.8064 18.1048 34.7419C17.9032 34.6774 17.621 34.4839 17.371 34.2339C17.129 33.9919 16.9274 33.7097 16.871 33.5081C16.7984 33.2742 16.7742 32.0323 16.7742 29.0323C16.7742 26.0403 16.7984 24.7903 16.871 24.5565C16.9274 24.3629 17.129 24.0806 17.371 23.8306C17.621 23.5806 17.9032 23.3871 18.1048 23.3226C18.3226 23.2581 19.1935 23.2258 20.8226 23.2258H23.2258C23.2661 18.7097 23.2661 18.6613 23.4677 18.2661C23.5726 18.0484 23.8065 17.7177 23.9919 17.5403C24.1694 17.3629 24.4919 17.129 24.7177 17.0242C25.0161 16.879 25.3145 16.8226 25.8871 16.7903C26.6371 16.75 26.6532 16.75 26.871 16.9597L27.0968 17.1774V21.0081L29.3145 23.2258H30.9677C30.9677 22.4194 31 22.3065 31.1613 22.1371C31.3306 21.9677 31.4355 21.9355 31.8064 21.9355H32.2581V1.29032H6.45161L6.41129 37.5484ZM1.29032 27.5565C1.29032 34.7097 1.31452 37.1371 1.3871 37.379C1.45161 37.5726 1.64516 37.8548 1.89516 38.1048C2.1371 38.3548 2.42742 38.5484 2.62097 38.6048C2.79839 38.6613 3.07258 38.7016 3.22581 38.7016C3.37903 38.7016 3.65323 38.6613 3.83065 38.6048C4.02419 38.5484 4.31452 38.3548 4.55645 38.1048C4.80645 37.8548 5 37.5726 5.06452 37.379C5.1371 37.1371 5.16129 34.7097 5.16129 27.5565V18.0645H1.29032V27.5565ZM24.8226 18.4677C24.75 18.5726 24.6452 18.7661 24.6048 18.8871C24.5484 19.0242 24.5161 20.0323 24.5161 21.6048V24.1048L24.121 24.5081H18.4597C18.0968 24.879 18.0645 24.9919 18.0645 25.3548V25.7984H23.2258V27.0887H18.0645V28.379H23.2258V29.6694H18.0645V30.9597H23.2258V32.25H18.0645C18.0645 33.0645 18.0968 33.1774 18.2661 33.3387L18.4677 33.5403H26.2903L28.871 32.25H30.9677V24.5081H28.75L25.8064 21.5645C25.8064 18.1935 25.7984 18.0565 25.6613 18.0645C25.5887 18.0645 25.3952 18.1129 25.2419 18.1694C25.0887 18.2258 24.9032 18.3548 24.8226 18.4677ZM32.2581 33.5403H38.7097V23.2177H32.2581V33.5403ZM19.3548 2.57258C19.4758 2.57258 19.8387 2.78226 20.2419 3.06452C20.621 3.33871 21.3226 3.75 21.8145 3.99194C22.2984 4.22581 22.9355 4.5 23.2258 4.58871C23.5161 4.68548 24.0968 4.83065 24.5161 4.91935C24.9355 5.00806 25.75 5.10484 26.3306 5.1371C27.2823 5.17742 27.3952 5.20161 27.5565 5.37097C27.7097 5.52419 27.7419 5.65323 27.7419 6.04032C27.7419 6.30645 27.7016 6.87903 27.6532 7.31452C27.6048 7.74194 27.5 8.42742 27.4113 8.82258C27.3306 9.22581 27.1452 9.89516 27.0081 10.3145C26.871 10.7419 26.5564 11.5 26.3145 12.0081C26.0726 12.5242 25.6452 13.2823 25.371 13.7016C25.0887 14.129 24.7258 14.6371 24.5645 14.8306C24.3952 15.0323 23.9677 15.5 23.6048 15.871C23.2419 16.2419 22.1855 17.1774 21.2661 17.9435C19.9194 19.0806 19.5484 19.3468 19.3548 19.3468C19.1613 19.3468 18.8145 19.0968 17.5968 18.0887C16.7661 17.3952 15.8548 16.6048 15.5645 16.3306C15.2742 16.0645 14.8065 15.5887 14.5323 15.2742C14.25 14.9677 13.75 14.3145 13.4274 13.8226C13.0968 13.3387 12.629 12.5242 12.3871 12.0081C12.1452 11.5 11.8387 10.7419 11.7016 10.3145C11.5645 9.89516 11.379 9.22581 11.2984 8.82258C11.2097 8.42742 11.0968 7.74194 11.0565 7.31452C11.0081 6.87903 10.9677 6.30645 10.9677 6.04032C10.9677 5.65323 11 5.52419 11.1452 5.37097C11.3145 5.20161 11.4194 5.17742 12.4194 5.12903C13.0161 5.10484 13.8306 5.00806 14.2339 4.91935C14.629 4.83065 15.1935 4.68548 15.4839 4.58871C15.7742 4.5 16.4032 4.22581 16.8952 3.99194C17.379 3.75 18.0887 3.33871 18.4677 3.06452C18.871 2.78226 19.2339 2.57258 19.3548 2.57258ZM17.5403 5.10484C16.9597 5.39516 16.2016 5.71774 15.8468 5.83065C15.4919 5.95161 14.8387 6.1129 14.3952 6.20161C13.9516 6.28226 13.2903 6.3871 12.9194 6.41935L12.2581 6.48387C12.3226 7.1129 12.3871 7.54839 12.4274 7.85484C12.4758 8.16935 12.5806 8.69355 12.6613 9.02419C12.7419 9.3629 12.9113 9.90323 13.0323 10.2339C13.1452 10.5726 13.4274 11.2016 13.6452 11.6452C13.8629 12.0887 14.2419 12.7419 14.4758 13.0968C14.7097 13.4516 15.1371 14.0161 15.4194 14.3468C15.7016 14.6855 16.2097 15.1935 16.5403 15.4839C16.8629 15.7742 17.629 16.4194 18.2258 16.9194C18.8226 17.4113 19.3387 17.8226 19.371 17.8226C19.4032 17.8145 20.0968 17.2581 20.9032 16.5806C21.7177 15.9032 22.6129 15.0887 22.8952 14.7823C23.1774 14.4758 23.6129 13.9597 23.8629 13.621C24.1048 13.2903 24.4758 12.7258 24.6774 12.371C24.879 12.0161 25.1774 11.4355 25.3387 11.0806C25.5 10.7258 25.7419 10.0565 25.879 9.58871C26.0161 9.12903 26.1855 8.43548 26.2419 8.05645C26.3064 7.68548 26.379 7.17742 26.4032 6.92742L26.4516 6.48387C25.4194 6.37903 24.8306 6.29839 24.4758 6.23387C24.121 6.16935 23.4677 6.00806 23.0242 5.87097C22.5806 5.73387 21.8145 5.43548 21.3306 5.20161C20.8387 4.96774 20.1855 4.60484 19.879 4.40323C19.5645 4.19355 19.3145 4.02419 19.3145 4.03226C19.3145 4.03226 19.1532 4.16129 18.9516 4.31452C18.75 4.46774 18.1129 4.82258 17.5403 5.10484ZM15.0403 18.2984C15.0806 18.2984 15.2903 18.4758 15.5 18.6855C15.7177 18.8952 15.8871 19.1048 15.8871 19.1452C15.8871 19.1935 15.5081 19.6129 14.1935 20.9194V25.3952L13.7984 25.7984H8.14516L7.74194 25.3952V19.75L8.15323 19.3468L13.8871 19.3629L14.4274 18.8306C14.7177 18.5403 14.9919 18.2984 15.0403 18.2984ZM9.03226 24.5081H12.9032V22.2097C11.3387 23.7661 11.2177 23.8629 10.9677 23.8629C10.7177 23.8629 10.5968 23.7742 9.97581 23.1532C9.58871 22.7742 9.26613 22.4194 9.27419 22.371C9.27419 22.3306 9.45161 22.121 9.66935 21.9113C9.89516 21.7016 10.1048 21.5242 10.1371 21.5242C10.1694 21.5242 10.371 21.7016 10.5887 21.9113L10.9677 22.2903L12.621 20.6371H9.03226V24.5081ZM15.0403 26.0403C15.0806 26.0403 15.2903 26.2177 15.5 26.4274C15.7177 26.6371 15.8871 26.8468 15.8871 26.8871C15.8871 26.9355 15.5081 27.3548 14.1935 28.6613V33.1371L13.7984 33.5403H8.14516L7.74194 33.1371V27.4919L8.15323 27.0887L13.8871 27.1048L14.4274 26.5726C14.7177 26.2823 14.9919 26.0403 15.0403 26.0403ZM9.03226 32.25H12.9032V29.9516C11.3387 31.5081 11.2177 31.6048 10.9677 31.6048C10.7177 31.6048 10.5968 31.5161 9.97581 30.8952C9.58871 30.5161 9.26613 30.1613 9.27419 30.1129C9.27419 30.0726 9.45161 29.8629 9.66935 29.6532C9.89516 29.4435 10.1048 29.2661 10.1371 29.2661C10.1694 29.2661 10.371 29.4435 10.5887 29.6532L10.9677 30.0323L12.621 28.379H9.03226V32.25ZM19.3548 5.79839C19.4677 5.79839 19.8306 6 20.2016 6.26613C20.5565 6.51613 21.0968 6.84677 21.4113 7C21.7177 7.14516 22.1935 7.33065 22.4597 7.41935C22.7258 7.5 23.1774 7.60484 23.4677 7.65323C23.7581 7.70161 24.1613 7.73387 24.371 7.73387C24.6774 7.73387 24.7984 7.78226 24.9597 7.93548C25.0726 8.04839 25.1613 8.21774 25.1613 8.32258C25.1613 8.41935 25.0726 8.81452 24.9677 9.18548C24.8629 9.56452 24.6694 10.1452 24.5242 10.4758C24.3871 10.8145 24.1129 11.3548 23.9194 11.6855C23.7258 12.0242 23.3145 12.6048 23.0081 12.9758C22.6613 13.4032 21.9113 14.129 21.0242 14.8952C19.871 15.8871 19.5484 16.121 19.3548 16.121C19.1613 16.121 18.8468 15.8952 17.7258 14.9355C16.9597 14.2823 16.0968 13.4677 15.8065 13.121C15.5161 12.7823 15.1129 12.2177 14.8952 11.871C14.6855 11.5242 14.371 10.9194 14.2016 10.5161C14.0242 10.121 13.8065 9.49193 13.7177 9.12903C13.621 8.75806 13.5484 8.3871 13.5484 8.29839C13.5484 8.20968 13.6371 8.04839 13.7419 7.93548C13.9032 7.78226 14.0242 7.73387 14.3306 7.73387C14.5403 7.73387 14.9516 7.70161 15.2419 7.65323C15.5323 7.60484 15.9919 7.5 16.2661 7.41129C16.5484 7.32258 17 7.14516 17.2742 7.01613C17.5564 6.8871 18.0887 6.55645 18.4677 6.29032C18.8629 6.00806 19.2339 5.79839 19.3548 5.79839ZM18.0645 8.04839C17.6855 8.25 17.1774 8.47581 16.9355 8.56452C16.6935 8.64516 16.1613 8.78226 15.7661 8.8629C15.1371 8.98387 15.0403 9.02419 15.0645 9.15323C15.0806 9.24193 15.2177 9.59677 15.371 9.95161C15.5242 10.3065 15.8145 10.8871 16.0242 11.2339C16.2419 11.5806 16.6694 12.1452 16.9839 12.4839C17.2984 12.8226 17.9435 13.4274 18.4194 13.8226C18.8871 14.2258 19.3145 14.5484 19.3548 14.5484C19.3952 14.5484 19.8145 14.2258 20.2903 13.8226C20.7661 13.4274 21.4032 12.8226 21.7258 12.4839C22.0403 12.1452 22.4677 11.5806 22.6774 11.2339C22.8871 10.8871 23.1855 10.3065 23.3387 9.95161C23.4919 9.59677 23.629 9.24193 23.6452 9.16129C23.6613 9.02419 23.5726 8.98387 22.9839 8.87097C22.6048 8.79032 22.0968 8.66129 21.8548 8.58064C21.6129 8.50806 21.1532 8.31452 20.8468 8.16129C20.5323 8.00806 20.0726 7.74194 19.8145 7.56452C19.5645 7.39516 19.3468 7.25806 19.3306 7.25806C19.3226 7.25806 19.1855 7.3629 19.0323 7.48387C18.871 7.59677 18.4355 7.85484 18.0645 8.04839Z" fill="#2984DE"/>
</svg>
