<svg width="40" height="40" viewBox="0 0 40 40" fill="none" xmlns="http://www.w3.org/2000/svg">
<path fill-rule="evenodd" clip-rule="evenodd" d="M19.9922 0C21.4688 0 21.4766 0 21.6719 0.195312C21.7812 0.304688 21.8672 0.460938 21.8672 0.546875C21.8672 0.632812 21.9219 0.703125 21.9844 0.703125C22.0469 0.703125 22.3047 0.78125 22.5547 0.875C22.875 0.992188 23.1328 1.17188 23.4766 1.51562C23.8203 1.85938 24 2.125 24.1328 2.46094C24.2891 2.85156 24.3203 3.10156 24.3672 5H24.7969C25.1484 5 25.2578 5.03125 25.4219 5.19531C25.6094 5.38281 25.6172 5.4375 25.6172 6.25C25.6172 7.03906 25.6016 7.125 25.4375 7.28906C25.3203 7.40625 25.0234 7.51562 23.7422 7.8125L23.7188 9.82812C23.7031 11.8203 23.7031 11.8359 23.5 12.2266C23.3906 12.4453 23.125 12.7578 22.5547 13.2422L22.7656 14.1406C22.8828 14.6328 23.0156 15.0703 23.0547 15.1172C23.0938 15.1641 24 15.5234 25.0547 15.9219C26.1875 16.3438 27.0938 16.7344 27.5078 17.0703L26.6406 17.9297L26.3828 17.7891C26.2422 17.7109 25.7188 17.5 25.2266 17.3125C24.7344 17.125 24.3203 16.9766 24.3125 16.9844C24.2969 16.9844 24.2188 17.5625 23.9766 19.5312L24.3672 19.9219C24.5781 20.1328 24.7734 20.3984 24.7969 20.5078C24.8281 20.6641 24.8984 20.7109 25.125 20.75C25.2891 20.7734 25.7422 20.875 26.125 20.9766C26.5078 21.0703 27.0938 21.2656 27.4141 21.3984C27.7344 21.5391 28.2422 21.7969 28.5469 21.9688C28.8516 22.1484 29.3359 22.4766 29.6406 22.7031C29.9453 22.9219 30.4375 23.3672 30.7344 23.6797C31.0391 24 31.4766 24.5234 31.7031 24.8438C31.9297 25.1641 32.2578 25.7109 32.4297 26.0547C32.6094 26.3984 32.8359 26.9062 32.9375 27.1875C33.0469 27.4688 33.1953 27.9766 33.2734 28.3203C33.3594 28.6641 33.6016 30.4375 33.8203 32.2656C34.0312 34.0938 34.2266 35.7188 34.25 35.8828C34.2891 36.1641 34.2969 36.1719 34.7344 36.2578C34.9844 36.3047 35.2656 36.3906 35.3594 36.4531C35.4609 36.5156 35.6094 36.75 35.6953 36.9922C35.7812 37.2266 35.8516 37.5859 35.8516 37.7969C35.8516 38 35.8047 38.3203 35.7344 38.5156C35.6719 38.7109 35.4844 39.0234 35.3203 39.2188C35.1562 39.4141 34.8359 39.6641 34.2109 40H5.77344L5.36719 39.7812C5.14844 39.6641 4.82812 39.4141 4.66406 39.2188C4.5 39.0234 4.30469 38.6875 4.23438 38.4766C4.15104 38.2161 4.1224 37.9297 4.14844 37.6172C4.17188 37.3594 4.26562 37 4.35938 36.8125C4.44531 36.6328 4.58594 36.4531 4.65625 36.4141C4.73438 36.375 5 36.3047 5.24219 36.2578C5.6875 36.1719 5.69531 36.1641 5.73438 35.8828C5.75781 35.7188 5.95312 34.0938 6.16406 32.2656C6.38281 30.4375 6.625 28.6641 6.71094 28.3203C6.78906 27.9766 6.9375 27.4688 7.04688 27.1875C7.14844 26.9062 7.375 26.3984 7.55469 26.0547C7.72656 25.7109 8.03906 25.1875 8.25 24.8828C8.46094 24.5781 8.85938 24.0938 9.14062 23.7969C9.41406 23.5 9.92187 23.0391 10.2656 22.7734C10.6094 22.5078 11.1328 22.1484 11.4375 21.9688C11.7344 21.7891 12.2812 21.5234 12.6484 21.375C13.0156 21.2266 13.5937 21.0391 13.9375 20.9531C14.2812 20.8672 14.6953 20.7734 14.8516 20.75C15.0859 20.7109 15.1562 20.6641 15.1875 20.5078C15.2109 20.3984 15.3984 20.1328 16.0078 19.5312L15.8516 18.2578C15.7656 17.5625 15.6875 16.9844 15.6719 16.9844C15.6641 16.9766 15.25 17.125 14.7578 17.3125C14.2656 17.5 13.7422 17.7188 13.3438 17.9297L12.4844 17.0703L12.7422 16.8594C12.8984 16.7266 13.7266 16.3672 14.9141 15.9297C15.9688 15.5391 16.8672 15.1797 16.9141 15.125C16.9609 15.0781 17.1016 14.6328 17.4297 13.2422L17.0625 12.9297C16.8594 12.7578 16.5938 12.4453 16.4844 12.2266C16.2812 11.8359 16.2812 11.8203 16.2422 7.8125L15.4766 7.64062C14.9609 7.51562 14.6641 7.40625 14.5391 7.28906C14.3828 7.125 14.3672 7.03906 14.3672 6.25C14.3672 5.44531 14.375 5.375 14.5625 5.19531C14.7188 5.03125 14.8281 5 15.6172 5L15.6328 3.92188C15.6563 2.89844 15.6641 2.82812 15.9062 2.34375C16.0703 2 16.2969 1.70312 16.6094 1.42188C16.8828 1.17188 17.2266 0.945312 17.4688 0.851562C17.6953 0.773438 17.9375 0.703125 18 0.703125C18.0625 0.703125 18.1172 0.632812 18.1172 0.546875C18.125 0.453125 18.2109 0.296875 18.3125 0.195312C18.5 0 18.5156 0 19.9922 0V0ZM19.3672 5H20.6172V1.25H19.3672V5ZM17.2031 2.60156C17.1016 2.74219 16.9922 2.97656 16.9453 3.125C16.9062 3.27344 16.8672 3.75781 16.8672 4.20312V5H18.1172C18.1172 2.64062 18.0938 1.95312 18.0547 1.95312C18.0234 1.95312 17.8594 2.03906 17.6875 2.15625C17.5156 2.26562 17.2969 2.46094 17.2031 2.60156ZM21.8672 5H23.1172C23.1172 3.75781 23.0781 3.27344 23.0391 3.125C22.9922 2.97656 22.8828 2.75 22.7969 2.61719C22.7109 2.49219 22.5234 2.30469 22.3906 2.21094C22.25 2.11719 22.0859 2.01562 22.0156 1.98438C21.9062 1.94531 21.8906 2.10156 21.8828 3.46875L21.8672 5ZM17.7812 6.92188L19.9531 7.47656C23.375 6.61719 24.3672 6.34375 24.3672 6.30469C24.3672 6.27344 22.3984 6.25 19.9922 6.25C17.5859 6.25 15.6094 6.27344 15.6094 6.30469C15.6094 6.34375 16.5859 6.61719 17.7812 6.92188ZM17.4922 9.88281C17.5312 11.6172 17.5312 11.6328 17.7266 11.8359C17.8281 11.9453 18.3047 12.2734 18.7812 12.5547C19.5 12.9922 19.6953 13.0781 19.9922 13.0781C20.2812 13.0781 20.4766 12.9922 21.2031 12.5547C21.6719 12.2734 22.1484 11.9453 22.2578 11.8359C22.4531 11.625 22.4531 11.625 22.4688 9.875L22.4922 8.125L19.9531 8.76562L17.4531 8.14062L17.4922 9.88281ZM18.3516 14.7656L18.1875 15.4297L19.9922 17.2266L21.7969 15.4297C21.5469 14.3984 21.4531 14.0547 21.4375 14C21.4062 13.9297 21.2812 13.9609 20.9844 14.1172C20.6484 14.2969 20.4766 14.3359 19.9922 14.3281C19.5078 14.3281 19.3359 14.2969 19 14.1172C18.6953 13.9609 18.5781 13.9297 18.5469 14C18.5312 14.0547 18.4375 14.3984 18.3516 14.7656ZM16.9297 16.7109C16.9375 16.8203 17.0156 17.4609 17.1016 18.125C17.1875 18.7891 17.2578 19.3438 17.2578 19.3516C17.2578 19.3672 18.4844 19.375 19.9922 19.375C21.4922 19.375 22.7266 19.3438 22.7266 19.3125C22.7266 19.2812 22.7969 18.7109 22.8828 18.0469C22.9688 17.3828 23.0391 16.7656 23.0391 16.6797C23.0391 16.5938 22.9609 16.4844 22.8672 16.4297C22.7031 16.3516 22.6016 16.4297 21.4766 17.5469C20.375 18.6328 20.2422 18.7422 19.9922 18.7422C19.7422 18.7422 19.6094 18.6328 18.5078 17.5469C17.375 16.4297 17.2812 16.3516 17.1016 16.4219C16.9609 16.4844 16.9141 16.5625 16.9297 16.7109ZM16.2578 21.0781L16.2422 24.375H14.9922C14.9922 22.1406 14.9766 22.0312 14.8516 22.0312C14.7813 22.0234 14.3984 22.1172 14.0156 22.2266C13.625 22.3438 13.0469 22.5547 12.7266 22.7031C12.4062 22.8516 11.8906 23.1406 11.5938 23.3438C11.2891 23.5391 10.7344 24.0078 10.3594 24.375C9.97656 24.7344 9.5 25.2812 9.28906 25.5859C9.08594 25.8828 8.77344 26.4141 8.60156 26.7578C8.42969 27.1016 8.20312 27.6641 8.09375 28.0078C7.98438 28.3516 7.84375 29 7.77344 29.4531C7.71094 29.9062 7.50781 31.5078 7.32031 33.0234C7.13281 34.5312 7 35.7891 7.02344 35.8125C7.04688 35.8438 8.84375 35.4844 11.0234 35.0234L14.9922 34.1797V25.625H16.2422V33.9062C16.5156 33.8516 17.3672 33.6719 18.3125 33.4688L20.0312 33.1094C22.6953 33.6719 23.5312 33.8516 23.6016 33.8672C23.7266 33.8984 23.7422 33.8203 23.7422 32.8906V31.875H24.9922V34.1797C31.1406 35.4766 32.9375 35.8359 32.9609 35.8125C32.9844 35.7891 32.8516 34.5312 32.6641 33.0234C32.4766 31.5078 32.2734 29.9062 32.2109 29.4531C32.1406 29 32 28.3516 31.8906 28.0078C31.7813 27.6641 31.5547 27.1016 31.3828 26.7578C31.2031 26.4141 30.8984 25.8828 30.6875 25.5859C30.4844 25.2812 30 24.7266 29.6094 24.3516C29.2188 23.9766 28.6406 23.5078 28.3281 23.3047C28.0234 23.1016 27.5156 22.8203 27.2188 22.6875C26.9141 22.5469 26.3516 22.3438 25.9688 22.2266C25.5781 22.1172 25.2031 22.0234 25.125 22.0312C25 22.0312 24.9922 22.2891 24.9922 26.3281V30.625H23.7422V21.0938L23.2734 20.625H16.6953L16.2578 21.0781ZM10.7812 36.3516C8.26562 36.8906 6.02344 37.3672 5.78906 37.4219C5.375 37.5078 5.375 37.5078 5.38281 37.7969C5.39062 37.9531 5.4375 38.1562 5.49219 38.2578C5.53906 38.3516 5.6875 38.5 5.82031 38.5859C6.05469 38.7422 6.1875 38.7422 19.9766 38.7422C32.2031 38.7422 33.9375 38.7266 34.1406 38.625C34.2656 38.5625 34.4297 38.4062 34.4922 38.2734C34.5547 38.1484 34.6094 37.9219 34.6094 37.7656C34.6094 37.5469 34.5781 37.4844 34.4297 37.4609C34.3359 37.4375 31.1094 36.7578 27.2656 35.9375C23.4219 35.1172 20.2031 34.4375 20.1172 34.4141C20.0312 34.3984 18.9219 34.6094 17.6562 34.8828C16.3906 35.1562 13.2969 35.8203 10.7812 36.3516ZM6.85156 3.125C7.07812 3.125 7.42969 3.17969 7.63281 3.25C7.84375 3.3125 8.15625 3.47656 8.33594 3.60156C8.52344 3.71875 8.77344 3.96875 8.89844 4.15625C9.02344 4.33594 9.17188 4.64062 9.22656 4.82031C9.32031 5.10156 9.40625 5.19531 9.72656 5.375C9.9375 5.5 10.2891 5.78906 10.4922 6.01562C10.6953 6.25 10.9453 6.63281 11.0312 6.86719C11.1641 7.21094 11.2031 7.50781 11.25 9.36719H11.875V10.6172H10.625L10.6016 12.1641C10.5859 13.6562 10.5781 13.7187 10.3828 14.0938C10.2656 14.3125 10.0078 14.625 9.4375 15.1094L9.65625 16.0391C9.78125 16.5469 9.89844 16.9922 9.92188 17.0234C9.94531 17.0547 10.5781 17.3906 11.3281 17.7656C12.0781 18.1406 12.8203 18.5469 12.9688 18.6641C13.1172 18.7812 13.3359 19.0625 13.4531 19.2812C13.5781 19.5 13.6562 19.7266 13.6484 19.7812C13.6328 19.8359 13.3672 19.9297 12.5 20.1094L12.3438 19.8594C12.2344 19.6797 12 19.5078 11.5625 19.2891C11.2188 19.1172 10.9141 18.9766 10.875 18.9766C10.8438 18.9844 10.9219 19.5234 11.0547 20.1797C11.2812 21.3359 11.2812 21.3828 11.1484 21.5859C11.0781 21.6953 10.9219 21.8125 10.7969 21.8438C10.6406 21.8828 10.0859 21.7266 6.875 20.6562L5.01562 21.2734C3.66406 21.7266 3.10938 21.8828 2.94531 21.8438C2.82812 21.8125 2.67188 21.6953 2.59375 21.5859C2.46875 21.3828 2.46875 21.3359 2.69531 20.1797C2.82031 19.5234 2.90625 18.9844 2.86719 18.9766C2.83594 18.9766 2.53125 19.1172 2.1875 19.2891C1.75 19.5078 1.51562 19.6797 1.40625 19.8594C1.27344 20.0703 1.25 20.25 1.25 21.8672H0L0.015625 20.7969C0.0390625 19.7656 0.046875 19.7031 0.273438 19.3047C0.398438 19.0703 0.632812 18.7812 0.78125 18.6641C0.929688 18.5469 1.67188 18.1406 2.42188 17.7656C3.17188 17.3906 3.80469 17.0547 3.82812 17.0234C3.85156 16.9922 3.96875 16.5469 4.3125 15.1094L3.94531 14.7969C3.73438 14.625 3.47656 14.3125 3.36719 14.0938C3.17188 13.7187 3.16406 13.6562 3.125 10.6172H1.875V9.36719H2.5L2.52344 8.33594C2.54688 7.50781 2.57812 7.21094 2.71094 6.86719C2.80469 6.63281 3.04688 6.25 3.25781 6.01562C3.46094 5.78906 3.80469 5.5 4.02344 5.375C4.34375 5.19531 4.42969 5.10156 4.51562 4.82031C4.57812 4.64062 4.72656 4.33594 4.85156 4.15625C4.97656 3.96875 5.22656 3.71875 5.40625 3.60156C5.59375 3.47656 5.89844 3.32031 6.09375 3.25C6.28906 3.17969 6.63281 3.125 6.85156 3.125ZM5.88281 4.82812C5.78125 4.96094 5.67969 5.1875 5.65625 5.32812C5.625 5.46875 5.63281 5.71875 5.66406 5.89062C5.70052 6.09896 5.8125 6.29948 6 6.49219C6.16406 6.65625 6.40625 6.79688 6.5625 6.82812C6.71094 6.85938 6.96875 6.86719 7.125 6.83594C7.32812 6.80469 7.52344 6.6875 7.73438 6.47656C7.91406 6.29688 8.0625 6.0625 8.09375 5.91406C8.11719 5.77344 8.11719 5.52344 8.09375 5.36719C8.07031 5.20312 7.95312 4.96094 7.82812 4.82812C7.71094 4.6875 7.5 4.53125 7.35938 4.47656C7.22656 4.41406 6.99219 4.36719 6.85156 4.375C6.71875 4.375 6.48438 4.42188 6.33594 4.47656C6.1875 4.53906 5.98438 4.69531 5.88281 4.82812ZM4.01562 7.08594C3.80469 7.42969 3.78906 7.51562 3.76562 8.41406L3.75 9.36719H10C9.96094 7.71094 9.92188 7.39062 9.82812 7.21875C9.75781 7.09375 9.60938 6.89062 9.5 6.77344C9.39062 6.65625 9.27344 6.55469 9.23438 6.55469C9.20312 6.5625 9.08594 6.73438 8.96094 6.94531C8.83594 7.17969 8.59375 7.45312 8.375 7.60938C8.17188 7.75781 7.8125 7.9375 7.57812 8.00781C7.28125 8.10156 7 8.13281 6.67969 8.10156C6.42188 8.07812 6.03125 7.97656 5.82031 7.875C5.60156 7.77344 5.28906 7.55469 5.10938 7.38281C4.9375 7.20312 4.75781 6.95312 4.71875 6.8125C4.67188 6.67188 4.60156 6.55469 4.5625 6.5625C4.52344 6.5625 4.4375 6.59375 4.36719 6.64062C4.29688 6.6875 4.13281 6.88281 4.01562 7.08594ZM4.39062 12.0625C4.41406 13.4688 4.41406 13.5 4.60938 13.7031C4.71875 13.8125 5.1875 14.1406 5.66406 14.4297C6.38281 14.8672 6.57812 14.9453 6.875 14.9453C7.17188 14.9453 7.35938 14.8672 8.08594 14.4297C8.55469 14.1406 9.03125 13.8125 9.14062 13.7031C9.32812 13.5 9.33594 13.4766 9.35156 12.0625L9.375 10.6172H4.36719L4.39062 12.0625ZM5.23438 16.6406L5.07031 17.3047L6.875 19.1016L8.67969 17.3047C8.42188 16.2734 8.33594 15.9297 8.3125 15.8828C8.28906 15.8125 8.16406 15.8438 7.86719 15.9922C7.53125 16.1719 7.35938 16.2109 6.875 16.2109C6.38281 16.2109 6.21875 16.1719 5.875 15.9922C5.57812 15.8359 5.46094 15.8047 5.42969 15.875C5.41406 15.9297 5.32031 16.2734 5.23438 16.6406ZM3.98438 20.2188C3.98438 20.2812 4.25781 20.2188 4.84375 20.0234L5.70312 19.7266C4.70312 18.7266 4.39062 18.4375 4.35938 18.4375C4.33594 18.4375 4.24219 18.8125 4.14844 19.2812C4.05469 19.7422 3.98438 20.1641 3.98438 20.2188ZM8.04688 19.7266C9.48438 20.2188 9.76562 20.2812 9.76562 20.2188C9.76562 20.1641 9.69531 19.7422 9.60938 19.2812C9.53125 18.8125 9.42969 18.4375 9.39844 18.4375C9.35938 18.4375 9.03906 18.7266 8.6875 19.0859L8.04688 19.7266ZM33.1094 3.125C33.3281 3.125 33.6797 3.17969 33.8906 3.25C34.0938 3.32031 34.4062 3.47656 34.5938 3.60156C34.7734 3.72656 35.0234 3.97656 35.1484 4.15625C35.2734 4.33594 35.4219 4.64062 35.4844 4.82812C35.5703 5.10156 35.6562 5.19531 35.9766 5.38281C36.1953 5.5 36.5391 5.78906 36.7422 6.02344C36.9531 6.25 37.1953 6.63281 37.2812 6.875C37.4141 7.21875 37.4531 7.50781 37.5 9.375H38.125V10.625H36.875L36.8594 12.1641C36.8359 13.6562 36.8281 13.7188 36.6328 14.1016C36.5234 14.3125 36.2578 14.6328 35.6875 15.1172L35.9062 16.0391C36.0312 16.5469 36.1484 16.9922 36.1719 17.0234C36.1953 17.0625 36.8281 17.3984 37.5781 17.7734C38.3281 18.1484 39.0781 18.5625 39.25 18.6953C39.4219 18.8359 39.6406 19.1406 39.7734 19.4141C39.9922 19.8516 40 19.9297 40 21.875H38.75V20.9922C38.75 20.25 38.7266 20.0781 38.5938 19.8594C38.4844 19.6875 38.25 19.5078 37.8125 19.2969C37.4688 19.125 37.1641 18.9844 37.1328 18.9844C37.0938 18.9844 37.1797 19.5234 37.3047 20.1797C37.5312 21.3359 37.5312 21.3828 37.4062 21.5859C37.3281 21.7031 37.1719 21.8203 37.0547 21.8438C36.8906 21.8828 36.3359 21.7266 33.125 20.6641L31.3047 21.2656C30.3125 21.6016 29.4219 21.875 29.3359 21.875C29.25 21.875 29.0859 21.7891 28.9688 21.6797C28.8437 21.5703 28.75 21.3984 28.75 21.3047C28.7578 21.2109 28.8516 20.6484 28.9688 20.0547C29.0859 19.4688 29.1562 18.9844 29.125 18.9844C29.0859 18.9844 28.7812 19.125 28.4375 19.2969C28 19.5078 27.7656 19.6797 27.5 20.1172L26.9453 20C26.6328 19.9297 26.3672 19.8359 26.3516 19.7812C26.3437 19.7266 26.4219 19.5078 26.5469 19.2812C26.6641 19.0625 26.8828 18.7891 27.0312 18.6719C27.1797 18.5469 27.9219 18.1484 28.6719 17.7734C29.4219 17.3984 30.0547 17.0625 30.0781 17.0234C30.1016 16.9922 30.2188 16.5469 30.5625 15.1172L30.1953 14.8047C29.9922 14.6328 29.7266 14.3125 29.6172 14.1016C29.4219 13.7188 29.4141 13.6562 29.375 10.625H28.125V9.375H28.75L28.7734 8.33594C28.7969 7.50781 28.8359 7.21875 28.9688 6.875C29.0547 6.63281 29.2969 6.25 29.5078 6.02344C29.7109 5.78906 30.0625 5.5 30.2734 5.38281C30.5938 5.19531 30.6797 5.10156 30.7734 4.82812C30.8281 4.64062 30.9766 4.33594 31.1016 4.15625C31.2266 3.97656 31.4766 3.72656 31.6641 3.60156C31.8437 3.47656 32.1484 3.32031 32.3438 3.25C32.5391 3.1875 32.8828 3.125 33.1094 3.125ZM32.1328 4.82812C32.0391 4.96094 31.9297 5.1875 31.9062 5.32812C31.8828 5.46875 31.8828 5.72656 31.9141 5.89844C31.9505 6.10677 32.0651 6.30469 32.2578 6.49219C32.4219 6.65625 32.6562 6.80469 32.8125 6.83594C32.9609 6.86719 33.2188 6.86719 33.3828 6.84375C33.5781 6.8125 33.7734 6.69531 33.9844 6.48438C34.1641 6.29688 34.3203 6.0625 34.3438 5.91406C34.3672 5.77344 34.3672 5.53125 34.3438 5.36719C34.3203 5.20312 34.2031 4.96094 34.0859 4.82812C33.9609 4.69531 33.75 4.53125 33.6172 4.47656C33.4766 4.42188 33.2422 4.375 33.1094 4.375C32.9688 4.375 32.7344 4.42188 32.5859 4.48438C32.4375 4.53906 32.2344 4.69531 32.1328 4.82812ZM30.2656 7.08594C30.0547 7.4375 30.0391 7.51562 30.0234 8.41406L30 9.375H36.25C36.2109 7.71875 36.1719 7.39062 36.0781 7.22656C36.0078 7.09375 35.8594 6.89062 35.75 6.77344C35.6406 6.65625 35.5234 6.5625 35.4922 6.5625C35.4531 6.5625 35.3359 6.73438 35.2188 6.95312C35.0859 7.17969 34.8438 7.45312 34.6328 7.60938C34.4219 7.75781 34.0625 7.9375 33.8281 8.00781C33.5312 8.10156 33.25 8.13281 32.9297 8.10156C32.6719 8.07812 32.2891 7.98438 32.0703 7.88281C31.8594 7.78125 31.5391 7.55469 31.3672 7.38281C31.1875 7.21094 31.0078 6.95312 30.9688 6.8125C30.9219 6.67188 30.8516 6.5625 30.8125 6.5625C30.7734 6.5625 30.6875 6.60156 30.6172 6.64062C30.5469 6.6875 30.3906 6.89062 30.2656 7.08594ZM30.6406 12.0625C30.6641 13.4766 30.6641 13.5078 30.8594 13.7031C30.9688 13.8203 31.4453 14.1406 31.9141 14.4297C32.6328 14.8672 32.8281 14.9531 33.125 14.9531C33.4219 14.9531 33.6172 14.8672 34.3359 14.4297C34.8125 14.1406 35.2812 13.8203 35.3906 13.7031C35.5859 13.5 35.5859 13.4766 35.6094 12.0625L35.625 10.625H30.6172L30.6406 12.0625ZM31.4844 16.6328L31.3203 17.2969L33.125 19.0938L34.9297 17.2969C34.6797 16.2734 34.5859 15.9297 34.5625 15.875C34.5391 15.8047 34.4141 15.8359 34.1172 15.9922C33.7812 16.1719 33.6094 16.2031 33.125 16.2031C32.6406 16.2031 32.4688 16.1641 32.125 15.9844C31.8281 15.8281 31.7109 15.7969 31.6797 15.875C31.6641 15.9297 31.5703 16.2734 31.4844 16.6328ZM30.2344 20.2109C30.2344 20.2734 30.5078 20.2109 31.0938 20.0156L31.9531 19.7188C30.9531 18.7188 30.6406 18.4297 30.6172 18.4297C30.5859 18.4297 30.4922 18.8125 30.3984 19.2734C30.3047 19.7344 30.2344 20.1563 30.2344 20.2109ZM34.2969 19.7188C35.7422 20.2109 36.0156 20.2734 36.0156 20.2109C36.0156 20.1563 35.9453 19.7344 35.8594 19.2734C35.7812 18.8125 35.6797 18.4297 35.6484 18.4297C35.6094 18.4297 35.2891 18.7188 34.9375 19.0781L34.2969 19.7188ZM0 23.1172H1.25V29.3672H0V23.1172ZM38.75 23.1172H40V29.3672H38.75V23.1172ZM6.25 21.8672H7.5V23.1172H6.25V21.8672ZM32.5 21.8672H33.75V23.1172H32.5V21.8672ZM3.125 23.1172H4.375V29.3672H3.125V23.1172ZM35.625 23.1172H36.875V29.3672H35.625V23.1172ZM6.25 24.3672H7.5V25.6172H6.25V24.3672ZM32.5 24.3672H33.75V25.6172H32.5V24.3672Z" fill="#2984DE"/>
</svg>
