<svg width="141" height="141" viewBox="0 0 141 141" fill="none" xmlns="http://www.w3.org/2000/svg">
<g clip-path="url(#clip0_185_259)">
<g filter="url(#filter0_d_185_259)">
<path d="M8.74665 112.8C12.4606 112.8 15.3403 115.68 15.3403 119.259C15.3403 122.839 12.4606 125.718 8.74665 125.718H5.9208V131.639H1.61475V112.8H8.74665ZM8.74665 121.681C10.0654 121.681 11.0342 120.632 11.0342 119.259C11.0342 117.887 10.0654 116.837 8.74665 116.837H5.9208V121.681H8.74665ZM24.4865 127.495H32.0221V131.639H20.1804V112.8H31.8875V116.945H24.4865V120.067H31.2147V124.157H24.4865V127.495ZM55.9819 112.8V131.639H51.6758V120.686L46.8046 128.679H46.3202L41.4489 120.686V131.639H37.1429V112.8H41.4489L46.5624 121.17L51.6758 112.8H55.9819ZM70.9002 132.016C65.4907 132.016 61.1039 127.764 61.1039 122.22C61.1039 116.676 65.4907 112.423 70.9002 112.423C76.3096 112.423 80.6964 116.676 80.6964 122.22C80.6964 127.764 76.3096 132.016 70.9002 132.016ZM70.9002 127.817C73.9682 127.817 76.3904 125.584 76.3904 122.22C76.3904 118.856 73.9682 116.622 70.9002 116.622C67.8321 116.622 65.4099 118.856 65.4099 122.22C65.4099 125.584 67.8321 127.817 70.9002 127.817ZM96.0391 112.8H100.345V131.639H96.0391V124.157H90.1183V131.639H85.8122V112.8H90.1183V120.013H96.0391V112.8ZM118.919 112.8V116.945H114.075V131.639H109.769V116.945H104.924V112.8H118.919ZM133.722 112.8H138.028L132.592 126.095C130.923 130.159 128.205 131.828 124.68 131.639V127.602C126.644 127.791 127.721 127.064 128.447 125.745L122.419 112.8H126.725L130.412 121.035L133.722 112.8Z" fill="white"/>
</g>
<g filter="url(#filter1_d_185_259)">
<path d="M127.661 93.6978C127.661 89.9329 129.951 87.3791 133.453 87.3791C136.954 87.3791 139.245 89.9329 139.245 93.6978V100.806H120.815V88.9588H124.87V96.5938H127.661V93.6978ZM135.296 93.6978C135.296 92.5394 134.795 91.5916 133.453 91.5916C132.11 91.5916 131.61 92.5394 131.61 93.6978V96.5938H135.296V93.6978ZM139.245 82.7729H120.815V78.5605H126.608V75.796C126.608 72.1628 129.425 69.3457 132.926 69.3457C136.428 69.3457 139.245 72.1628 139.245 75.796V82.7729ZM139.245 67.7661H120.815V63.5536H139.245V67.7661ZM135.296 78.5605V75.796C135.296 74.506 134.269 73.5582 132.926 73.5582C131.583 73.5582 130.557 74.506 130.557 75.796V78.5605H135.296ZM120.815 45.3976H124.87V50.1366H139.245V54.349H124.87V59.0878H120.815V45.3976ZM126.608 33.944C126.608 30.3107 129.425 27.4937 132.926 27.4937C136.428 27.4937 139.245 30.3107 139.245 33.944V40.9208H120.815V36.7084H126.608V33.944ZM135.296 33.944C135.296 32.6539 134.269 31.7061 132.926 31.7061C131.583 31.7061 130.557 32.6539 130.557 33.944V36.7084H135.296V33.944Z" fill="#00B51A"/>
</g>
<g filter="url(#filter2_d_185_259)">
<path fill-rule="evenodd" clip-rule="evenodd" d="M52.2761 1.17017C52.5133 1.17017 52.6556 2.38088 52.6556 6.49733L45.2079 10.8074C41.0809 13.1321 33.2537 17.6359 27.7509 20.7837C22.2482 23.9316 14.8954 28.1933 4.98093 33.9564L4.83862 68.244L15.8916 56.6209C22.011 50.2283 27.4663 44.1263 28.0355 43.0609C28.7471 41.7049 28.9843 40.6879 28.7471 39.8162C28.5574 38.7992 27.9881 38.2664 26.565 37.7337C25.5214 37.3463 23.2444 36.8136 21.4892 36.523C19.6865 36.2809 17.3621 36.0388 16.2711 36.0388C15.1326 36.0388 14.2312 35.8935 14.2312 35.6998C14.2312 35.4576 15.3223 35.0218 16.698 34.6828C18.0737 34.2953 20.8251 33.9079 22.77 33.7626C25.2367 33.6173 27.3714 33.7626 29.6484 34.3438C31.4511 34.7796 34.2025 35.8451 35.7678 36.6684C37.2859 37.54 39.2782 39.0413 40.1321 40.0583C41.0334 41.0269 41.9348 42.7219 42.2194 43.7873C42.5514 45.0465 43.2156 46.1603 44.2592 46.9352C45.0656 47.5648 46.0618 48.1459 46.3939 48.1459C46.6785 48.1459 47.6272 48.6786 48.3862 49.3566C49.1452 50.0346 49.8093 50.8579 49.8093 51.1969C49.8093 51.4875 48.8132 52.8435 45.3028 56.4272L43.9271 55.3134C43.1681 54.6838 42.077 53.2309 41.5078 52.0202C40.8911 50.8095 39.9424 49.5504 39.3257 49.1629C38.709 48.8239 37.4282 48.5334 36.5268 48.5817C35.6256 48.5817 34.2498 49.0176 33.4908 49.4535C32.7318 49.9378 25.047 57.7832 16.4134 66.8393C7.77975 75.944 0.569248 83.4018 0.379498 83.4504C0.142311 83.4504 -7.23603e-07 71.6825 0.0474367 30.9538L7.68485 26.5952C11.9068 24.2222 23.5764 17.4906 33.6332 11.7276C43.6899 5.91619 52.0863 1.17017 52.2761 1.17017ZM36.0525 56.8631C36.1948 56.8146 36.6692 57.202 37.1436 57.6864C37.9026 58.5098 37.9026 58.6063 37.0012 59.5266C36.4795 60.0596 36.1474 60.592 36.2897 60.7371C36.432 60.8828 36.9538 60.5435 38.5192 59.0422L40.3693 61.2215C41.3655 62.4326 42.1719 63.6431 42.2194 63.8853C42.2194 64.1755 41.1758 65.4352 39.9424 66.6942C38.709 67.9533 37.8077 69.1152 37.95 69.2123C38.0923 69.3094 39.5154 68.5342 44.1169 65.5803L48.3862 70.665C50.7581 73.4739 52.5133 76.0406 52.371 76.3799C52.2287 76.6701 49.762 79.0431 46.9157 81.5618C44.022 84.0799 40.7488 86.9859 37.4756 89.7942L29.4113 80.2542C24.9521 74.9752 21.2994 70.4714 21.2994 70.1812C21.252 69.939 24.5252 66.7907 28.5099 63.2558C32.5421 59.7688 35.9102 56.8631 36.0525 56.8631ZM20.161 70.8107L22.0584 72.9415C23.1021 74.1034 26.8971 78.4622 37.0012 90.2787L35.3409 91.7314C33.6806 93.1847 33.6332 93.1847 30.5023 92.7002C28.1779 92.3129 26.4701 92.3615 24.4303 92.7488C22.8649 93.039 20.7302 93.7171 19.6865 94.2501C18.643 94.831 16.2711 96.8653 11.1478 102.386H0V98.2694L5.12325 94.8796C7.92204 93.039 11.1478 90.618 12.3338 89.504C13.5197 88.3901 14.9902 86.3558 15.6069 84.9031C16.4608 82.966 16.8403 81.0774 17.0301 77.7355C17.3147 73.4254 17.4096 73.1352 18.7378 72.0212L20.161 70.8107Z" fill="white"/>
<path d="M56.751 102.386V1.17017L86.9367 18.3623V12.793H97.6323V24.658L109.992 31.4381V102.386H56.751Z" fill="url(#paint0_linear_185_259)"/>
<path d="M80.1535 38.0291H70.2075V46.805H80.1535V38.0291Z" fill="white"/>
<path d="M80.1535 49.7302H70.2075V58.5062H80.1535V49.7302Z" fill="white"/>
<path d="M92.4399 38.0291H83.0789V46.805H92.4399V38.0291Z" fill="white"/>
<path d="M92.4399 49.7302H83.0789V58.5062H92.4399V49.7302Z" fill="white"/>
</g>
</g>
<defs>
<filter id="filter0_d_185_259" x="1.61475" y="111.523" width="138.314" height="21.3925" filterUnits="userSpaceOnUse" color-interpolation-filters="sRGB">
<feFlood flood-opacity="0" result="BackgroundImageFix"/>
<feColorMatrix in="SourceAlpha" type="matrix" values="0 0 0 0 0 0 0 0 0 0 0 0 0 0 0 0 0 0 127 0" result="hardAlpha"/>
<feOffset dx="1"/>
<feGaussianBlur stdDeviation="0.45"/>
<feComposite in2="hardAlpha" operator="out"/>
<feColorMatrix type="matrix" values="0 0 0 0 0 0 0 0 0 0 0 0 0 0 0 0 0 0 0.26 0"/>
<feBlend mode="normal" in2="BackgroundImageFix" result="effect1_dropShadow_185_259"/>
<feBlend mode="normal" in="SourceGraphic" in2="effect1_dropShadow_185_259" result="shape"/>
</filter>
<filter id="filter1_d_185_259" x="120.815" y="26.5937" width="20.3294" height="75.1127" filterUnits="userSpaceOnUse" color-interpolation-filters="sRGB">
<feFlood flood-opacity="0" result="BackgroundImageFix"/>
<feColorMatrix in="SourceAlpha" type="matrix" values="0 0 0 0 0 0 0 0 0 0 0 0 0 0 0 0 0 0 127 0" result="hardAlpha"/>
<feOffset dx="1"/>
<feGaussianBlur stdDeviation="0.45"/>
<feComposite in2="hardAlpha" operator="out"/>
<feColorMatrix type="matrix" values="0 0 0 0 0 0 0 0 0 0 0 0 0 0 0 0 0 0 0.26 0"/>
<feBlend mode="normal" in2="BackgroundImageFix" result="effect1_dropShadow_185_259"/>
<feBlend mode="normal" in="SourceGraphic" in2="effect1_dropShadow_185_259" result="shape"/>
</filter>
<filter id="filter2_d_185_259" x="0" y="0.270166" width="111.892" height="103.016" filterUnits="userSpaceOnUse" color-interpolation-filters="sRGB">
<feFlood flood-opacity="0" result="BackgroundImageFix"/>
<feColorMatrix in="SourceAlpha" type="matrix" values="0 0 0 0 0 0 0 0 0 0 0 0 0 0 0 0 0 0 127 0" result="hardAlpha"/>
<feOffset dx="1"/>
<feGaussianBlur stdDeviation="0.45"/>
<feComposite in2="hardAlpha" operator="out"/>
<feColorMatrix type="matrix" values="0 0 0 0 0 0 0 0 0 0 0 0 0 0 0 0 0 0 0.26 0"/>
<feBlend mode="normal" in2="BackgroundImageFix" result="effect1_dropShadow_185_259"/>
<feBlend mode="normal" in="SourceGraphic" in2="effect1_dropShadow_185_259" result="shape"/>
</filter>
<linearGradient id="paint0_linear_185_259" x1="83.3714" y1="1.17017" x2="83.3714" y2="102.386" gradientUnits="userSpaceOnUse">
<stop stop-color="#2276CB"/>
<stop offset="1" stop-color="#2B89E5"/>
</linearGradient>
<clipPath id="clip0_185_259">
<rect width="141" height="141" fill="white"/>
</clipPath>
</defs>
</svg>
