<svg width="152" height="154" viewBox="0 0 152 154" fill="none" xmlns="http://www.w3.org/2000/svg">
<path d="M0 0H152V119.433C152 119.902 151.674 120.308 151.217 120.409L1.21685 153.73C0.592353 153.868 0 153.393 0 152.753V0Z" fill="#FCFEFF"/>
<g clip-path="url(#clip0_185_50)">
<g filter="url(#filter0_d_185_50)">
<path d="M33.9552 93.8C36.4839 93.8 38.4445 95.7606 38.4445 98.1977C38.4445 100.635 36.4839 102.595 33.9552 102.595H32.0312V106.627H29.0994V93.8H33.9552ZM33.9552 99.8468C34.8531 99.8468 35.5127 99.1322 35.5127 98.1977C35.5127 97.2632 34.8531 96.5485 33.9552 96.5485H32.0312V99.8468H33.9552ZM44.6717 103.805H49.8023V106.627H41.7399V93.8H49.7107V96.6218H44.6717V98.7474H49.2526V101.533H44.6717V103.805ZM66.1154 93.8V106.627H63.1836V99.1688L59.867 104.611H59.5372L56.2206 99.1688V106.627H53.2888V93.8H56.2206L59.7021 99.4986L63.1836 93.8H66.1154ZM76.2725 106.883C72.5894 106.883 69.6027 103.988 69.6027 100.213C69.6027 96.4386 72.5894 93.5435 76.2725 93.5435C79.9555 93.5435 82.9423 96.4386 82.9423 100.213C82.9423 103.988 79.9555 106.883 76.2725 106.883ZM76.2725 104.025C78.3614 104.025 80.0105 102.504 80.0105 100.213C80.0105 97.9228 78.3614 96.4019 76.2725 96.4019C74.1836 96.4019 72.5344 97.9228 72.5344 100.213C72.5344 102.504 74.1836 104.025 76.2725 104.025ZM93.3884 93.8H96.3201V106.627H93.3884V101.533H89.3572V106.627H86.4254V93.8H89.3572V98.7107H93.3884V93.8ZM108.966 93.8V96.6218H105.668V106.627H102.736V96.6218H99.438V93.8H108.966ZM119.045 93.8H121.977L118.275 102.852C117.139 105.619 115.289 106.755 112.888 106.627V103.878C114.226 104.006 114.959 103.512 115.454 102.614L111.349 93.8H114.281L116.791 99.407L119.045 93.8Z" fill="url(#paint0_linear_185_50)"/>
</g>
<g filter="url(#filter1_d_185_50)">
<path d="M114.918 80.7941C114.918 78.2308 116.477 76.4921 118.861 76.4921C121.246 76.4921 122.805 78.2308 122.805 80.7941V85.634H110.257V77.5676H113.018V82.7659H114.918V80.7941ZM120.116 80.7941C120.116 80.0054 119.776 79.3601 118.861 79.3601C117.947 79.3601 117.607 80.0054 117.607 80.7941V82.7659H120.116V80.7941ZM122.805 73.3559H110.257V70.4879H114.201V68.6057C114.201 66.132 116.119 64.214 118.503 64.214C120.887 64.214 122.805 66.132 122.805 68.6057V73.3559ZM122.805 63.1385H110.257V60.2705H122.805V63.1385ZM120.116 70.4879V68.6057C120.116 67.7274 119.417 67.0821 118.503 67.0821C117.589 67.0821 116.89 67.7274 116.89 68.6057V70.4879H120.116ZM110.257 47.9089H113.018V51.1354H122.805V54.0035H113.018V57.2299H110.257V47.9089ZM114.201 40.1107C114.201 37.637 116.119 35.719 118.503 35.719C120.887 35.719 122.805 37.637 122.805 40.1107V44.8609H110.257V41.9929H114.201V40.1107ZM120.116 40.1107C120.116 39.2324 119.417 38.587 118.503 38.587C117.589 38.587 116.89 39.2324 116.89 40.1107V41.9929H120.116V40.1107Z" fill="#00B51A"/>
</g>
<g filter="url(#filter2_d_185_50)">
<path fill-rule="evenodd" clip-rule="evenodd" d="M63.5922 17.7966C63.7537 17.7966 63.8506 18.6209 63.8506 21.4236L58.7799 24.3582C55.9699 25.9409 50.6408 29.0073 46.8942 31.1506C43.1477 33.2938 38.1415 36.1954 31.3913 40.1191L31.2944 63.464L38.8198 55.5503C42.9862 51.1979 46.7004 47.0434 47.088 46.318C47.5725 45.3948 47.734 44.7023 47.5725 44.1088C47.4433 43.4164 47.0557 43.0537 46.0868 42.691C45.3762 42.4272 43.8259 42.0645 42.6309 41.8667C41.4036 41.7018 39.821 41.537 39.0782 41.537C38.303 41.537 37.6893 41.438 37.6893 41.3062C37.6893 41.1413 38.4322 40.8445 39.3688 40.6137C40.3055 40.3499 42.1788 40.0862 43.503 39.9873C45.1824 39.8883 46.6359 39.9873 48.1862 40.3829C49.4135 40.6796 51.2868 41.4051 52.3526 41.9656C53.3861 42.5591 54.7426 43.5812 55.324 44.2737C55.9376 44.9331 56.5513 46.0872 56.7451 46.8126C56.9712 47.6699 57.4234 48.4282 58.1339 48.9558C58.683 49.3845 59.3612 49.7801 59.5873 49.7801C59.7811 49.7801 60.427 50.1428 60.9438 50.6044C61.4606 51.0661 61.9127 51.6266 61.9127 51.8574C61.9127 52.0553 61.2345 52.9785 58.8444 55.4184L57.9078 54.6601C57.3911 54.2314 56.6482 53.2423 56.2606 52.4179C55.8408 51.5936 55.1948 50.7363 54.7749 50.4726C54.3551 50.2417 53.483 50.0439 52.8693 50.0769C52.2557 50.0769 51.319 50.3736 50.8023 50.6704C50.2855 51.0001 45.0533 56.3417 39.1751 62.5075C33.2969 68.7065 28.3876 73.7842 28.2584 73.8172C28.0969 73.8172 28 65.805 28.0323 38.0748L33.2322 35.1073C36.1067 33.4916 44.052 28.9084 50.8992 24.9847C57.7463 21.028 63.463 17.7966 63.5922 17.7966ZM52.5464 55.7152C52.6433 55.6822 52.9663 55.946 53.2892 56.2757C53.806 56.8364 53.806 56.9021 53.1923 57.5287C52.8371 57.8916 52.611 58.2541 52.7079 58.3529C52.8048 58.452 53.16 58.221 54.2258 57.1989L55.4855 58.6827C56.1637 59.5072 56.7128 60.3314 56.7451 60.4963C56.7451 60.6939 56.0345 61.5515 55.1948 62.4088C54.3551 63.266 53.7414 64.0571 53.8383 64.1232C53.9352 64.1893 54.9041 63.6615 58.037 61.6503L60.9438 65.1123C62.5587 67.0247 63.7537 68.7722 63.6568 69.0033C63.56 69.2009 61.8805 70.8165 59.9426 72.5314C57.9724 74.2458 55.7439 76.2244 53.5153 78.1364L48.0247 71.6411C44.9887 68.0469 42.5017 64.9804 42.5017 64.7829C42.4694 64.618 44.698 62.4745 47.411 60.0677C50.1563 57.6936 52.4495 55.7152 52.5464 55.7152ZM41.7266 65.2115L43.0185 66.6622C43.7291 67.4533 46.3129 70.421 53.1923 78.4663L52.0619 79.4553C50.9315 80.4448 50.8992 80.4448 48.7675 80.115C47.1849 79.8513 46.0222 79.8843 44.6334 80.148C43.5676 80.3456 42.1142 80.8073 41.4036 81.1702C40.6931 81.5657 39.0782 82.9508 35.59 86.7095H28V83.9068L31.4882 81.5988C33.3937 80.3456 35.59 78.6973 36.3975 77.9388C37.2049 77.1804 38.2061 75.7954 38.626 74.8063C39.2073 73.4874 39.4657 72.2016 39.5949 69.9262C39.7887 66.9917 39.8533 66.7941 40.7576 66.0356L41.7266 65.2115Z" fill="url(#paint1_linear_185_50)"/>
<path d="M66.639 86.7095V17.7966L87.191 29.5019V25.7101H94.4731V33.7884L102.888 38.4046V86.7095H66.639Z" fill="url(#paint2_linear_185_50)"/>
<path d="M82.5726 42.8921H75.8008V48.8672H82.5726V42.8921Z" fill="white"/>
<path d="M82.5726 50.8589H75.8008V56.834H82.5726V50.8589Z" fill="white"/>
<path d="M90.9378 42.8921H84.5643V48.8672H90.9378V42.8921Z" fill="white"/>
<path d="M90.9378 50.8589H84.5643V56.834H90.9378V50.8589Z" fill="white"/>
</g>
</g>
<defs>
<filter id="filter0_d_185_50" x="29.0994" y="92.6435" width="94.7774" height="15.1396" filterUnits="userSpaceOnUse" color-interpolation-filters="sRGB">
<feFlood flood-opacity="0" result="BackgroundImageFix"/>
<feColorMatrix in="SourceAlpha" type="matrix" values="0 0 0 0 0 0 0 0 0 0 0 0 0 0 0 0 0 0 127 0" result="hardAlpha"/>
<feOffset dx="1"/>
<feGaussianBlur stdDeviation="0.45"/>
<feComposite in2="hardAlpha" operator="out"/>
<feColorMatrix type="matrix" values="0 0 0 0 0 0 0 0 0 0 0 0 0 0 0 0 0 0 0.26 0"/>
<feBlend mode="normal" in2="BackgroundImageFix" result="effect1_dropShadow_185_50"/>
<feBlend mode="normal" in="SourceGraphic" in2="effect1_dropShadow_185_50" result="shape"/>
</filter>
<filter id="filter1_d_185_50" x="110.257" y="34.819" width="14.4477" height="51.715" filterUnits="userSpaceOnUse" color-interpolation-filters="sRGB">
<feFlood flood-opacity="0" result="BackgroundImageFix"/>
<feColorMatrix in="SourceAlpha" type="matrix" values="0 0 0 0 0 0 0 0 0 0 0 0 0 0 0 0 0 0 127 0" result="hardAlpha"/>
<feOffset dx="1"/>
<feGaussianBlur stdDeviation="0.45"/>
<feComposite in2="hardAlpha" operator="out"/>
<feColorMatrix type="matrix" values="0 0 0 0 0 0 0 0 0 0 0 0 0 0 0 0 0 0 0.26 0"/>
<feBlend mode="normal" in2="BackgroundImageFix" result="effect1_dropShadow_185_50"/>
<feBlend mode="normal" in="SourceGraphic" in2="effect1_dropShadow_185_50" result="shape"/>
</filter>
<filter id="filter2_d_185_50" x="28" y="16.8966" width="76.7881" height="70.7128" filterUnits="userSpaceOnUse" color-interpolation-filters="sRGB">
<feFlood flood-opacity="0" result="BackgroundImageFix"/>
<feColorMatrix in="SourceAlpha" type="matrix" values="0 0 0 0 0 0 0 0 0 0 0 0 0 0 0 0 0 0 127 0" result="hardAlpha"/>
<feOffset dx="1"/>
<feGaussianBlur stdDeviation="0.45"/>
<feComposite in2="hardAlpha" operator="out"/>
<feColorMatrix type="matrix" values="0 0 0 0 0 0 0 0 0 0 0 0 0 0 0 0 0 0 0.26 0"/>
<feBlend mode="normal" in2="BackgroundImageFix" result="effect1_dropShadow_185_50"/>
<feBlend mode="normal" in="SourceGraphic" in2="effect1_dropShadow_185_50" result="shape"/>
</filter>
<linearGradient id="paint0_linear_185_50" x1="84.883" y1="93.8797" x2="84.7496" y2="106.772" gradientUnits="userSpaceOnUse">
<stop stop-color="#1E3F57"/>
<stop offset="1" stop-color="#557689"/>
</linearGradient>
<linearGradient id="paint1_linear_185_50" x1="49.5104" y1="17.7966" x2="38.7552" y2="88.1037" gradientUnits="userSpaceOnUse">
<stop stop-color="#1E3F57"/>
<stop offset="1" stop-color="#557689"/>
</linearGradient>
<linearGradient id="paint2_linear_185_50" x1="84.7635" y1="17.7966" x2="84.7635" y2="86.7095" gradientUnits="userSpaceOnUse">
<stop stop-color="#2276CB"/>
<stop offset="1" stop-color="#2B89E5"/>
</linearGradient>
<clipPath id="clip0_185_50">
<rect width="96" height="96" fill="white" transform="translate(28 17)"/>
</clipPath>
</defs>
</svg>
