<svg width="16" height="15" viewBox="0 0 16 15" fill="none" xmlns="http://www.w3.org/2000/svg">
<path d="M14.4086 10.6484C14.6273 10.7578 14.7914 11.0039 14.7914 11.2773C14.7914 11.3047 14.7914 11.3594 14.7914 11.4141L14.1351 14.2578C14.0531 14.5586 13.807 14.75 13.5062 14.75C6.47888 14.75 0.818726 9.08984 0.818726 2.0625C0.818726 1.76172 1.01013 1.51562 1.31091 1.43359L4.15466 0.777344C4.20935 0.777344 4.26404 0.75 4.29138 0.75C4.56482 0.75 4.81091 0.914062 4.92029 1.16016L6.23279 4.22266C6.26013 4.30469 6.28748 4.38672 6.28748 4.46875C6.28748 4.6875 6.1781 4.87891 6.04138 4.98828L4.37341 6.35547C5.38513 8.48828 7.08044 10.1836 9.21326 11.1953L10.5804 9.52734C10.6898 9.39062 10.8812 9.28125 11.0726 9.28125C11.182 9.28125 11.264 9.30859 11.3461 9.33594L14.4086 10.6484Z" fill="#161533"/>
</svg>
