<svg width="16" height="16" viewBox="0 0 16 16" fill="none" xmlns="http://www.w3.org/2000/svg">
<path d="M8.00239 2.4656e-05C5.88096 0.0021503 3.847 0.845465 2.34676 2.34495C0.846533 3.84443 0.00255686 5.87761 4.54818e-06 7.99841C-0.00160236 9.50844 0.42262 10.9799 1.22286 12.2538L1.41247 12.5558L0.6042 15.5068L3.63322 14.7133L3.92406 14.8867C5.15739 15.6165 6.56441 16.001 7.99757 16H7.99918C10.1199 15.997 12.153 15.1536 13.6527 13.6546C15.1525 12.1556 15.9966 10.1233 16 8.00322C16.0036 6.95234 15.7987 5.91116 15.3971 4.93999C14.9955 3.96881 14.4052 3.08693 13.6603 2.3454C12.9193 1.59978 12.0376 1.00854 11.0664 0.605951C10.0952 0.203358 9.05377 -0.00259371 8.00239 2.4656e-05ZM12.7074 11.4345C12.5065 11.9968 11.5456 12.5076 11.0844 12.5767C10.5789 12.6639 10.0599 12.6314 9.56912 12.4819C9.10353 12.3378 8.64598 12.1689 8.19843 11.9759C5.78486 10.9349 4.21009 8.50764 4.08797 8.34539C3.96906 8.18475 3.10776 7.04098 3.10776 5.85865C3.10776 4.67472 3.72802 4.09319 3.94817 3.85223C4.029 3.76092 4.1278 3.68726 4.23839 3.63585C4.34899 3.58444 4.469 3.55638 4.59093 3.55343C4.75162 3.55343 4.9107 3.55504 5.05211 3.56146C5.19995 3.56789 5.3976 3.50524 5.59203 3.97432C5.79289 4.45624 6.27497 5.63857 6.33442 5.75905C6.39388 5.87793 6.43405 6.01929 6.35531 6.17993C6.27497 6.34218 6.2364 6.44018 6.11428 6.58154C5.99536 6.72291 5.86199 6.89479 5.75433 7.00403C5.63381 7.1229 5.50847 7.25303 5.64827 7.49399C5.78968 7.73335 6.27175 8.5221 6.98522 9.15985C7.90437 9.97912 8.6805 10.2313 8.91993 10.3534C9.16097 10.4723 9.30077 10.4546 9.44217 10.2924C9.58197 10.1301 10.0432 9.59037 10.2038 9.35101C10.3645 9.11005 10.5236 9.15021 10.7454 9.22893C10.9655 9.31085 12.1482 9.89077 12.3876 10.0113C12.6255 10.1301 12.7877 10.1912 12.8488 10.2924C12.9067 10.392 12.9067 10.8723 12.7074 11.4345Z" fill="white"/>
</svg>
