<svg width="70" height="47" viewBox="0 0 70 47" fill="none" xmlns="http://www.w3.org/2000/svg">
<path d="M64.048 20.7086V22.8191H64.815C65.6242 22.8191 66.2582 22.5183 66.2582 21.716C66.2582 21.185 65.9966 20.7064 64.9769 20.7064C64.6576 20.7064 64.4847 20.695 64.048 20.7086ZM61.9287 28.1638V18.6392C62.4452 18.6392 64.815 18.6392 65.0811 18.6392C67.6105 18.6392 68.5105 19.9314 68.5105 21.6887C68.5105 23.4573 67.4509 24.1798 66.9477 24.4396L69.6278 28.1638H67.0585L64.8283 24.8613H64.048V28.1638H61.9287Z" fill="white"/>
<path d="M59.3811 24.0658C59.3811 26.9786 57.581 28.1638 55.5947 28.1638C53.2116 28.1638 51.5557 26.7621 51.5557 23.9701V18.6392H53.675V23.5074C53.675 24.9912 54.1117 26.1216 55.5947 26.1216C56.8783 26.1216 57.2618 25.1553 57.2618 23.6305V18.6392H59.3811V24.0658Z" fill="white"/>
<path d="M46.2843 46.9034H0.664062V0H46.2843V16.0478H44.1694V2.17434H2.77671V44.7291H44.1694V30.7508H46.2843V46.9034Z" fill="white"/>
<path d="M37.1752 28.1661L32.7792 22.4476V28.1661H30.7906V18.6367H32.4866L36.8848 24.3803L36.8804 18.6367H38.8667L38.8711 28.1661H37.1752Z" fill="white"/>
<path d="M41.4209 18.6353H49.1023V20.6774H46.3201V28.1667H44.2008V20.6774H41.4209V18.6353Z" fill="white"/>
<path d="M9.98352 18.6353H12.1028V22.7879L15.1355 18.6353H17.6782L14.1955 23.0341L17.9553 28.1667H15.2685L12.1028 23.6312V28.1667H9.98352V18.6353Z" fill="white"/>
<path d="M23.4817 26.2016C25.191 26.2016 26.0777 24.9594 26.0777 23.4005C26.0777 21.7093 24.9338 20.5993 23.4817 20.5993C21.992 20.5993 20.888 21.7093 20.888 23.4005C20.888 24.9845 22.043 26.2016 23.4817 26.2016ZM23.4817 18.6187C26.2196 18.6187 28.2635 20.4534 28.2635 23.4005C28.2635 26.2016 26.2196 28.1823 23.4817 28.1823C20.7461 28.1823 18.7021 26.3452 18.7021 23.4005C18.7021 20.7178 20.6175 18.6187 23.4817 18.6187Z" fill="white"/>
</svg>
